<svg width="24" height="24" viewBox="0 0 24 24" fill="none" xmlns="http://www.w3.org/2000/svg">
  <path fill-rule="evenodd" clip-rule="evenodd" d="M12 2.5c-5.24671 0-9.5 4.25329-9.5 9.5 0 5.2467 4.25329 9.5 9.5 9.5 5.2467 0 9.5-4.2533 9.5-9.5 0-5.24671-4.2533-9.5-9.5-9.5zM1.5 12C1.5 6.20101 6.20101 1.5 12 1.5c5.799 0 10.5 4.70101 10.5 10.5 0 5.799-4.701 10.5-10.5 10.5-5.79899 0-10.5-4.701-10.5-10.5zM12 6c.2761 0 .5.22386.5.5v5h5c.2761 0 .5.2239.5.5s-.2239.5-.5.5h-5v5c0 .2761-.2239.5-.5.5s-.5-.2239-.5-.5v-5h-5c-.27614 0-.5-.2239-.5-.5s.22386-.5.5-.5h5v-5c0-.27614.2239-.5.5-.5z" fill="#000" fill-opacity=".7"/>
</svg>
