<svg width="24" height="24" viewBox="0 0 24 24" fill="none" xmlns="http://www.w3.org/2000/svg">
<path fill-rule="evenodd" clip-rule="evenodd" d="M10.8889 2.5C8.71043 2.5 6.94444 4.26599 6.94444 6.44444C6.94444 8.6229 8.71043 10.3889 10.8889 10.3889C13.0673 10.3889 14.8333 8.6229 14.8333 6.44444C14.8333 4.26599 13.0673 2.5 10.8889 2.5ZM5.94444 6.44444C5.94444 3.7137 8.15815 1.5 10.8889 1.5C13.6196 1.5 15.8333 3.7137 15.8333 6.44444C15.8333 9.17519 13.6196 11.3889 10.8889 11.3889C8.15815 11.3889 5.94444 9.17519 5.94444 6.44444ZM2.50384 19.2778H12.9193C12.72 18.7415 12.6111 18.1612 12.6111 17.5556C12.6111 15.5812 13.7684 13.8771 15.4415 13.0845C15.3873 13.0693 15.3314 13.054 15.2739 13.0387C14.2698 12.7709 12.7854 12.5 10.8889 12.5C6.77159 12.5 4.73773 13.4787 3.69983 14.7731C2.73626 15.9748 2.53223 17.5583 2.50384 19.2778ZM17.1472 12.6277C17.1333 12.6214 17.1176 12.6143 17.1 12.6065C17.0245 12.5729 16.9149 12.5263 16.7725 12.4712C16.4877 12.361 16.0711 12.2163 15.5316 12.0724C14.4524 11.7847 12.8813 11.5 10.8889 11.5C6.64701 11.5 4.23642 12.5054 2.91967 14.1475C1.62133 15.7667 1.5 17.8794 1.5 19.7778C1.5 20.0539 1.72386 20.2778 2 20.2778H13.4273C14.312 21.6167 15.8306 22.5 17.5556 22.5C20.2863 22.5 22.5 20.2863 22.5 17.5556C22.5 14.8248 20.2863 12.6111 17.5556 12.6111C17.418 12.6111 17.2819 12.6167 17.1472 12.6277ZM17.5556 13.6111C15.3771 13.6111 13.6111 15.3771 13.6111 17.5556C13.6111 19.734 15.3771 21.5 17.5556 21.5C19.734 21.5 21.5 19.734 21.5 17.5556C21.5 15.3771 19.734 13.6111 17.5556 13.6111ZM17.5556 14.8333C17.8317 14.8333 18.0556 15.0572 18.0556 15.3333V17.0556H19.7778C20.0539 17.0556 20.2778 17.2794 20.2778 17.5556C20.2778 17.8317 20.0539 18.0556 19.7778 18.0556H18.0556V19.7778C18.0556 20.0539 17.8317 20.2778 17.5556 20.2778C17.2794 20.2778 17.0556 20.0539 17.0556 19.7778V18.0556H15.3333C15.0572 18.0556 14.8333 17.8317 14.8333 17.5556C14.8333 17.2794 15.0572 17.0556 15.3333 17.0556H17.0556V15.3333C17.0556 15.0572 17.2794 14.8333 17.5556 14.8333Z" fill="black" fill-opacity="0.7"/>
</svg>
