<svg width="24" height="24" viewBox="0 0 24 24" fill="none" xmlns="http://www.w3.org/2000/svg">
<path d="M23 17V17.5C23.2762 17.5 23.5 17.2761 23.5 17H23ZM4.99998 19H4.49998C4.49998 19.2761 4.72384 19.5 4.99998 19.5V19ZM19 19V19.5C19.2761 19.5 19.5 19.2761 19.5 19H19ZM1 17H0.5C0.5 17.2761 0.723858 17.5 1 17.5V17ZM17 14.5H19V13.5H17V14.5ZM19 14.5C20.8674 14.5 21.682 14.8069 22.0587 15.1802C22.4227 15.5409 22.5 16.0795 22.5 17H23.5C23.5 16.1205 23.4581 15.1591 22.7626 14.4698C22.0796 13.7931 20.8943 13.5 19 13.5V14.5ZM23 16.5H18.7143V17.5H23V16.5ZM20.5 11C20.5 11.8284 19.8284 12.5 19 12.5V13.5C20.3807 13.5 21.5 12.3807 21.5 11H20.5ZM19 12.5C18.1716 12.5 17.5 11.8284 17.5 11H16.5C16.5 12.3807 17.6193 13.5 19 13.5V12.5ZM17.5 11C17.5 10.1716 18.1716 9.5 19 9.5V8.5C17.6193 8.5 16.5 9.61929 16.5 11H17.5ZM19 9.5C19.8284 9.5 20.5 10.1716 20.5 11H21.5C21.5 9.61929 20.3807 8.5 19 8.5V9.5ZM5.49998 19C5.49998 17.4926 5.61594 16.1653 6.41726 15.193C7.20292 14.2397 8.76487 13.5 12 13.5V12.5C8.65223 12.5 6.71418 13.2603 5.64556 14.557C4.59259 15.8347 4.49998 17.5074 4.49998 19H5.49998ZM12 13.5C15.2351 13.5 16.797 14.2397 17.5827 15.193C18.384 16.1653 18.5 17.4926 18.5 19H19.5C19.5 17.5074 19.4074 15.8347 18.3544 14.557C17.2858 13.2603 15.3477 12.5 12 12.5V13.5ZM15 8.5C15 10.1569 13.6568 11.5 12 11.5V12.5C14.2091 12.5 16 10.7091 16 8.5H15ZM12 11.5C10.3431 11.5 8.99998 10.1569 8.99998 8.5H7.99998C7.99998 10.7091 9.79084 12.5 12 12.5V11.5ZM8.99998 8.5C8.99998 6.84315 10.3431 5.5 12 5.5V4.5C9.79084 4.5 7.99998 6.29086 7.99998 8.5H8.99998ZM12 5.5C13.6568 5.5 15 6.84315 15 8.5H16C16 6.29086 14.2091 4.5 12 4.5V5.5ZM7.00004 13.5H5V14.5H7.00004V13.5ZM5 13.5C3.10576 13.5 1.92039 13.7931 1.23745 14.4698C0.541894 15.1591 0.5 16.1205 0.5 17H1.5C1.5 16.0795 1.57729 15.5409 1.94133 15.1802C2.31798 14.8069 3.13261 14.5 5 14.5V13.5ZM1 17.5H5.28571V16.5H1V17.5ZM2.50004 11C2.50004 12.3807 3.61933 13.5 5.00004 13.5V12.5C4.17161 12.5 3.50004 11.8284 3.50004 11H2.50004ZM5.00004 13.5C6.38075 13.5 7.50004 12.3807 7.50004 11H6.50004C6.50004 11.8284 5.82847 12.5 5.00004 12.5V13.5ZM7.50004 11C7.50004 9.61929 6.38075 8.5 5.00004 8.5V9.5C5.82847 9.5 6.50004 10.1716 6.50004 11H7.50004ZM5.00004 8.5C3.61933 8.5 2.50004 9.61929 2.50004 11H3.50004C3.50004 10.1716 4.17161 9.5 5.00004 9.5V8.5ZM19 18.5H4.99998V19.5H19V18.5Z" fill="black" fill-opacity="0.7"/>
</svg>
