<svg width="24" height="24" viewBox="0 0 24 24" fill="none" xmlns="http://www.w3.org/2000/svg">
<path d="M21.5 12C21.5 17.2467 17.2467 21.5 12 21.5V22.5C17.799 22.5 22.5 17.799 22.5 12H21.5ZM12 21.5C6.75329 21.5 2.5 17.2467 2.5 12H1.5C1.5 17.799 6.20101 22.5 12 22.5V21.5ZM2.5 12C2.5 6.75329 6.75329 2.5 12 2.5V1.5C6.20101 1.5 1.5 6.20101 1.5 12H2.5ZM12 2.5C17.2467 2.5 21.5 6.75329 21.5 12H22.5C22.5 6.20101 17.799 1.5 12 1.5V2.5ZM5 18.5C5 17.5782 5.20806 16.6271 6.10114 15.8844C7.02055 15.1198 8.75362 14.5 12 14.5V13.5C8.66352 13.5 6.64659 14.1302 5.46172 15.1156C4.25051 16.1229 4 17.4218 4 18.5H5ZM12 14.5C15.2464 14.5 16.9795 15.1198 17.8989 15.8844C18.7919 16.6271 19 17.5782 19 18.5H20C20 17.4218 19.7495 16.1229 18.5383 15.1156C17.3534 14.1302 15.3365 13.5 12 13.5V14.5ZM15 9.5C15 11.1569 13.6569 12.5 12 12.5V13.5C14.2091 13.5 16 11.7091 16 9.5H15ZM12 12.5C10.3431 12.5 9 11.1569 9 9.5H8C8 11.7091 9.79086 13.5 12 13.5V12.5ZM9 9.5C9 7.84315 10.3431 6.5 12 6.5V5.5C9.79086 5.5 8 7.29086 8 9.5H9ZM12 6.5C13.6569 6.5 15 7.84315 15 9.5H16C16 7.29086 14.2091 5.5 12 5.5V6.5Z" fill="black" fill-opacity="0.7"/>
</svg>
