<svg width="24" height="24" viewBox="0 0 24 24" fill="none" xmlns="http://www.w3.org/2000/svg">
<path fill-rule="evenodd" clip-rule="evenodd" d="M12 6.50001C10.0669 6.50001 8.49999 8.06662 8.49999 9.99882C8.49999 11.931 10.0669 13.4976 12 13.4976C13.9331 13.4976 15.5 11.931 15.5 9.99882C15.5 8.06662 13.9331 6.50001 12 6.50001ZM7.49999 9.99882C7.49999 7.51405 9.51485 5.50001 12 5.50001C14.4851 5.50001 16.5 7.51405 16.5 9.99882C16.5 12.4836 14.4851 14.4976 12 14.4976C9.51485 14.4976 7.49999 12.4836 7.49999 9.99882ZM4.75324 17.0532C5.9373 15.5092 8.12343 14.5 12 14.5C15.8766 14.5 18.0627 15.5092 19.2468 17.0532C20.4096 18.5696 20.5 20.4793 20.5 22C20.5 22.2761 20.2761 22.5 20 22.5H4C3.72386 22.5 3.5 22.2761 3.5 22C3.5 20.4793 3.59037 18.5696 4.75324 17.0532ZM4.50482 21.5H19.4952C19.4663 20.1322 19.2884 18.7507 18.4532 17.6618C17.5373 16.4674 15.7234 15.5 12 15.5C8.27655 15.5 6.46269 16.4674 5.54676 17.6618C4.71163 18.7507 4.53367 20.1322 4.50482 21.5Z" fill="black" fill-opacity="0.7"/>
<path d="M15.8589 3C15.8589 3.27614 16.0828 3.5 16.3589 3.5C16.635 3.5 16.8589 3.27614 16.8589 3C16.8589 2.72386 16.635 2.5 16.3589 2.5C16.0828 2.5 15.8589 2.72386 15.8589 3Z" fill="black" fill-opacity="0.7"/>
<path d="M18.6721 5.43215C18.6721 5.70829 18.896 5.93215 19.1721 5.93215C19.4483 5.93215 19.6721 5.70829 19.6721 5.43215C19.6721 5.15601 19.4483 4.93215 19.1721 4.93215C18.896 4.93215 18.6721 5.15601 18.6721 5.43215Z" fill="black" fill-opacity="0.7"/>
<path d="M20.789 7.94542C20.789 8.22156 21.0129 8.44542 21.289 8.44542C21.5652 8.44542 21.789 8.22156 21.789 7.94542C21.789 7.66928 21.5652 7.44542 21.289 7.44542C21.0129 7.44542 20.789 7.66928 20.789 7.94542Z" fill="black" fill-opacity="0.7"/>
<path d="M21.789 11C21.789 11.2761 22.0129 11.5 22.289 11.5C22.5652 11.5 22.789 11.2761 22.789 11C22.789 10.7239 22.5652 10.5 22.289 10.5C22.0129 10.5 21.789 10.7239 21.789 11Z" fill="black" fill-opacity="0.7"/>
<path d="M22 14C22 14.2761 22.2239 14.5 22.5 14.5C22.7761 14.5 23 14.2761 23 14C23 13.7239 22.7761 13.5 22.5 13.5C22.2239 13.5 22 13.7239 22 14Z" fill="black" fill-opacity="0.7"/>
<path d="M17.5 11C17.5 11.2761 17.7239 11.5 18 11.5C18.2761 11.5 18.5 11.2761 18.5 11C18.5 10.7239 18.2761 10.5 18 10.5C17.7239 10.5 17.5 10.7239 17.5 11Z" fill="black" fill-opacity="0.7"/>
<path d="M12.5014 4C12.5014 4.27614 12.7253 4.5 13.0014 4.5C13.2775 4.5 13.5014 4.27614 13.5014 4C13.5014 3.72386 13.2775 3.5 13.0014 3.5C12.7253 3.5 12.5014 3.72386 12.5014 4Z" fill="black" fill-opacity="0.7"/>
<path d="M10.5 4C10.5 4.27614 10.7239 4.5 11 4.5C11.2761 4.5 11.5 4.27614 11.5 4C11.5 3.72386 11.2761 3.5 11 3.5C10.7239 3.5 10.5 3.72386 10.5 4Z" fill="black" fill-opacity="0.7"/>
<path d="M17.4532 8.72824C17.4532 9.00438 17.6771 9.22823 17.9532 9.22823C18.2294 9.22823 18.4532 9.00438 18.4532 8.72824C18.4532 8.45209 18.2294 8.22824 17.9532 8.22824C17.6771 8.22824 17.4532 8.45209 17.4532 8.72824Z" fill="black" fill-opacity="0.7"/>
<path d="M21 17.5C21 17.7761 21.2239 18 21.5 18C21.7761 18 22 17.7761 22 17.5C22 17.2239 21.7761 17 21.5 17C21.2239 17 21 17.2239 21 17.5Z" fill="black" fill-opacity="0.7"/>
<path d="M16.5 6.57608C16.5 6.85223 16.7239 7.07608 17 7.07608C17.2761 7.07608 17.5 6.85223 17.5 6.57608C17.5 6.29994 17.2761 6.07609 17 6.07609C16.7239 6.07609 16.5 6.29994 16.5 6.57608Z" fill="black" fill-opacity="0.7"/>
<path d="M19.1112 14.9976C19.1112 15.2738 19.3351 15.4976 19.6112 15.4976C19.8874 15.4976 20.1112 15.2738 20.1112 14.9976C20.1112 14.7215 19.8874 14.4976 19.6112 14.4976C19.3351 14.4976 19.1112 14.7215 19.1112 14.9976Z" fill="black" fill-opacity="0.7"/>
<path d="M14.8589 4.93215C14.8589 5.20829 15.0828 5.43215 15.3589 5.43215C15.635 5.43215 15.8589 5.20829 15.8589 4.93215C15.8589 4.656 15.635 4.43215 15.3589 4.43215C15.0828 4.43215 14.8589 4.656 14.8589 4.93215Z" fill="black" fill-opacity="0.7"/>
<path d="M16.9002 13C16.9002 13.2761 17.1241 13.5 17.4002 13.5C17.6763 13.5 17.9002 13.2761 17.9002 13C17.9002 12.7239 17.6763 12.5 17.4002 12.5C17.1241 12.5 16.9002 12.7239 16.9002 13Z" fill="black" fill-opacity="0.7"/>
<path d="M8.2999 3C8.2999 3.27614 8.07604 3.5 7.7999 3.5C7.52376 3.5 7.2999 3.27614 7.2999 3C7.2999 2.72386 7.52376 2.5 7.7999 2.5C8.07604 2.5 8.2999 2.72386 8.2999 3Z" fill="black" fill-opacity="0.7"/>
<path d="M5.32785 5.43215C5.32785 5.70829 5.10399 5.93215 4.82785 5.93215C4.55171 5.93215 4.32785 5.70829 4.32785 5.43215C4.32785 5.15601 4.55171 4.93215 4.82785 4.93215C5.10399 4.93215 5.32785 5.15601 5.32785 5.43215Z" fill="black" fill-opacity="0.7"/>
<path d="M3.21098 7.94542C3.21098 8.22156 2.98712 8.44542 2.71098 8.44542C2.43483 8.44542 2.21098 8.22156 2.21098 7.94542C2.21098 7.66928 2.43483 7.44542 2.71098 7.44542C2.98712 7.44542 3.21098 7.66928 3.21098 7.94542Z" fill="black" fill-opacity="0.7"/>
<path d="M2.21098 11C2.21098 11.2761 1.98713 11.5 1.71098 11.5C1.43484 11.5 1.21098 11.2761 1.21098 11C1.21098 10.7239 1.43484 10.5 1.71098 10.5C1.98713 10.5 2.21098 10.7239 2.21098 11Z" fill="black" fill-opacity="0.7"/>
<path d="M2 14C2 14.2761 1.77614 14.5 1.5 14.5C1.22386 14.5 1 14.2761 1 14C1 13.7239 1.22386 13.5 1.5 13.5C1.77614 13.5 2 13.7239 2 14Z" fill="black" fill-opacity="0.7"/>
<path d="M4.5 12.5C4.5 12.7761 4.27614 13 4 13C3.72386 13 3.5 12.7761 3.5 12.5C3.5 12.2239 3.72386 12 4 12C4.27614 12 4.5 12.2239 4.5 12.5Z" fill="black" fill-opacity="0.7"/>
<path d="M7.46286 6.57608C7.46286 6.85223 7.239 7.07608 6.96286 7.07608C6.68672 7.07608 6.46286 6.85223 6.46286 6.57608C6.46286 6.29994 6.68672 6.07608 6.96286 6.07608C7.239 6.07608 7.46286 6.29994 7.46286 6.57608Z" fill="black" fill-opacity="0.7"/>
<path d="M9.25166 4.93215C9.25166 5.20829 9.02781 5.43215 8.75166 5.43215C8.47552 5.43215 8.25166 5.20829 8.25166 4.93215C8.25166 4.65601 8.47552 4.43215 8.75166 4.43215C9.02781 4.43215 9.25166 4.65601 9.25166 4.93215Z" fill="black" fill-opacity="0.7"/>
<path d="M4.53282 9.54969C4.53282 9.82584 4.30896 10.0497 4.03282 10.0497C3.75668 10.0497 3.53282 9.82584 3.53282 9.54969C3.53282 9.27355 3.75668 9.04969 4.03282 9.04969C4.30896 9.04969 4.53282 9.27355 4.53282 9.54969Z" fill="black" fill-opacity="0.7"/>
<path d="M2.99999 17.5C2.99999 17.7761 2.77614 18 2.5 18C2.22385 18 2 17.7761 2 17.5C2 17.2239 2.22385 17 2.5 17C2.77614 17 2.99999 17.2239 2.99999 17.5Z" fill="black" fill-opacity="0.7"/>
<path d="M6.54676 11C6.54676 11.2761 6.3229 11.5 6.04676 11.5C5.77061 11.5 5.54676 11.2761 5.54676 11C5.54676 10.7239 5.77061 10.5 6.04676 10.5C6.3229 10.5 6.54676 10.7239 6.54676 11Z" fill="black" fill-opacity="0.7"/>
<path d="M5 14.9976C5 15.2738 4.77614 15.4976 4.5 15.4976C4.22386 15.4976 4 15.2738 4 14.9976C4 14.7215 4.22386 14.4976 4.5 14.4976C4.77614 14.4976 5 14.7215 5 14.9976Z" fill="black" fill-opacity="0.7"/>
<path d="M6.7999 8.72823C6.7999 9.00438 6.57604 9.22823 6.2999 9.22823C6.02376 9.22823 5.7999 9.00438 5.7999 8.72823C5.7999 8.45209 6.02376 8.22823 6.2999 8.22823C6.57604 8.22823 6.7999 8.45209 6.7999 8.72823Z" fill="black" fill-opacity="0.7"/>
<path d="M7.2999 13C7.2999 13.2761 7.07604 13.5 6.7999 13.5C6.52376 13.5 6.2999 13.2761 6.2999 13C6.2999 12.7239 6.52376 12.5 6.7999 12.5C7.07604 12.5 7.2999 12.7239 7.2999 13Z" fill="black" fill-opacity="0.7"/>
<path d="M11.5 2C11.5 2.27614 11.7239 2.5 12 2.5C12.2761 2.5 12.5 2.27614 12.5 2C12.5 1.72386 12.2761 1.5 12 1.5C11.7239 1.5 11.5 1.72386 11.5 2Z" fill="black" fill-opacity="0.7"/>
<path d="M20.78 12.3746C20.78 12.6507 20.5561 12.8746 20.28 12.8746C20.0039 12.8746 19.78 12.6507 19.78 12.3746C19.78 12.0984 20.0039 11.8746 20.28 11.8746C20.5561 11.8746 20.78 12.0984 20.78 12.3746Z" fill="black" fill-opacity="0.7"/>
<path d="M20.5 9.54969C20.5 9.82584 20.2761 10.0497 20 10.0497C19.7239 10.0497 19.5 9.82584 19.5 9.54969C19.5 9.27355 19.7239 9.04969 20 9.04969C20.2761 9.04969 20.5 9.27355 20.5 9.54969Z" fill="black" fill-opacity="0.7"/>
</svg>
