<svg width="24" height="24" viewBox="0 0 24 24" fill="none" xmlns="http://www.w3.org/2000/svg">
<path fill-rule="evenodd" clip-rule="evenodd" d="M11.6834 1.61302C11.8676 1.46233 12.1324 1.46233 12.3166 1.61302L23.3166 10.613C23.5303 10.7879 23.5618 11.1029 23.387 11.3166C23.2121 11.5303 22.8971 11.5618 22.6834 11.387L21 10.0097V11.5C21.1894 11.5 21.3625 11.607 21.4472 11.7764L22.4472 13.7764C22.4819 13.8458 22.5 13.9224 22.5 14V22C22.5 22.2761 22.2761 22.5 22 22.5H20C19.7239 22.5 19.5 22.2761 19.5 22V20.5H18V22C18 22.2761 17.7761 22.5 17.5 22.5H15.5C15.2239 22.5 15 22.2761 15 22V20.5H13.5V22C13.5 22.2761 13.2761 22.5 13 22.5H11C10.7239 22.5 10.5 22.2761 10.5 22V20.5H9V22C9 22.2761 8.77614 22.5 8.5 22.5H6.5C6.22386 22.5 6 22.2761 6 22V20.5H4.5V22C4.5 22.2761 4.27614 22.5 4 22.5H2C1.72386 22.5 1.5 22.2761 1.5 22V14C1.5 13.9224 1.51807 13.8458 1.55279 13.7764L2.55279 11.7764C2.63748 11.607 2.81061 11.5 3 11.5V10.0097L1.31662 11.387C1.1029 11.5618 0.787885 11.5303 0.613021 11.3166C0.438157 11.1029 0.469658 10.7879 0.683381 10.613L11.6834 1.61302ZM3.93162 9.24744C3.97508 9.32156 4 9.40787 4 9.5V12.882L4.30902 13.5H6.19098L7.05279 11.7764C7.13748 11.607 7.31061 11.5 7.5 11.5C7.68939 11.5 7.86252 11.607 7.94721 11.7764L8.80902 13.5H10.691L11.5528 11.7764C11.6375 11.607 11.8106 11.5 12 11.5C12.1894 11.5 12.3625 11.607 12.4472 11.7764L13.309 13.5H15.191L16.0528 11.7764C16.1375 11.607 16.3106 11.5 16.5 11.5C16.6894 11.5 16.8625 11.607 16.9472 11.7764L17.809 13.5H19.691L20 12.882V9.5C20 9.40787 20.0249 9.32156 20.0684 9.24744L12 2.64603L3.93162 9.24744ZM20.9427 13.2326L20.5 14.118V21.5H21.5V14.118L21 13.118L20.952 13.2139C20.9491 13.2202 20.946 13.2264 20.9427 13.2326ZM19.5 19.5V18.5H18V19.5H19.5ZM18 17.5H19.5V16.5H18V17.5ZM18 15.5H19.5V14.5H18V15.5ZM17 14.118L16.5 13.118L16 14.118V21.5H17V14.118ZM15 14.5H13.5V15.5H15V14.5ZM15 16.5H13.5V17.5H15V16.5ZM15 18.5H13.5V19.5H15V18.5ZM12.5 14.118L12 13.118L11.5 14.118V21.5H12.5V14.118ZM10.5 19.5V18.5H9V19.5H10.5ZM9 17.5H10.5V16.5H9V17.5ZM9 15.5H10.5V14.5H9V15.5ZM8 14.118V21.5H7V14.118L7.5 13.118L8 14.118ZM6 14.5H4.5V15.5H6V14.5ZM6 16.5H4.5V17.5H6V16.5ZM6 18.5H4.5V19.5H6V18.5ZM3.5 14.118L3.05728 13.2326C3.05404 13.2264 3.05093 13.2202 3.04795 13.2139L3 13.118L2.5 14.118V21.5H3.5V14.118ZM12 6.5C11.1716 6.5 10.5 7.17157 10.5 8C10.5 8.82843 11.1716 9.5 12 9.5C12.8284 9.5 13.5 8.82843 13.5 8C13.5 7.17157 12.8284 6.5 12 6.5ZM9.5 8C9.5 6.61929 10.6193 5.5 12 5.5C13.3807 5.5 14.5 6.61929 14.5 8C14.5 9.38071 13.3807 10.5 12 10.5C10.6193 10.5 9.5 9.38071 9.5 8Z" fill="black" fill-opacity="0.7"/>
</svg>
