<svg width="24" height="24" viewBox="0 0 24 24" fill="none" xmlns="http://www.w3.org/2000/svg">
<path fill-rule="evenodd" clip-rule="evenodd" d="M11.6834 1.61302C11.8676 1.46233 12.1324 1.46233 12.3166 1.61302L23.3166 10.613C23.5303 10.7879 23.5618 11.1029 23.387 11.3166C23.2121 11.5303 22.8971 11.5618 22.6834 11.387L21 10.0097V22C21 22.2761 20.7761 22.5 20.5 22.5H3.5C3.22386 22.5 3 22.2761 3 22V10.0097L1.31662 11.387C1.1029 11.5618 0.787885 11.5303 0.613021 11.3166C0.438157 11.1029 0.469658 10.7879 0.683381 10.613L11.6834 1.61302ZM3.93162 9.24744C3.97508 9.32156 4 9.40787 4 9.5V13.5H20V9.5C20 9.40787 20.0249 9.32156 20.0684 9.24744L12 2.64603L3.93162 9.24744ZM20 14.5H7.5V15.5H9.5C9.77614 15.5 10 15.7239 10 16V17.5H12C12.2761 17.5 12.5 17.7239 12.5 18V19.5H14.5C14.7761 19.5 15 19.7239 15 20V21.5H20V14.5ZM14 21.5V20.5H12C11.7239 20.5 11.5 20.2761 11.5 20V18.5H9.5C9.22386 18.5 9 18.2761 9 18V16.5H7C6.72386 16.5 6.5 16.2761 6.5 16V14.5H4V21.5H14ZM12 6.5C11.1716 6.5 10.5 7.17157 10.5 8C10.5 8.82843 11.1716 9.5 12 9.5C12.8284 9.5 13.5 8.82843 13.5 8C13.5 7.17157 12.8284 6.5 12 6.5ZM9.5 8C9.5 6.61929 10.6193 5.5 12 5.5C13.3807 5.5 14.5 6.61929 14.5 8C14.5 9.38071 13.3807 10.5 12 10.5C10.6193 10.5 9.5 9.38071 9.5 8Z" fill="black" fill-opacity="0.7"/>
</svg>
