<svg width="24" height="24" viewBox="0 0 24 24" fill="none" xmlns="http://www.w3.org/2000/svg">
<path fill-rule="evenodd" clip-rule="evenodd" d="M6.5 2.5C6.22386 2.5 6 2.72386 6 3C6 3.27614 6.22386 3.5 6.5 3.5C6.77614 3.5 7 3.27614 7 3C7 2.72386 6.77614 2.5 6.5 2.5ZM5 3C5 2.17157 5.67157 1.5 6.5 1.5C7.32843 1.5 8 2.17157 8 3C8 3.82843 7.32843 4.5 6.5 4.5C5.67157 4.5 5 3.82843 5 3ZM3 5C2.72386 5 2.5 5.22386 2.5 5.5C2.5 5.77614 2.72386 6 3 6C3.27614 6 3.5 5.77614 3.5 5.5C3.5 5.22386 3.27614 5 3 5ZM1.5 5.5C1.5 4.67157 2.17157 4 3 4C3.82843 4 4.5 4.67157 4.5 5.5C4.5 6.32843 3.82843 7 3 7C2.17157 7 1.5 6.32843 1.5 5.5ZM19.8634 5.5013C20.2566 5.85082 20.5 6.36432 20.5 7V9.5H22C22.8284 9.5 23.5 10.1716 23.5 11C23.5 11.6884 23.0363 12.2685 22.4042 12.4449L20.8638 18.6063C20.5906 19.6993 19.6212 20.4719 18.5 20.4993V21C18.5 21.8284 17.8284 22.5 17 22.5C16.1716 22.5 15.5 21.8284 15.5 21V20.5H8.5V21C8.5 21.8284 7.82843 22.5 7 22.5C6.17157 22.5 5.5 21.8284 5.5 21V20.4993C4.37876 20.4719 3.40944 19.6993 3.1362 18.6063L1.59584 12.4449C0.963728 12.2685 0.5 11.6884 0.5 11C0.5 10.1716 1.17157 9.5 2 9.5H3.5C3.50132 8.39597 4.39548 7.5 5.5 7.5C6.60452 7.5 7.49868 8.39597 7.5 9.5H9V9C9 8.72386 9.22386 8.5 9.5 8.5H14.5C14.7761 8.5 15 8.72386 15 9V9.5H19.5V7C19.5 6.63568 19.3684 6.39918 19.1991 6.2487C19.0206 6.09005 18.7685 6 18.5 6C18.2315 6 17.9794 6.09005 17.8009 6.2487C17.6316 6.39918 17.5 6.63568 17.5 7C17.5 7.27614 17.2761 7.5 17 7.5C16.7239 7.5 16.5 7.27614 16.5 7C16.5 6.36432 16.7434 5.85082 17.1366 5.5013C17.5206 5.15995 18.0185 5 18.5 5C18.9815 5 19.4794 5.15995 19.8634 5.5013ZM15 10.5V11.5H22C22.2761 11.5 22.5 11.2761 22.5 11C22.5 10.7239 22.2761 10.5 22 10.5H15ZM14 9.5H10V13H14V9.5ZM15 12.5H21.3596L19.8937 18.3638C19.7267 19.0316 19.1267 19.5 18.4384 19.5H5.56155C4.87325 19.5 4.27328 19.0316 4.10634 18.3638L2.64039 12.5H9V15.5C9 15.7761 9.22386 16 9.5 16H14.5C14.7761 16 15 15.7761 15 15.5V12.5ZM14 14H10V15H14V14ZM9 11.5V10.5H2C1.72386 10.5 1.5 10.7239 1.5 11C1.5 11.2761 1.72386 11.5 2 11.5H9ZM6.5 20.5V21C6.5 21.2761 6.72386 21.5 7 21.5C7.27614 21.5 7.5 21.2761 7.5 21V20.5H6.5ZM16.5 20.5V21C16.5 21.2761 16.7239 21.5 17 21.5C17.2761 21.5 17.5 21.2761 17.5 21V20.5H16.5ZM6.5 9.5C6.49868 8.94672 6.0507 8.5 5.5 8.5C4.9493 8.5 4.50132 8.94672 4.5 9.5H6.5Z" fill="black" fill-opacity="0.7"/>
</svg>
