<svg width="24" height="24" viewBox="0 0 24 24" fill="none" xmlns="http://www.w3.org/2000/svg">
<path fill-rule="evenodd" clip-rule="evenodd" d="M2 2.5C1.72386 2.5 1.5 2.72386 1.5 3V21.5H2.51232L2.53732 20.4984L2.49992 18.5L2.5 3C2.5 2.72386 2.27614 2.5 2 2.5ZM3.50001 7V10H13.5L13.5 7H3.50001ZM14.5 6V5.5C14.5 5.22386 14.2761 5 14 5C13.7239 5 13.5 5.22386 13.5 5.5V6H9.45853C9.22049 4.58114 7.98651 3.5 6.50001 3.5H3.5V3C3.5 2.17157 2.82843 1.5 2 1.5C1.17157 1.5 0.5 2.17157 0.5 3V22C0.5 22.2761 0.723858 22.5 1 22.5H3C3.27128 22.5 3.49307 22.2837 3.49984 22.0125L3.52512 21H13.5L13.5 22C13.5 22.2761 13.7239 22.5 14 22.5C14.2762 22.5 14.5 22.2761 14.5 22L14.5 21H17.5V22C17.5 22.2761 17.7239 22.5 18 22.5C18.2761 22.5 18.5 22.2761 18.5 22V21H20.5V22C20.5 22.2761 20.7239 22.5 21 22.5H23C23.2761 22.5 23.5 22.2761 23.5 22V2.99712C23.5 2.17028 22.8297 1.5 22.0029 1.5C21.1727 1.5 20.501 2.17555 20.5058 3.00574L20.5259 6.50111C20.0986 6.18516 19.5682 6 18.9995 6H18.5V5.5C18.5 5.22386 18.2761 5 18 5C17.7239 5 17.5 5.22386 17.5 5.5V6H14.5ZM14.5 7L14.5 8H17.5V7H14.5ZM18.5 7L18.5 10H20.5091L20.5372 8.4754C20.5241 7.65725 19.8454 7 18.9995 7H18.5ZM21.5373 8.47078L21.5373 8.47366L21.5374 8.48576L21.5 10.5046L21.5 21.5H22.5V2.99712C22.5 2.72257 22.2774 2.5 22.0029 2.5C21.7272 2.5 21.5042 2.72432 21.5058 2.99998L21.5373 8.47078ZM20.5 16.4998V11H18.5L18.5 16H19C19.5628 16 20.0822 16.186 20.5 16.4998ZM18.5 17H19C19.8284 17 20.5 17.6716 20.5 18.5L20.5 20H18.5V17ZM17.5 16V15H14.5V16H17.5ZM14.5 17H17.5V18H14.5V17ZM13.5 16L13.5 11H3.50001V13.5H6.50001C7.9865 13.5 9.22049 14.5811 9.45853 16H13.5ZM8.437 16C8.21498 15.1374 7.43193 14.5 6.50001 14.5H3.50001V16H8.437ZM3.50001 17H13.5L13.5 20H3.52817L3.50001 18.4953V17ZM14.5 20H17.5V19H14.5L14.5 20ZM14.5 11L14.5 12H17.5L17.5 11H14.5ZM17.5 10V9H14.5L14.5 10H17.5ZM17.5 13H14.5V14H17.5V13ZM3.5 4.5V6H8.437C8.21498 5.13739 7.43193 4.5 6.50001 4.5H3.5Z" fill="black" fill-opacity="0.6"/>
</svg>
