<svg width="24" height="24" viewBox="0 0 24 24" fill="none" xmlns="http://www.w3.org/2000/svg">
<path fill-rule="evenodd" clip-rule="evenodd" d="M6.62828 2.19602C7.42196 1.79989 8.25679 1.50001 9 1.5H15C15.7432 1.50001 16.5781 1.7999 17.3717 2.19603C18.1778 2.59835 18.9984 3.12945 19.7286 3.65235C20.4605 4.17648 21.1114 4.69952 21.5788 5.09099C21.8128 5.28695 22.0015 5.45049 22.1321 5.56543C22.1974 5.62291 22.2482 5.66828 22.283 5.69951L22.3229 5.73551L22.3335 5.7451L22.3363 5.7477L22.3371 5.74845C22.3372 5.74853 22.3375 5.74882 22 6.1177L22.3371 5.74845C22.4929 5.89096 22.5427 6.1163 22.4611 6.31099L20.4611 11.0822C20.4062 11.2133 20.298 11.3148 20.1636 11.3614C20.0293 11.4079 19.8815 11.395 19.7572 11.326L17.5076 10.0762C17.5364 11.895 17.6427 14.5592 17.7495 16.912C17.8119 18.2875 17.8744 19.5529 17.9212 20.4744C17.9447 20.9352 17.9642 21.3099 17.9778 21.5694L17.9993 21.9726C18.0067 22.1097 17.9574 22.2442 17.863 22.3439C17.7686 22.4435 17.6373 22.5 17.5 22.5H6C5.85804 22.5 5.72277 22.4397 5.62793 22.334C5.5331 22.2284 5.48764 22.0874 5.5029 21.9462L5.51406 21.8422L5.54572 21.5434C5.57301 21.2841 5.61201 20.9097 5.65882 20.4492C5.75244 19.5283 5.87726 18.2638 6.00205 16.8894C6.21546 14.5391 6.42679 11.8884 6.48458 10.0805L4.24283 11.326C4.11854 11.395 3.97073 11.4079 3.83638 11.3614C3.70203 11.3148 3.59384 11.2133 3.53888 11.0822L1.53888 6.31094C1.45727 6.11625 1.50673 5.89128 1.66247 5.74877L2.00001 6.11765C1.66247 5.74877 1.66239 5.74885 1.66247 5.74877L1.66655 5.74504L1.6771 5.73546L1.717 5.69946C1.75176 5.66823 1.8026 5.62286 1.86791 5.56538C1.99851 5.45044 2.18718 5.2869 2.42116 5.09094C2.88859 4.69948 3.53949 4.17645 4.2714 3.65232C5.00158 3.12943 5.82223 2.59833 6.62828 2.19602ZM2.59933 6.25404L4.24528 10.1806L6.75718 8.78514C6.91205 8.69911 7.10088 8.70144 7.25357 8.79129C7.40626 8.88113 7.5 9.04506 7.5 9.22222C7.5 11.0136 7.24755 14.2311 6.99796 16.9799C6.87275 18.3588 6.74757 19.627 6.65369 20.5504C6.61501 20.9308 6.58164 21.2528 6.55577 21.5H16.9728C16.9597 21.2498 16.9425 20.9188 16.9225 20.5252C16.8756 19.6024 16.8131 18.3351 16.7505 16.9573C16.6256 14.2063 16.5 11.0003 16.5 9.22222C16.5 9.04506 16.5938 8.88113 16.7464 8.79129C16.8991 8.70144 17.088 8.69911 17.2428 8.78514L19.7547 10.1806L21.4007 6.25409C21.2811 6.14968 21.1241 6.01453 20.9368 5.85764C20.4823 5.47705 19.852 4.97066 19.1464 4.46538C18.4391 3.95885 17.666 3.46054 16.9252 3.09078C16.3782 2.81779 15.8777 2.62975 15.4505 2.54723C15.3469 3.16022 15.0814 3.87243 14.6635 4.48704C14.1071 5.30522 13.2216 6.02941 12 6.02941C10.7705 6.02941 9.92625 5.29624 9.3936 4.47887C8.98237 3.84783 8.72819 3.12895 8.59281 2.53918C8.15631 2.61706 7.6404 2.8085 7.07486 3.09077C6.33403 3.46052 5.56093 3.95884 4.85361 4.46535C4.14802 4.97063 3.51766 5.47701 3.06322 5.8576C2.87588 6.01449 2.71888 6.14964 2.59933 6.25404ZM9.6132 2.5C9.73494 2.95686 9.93628 3.48002 10.2314 3.9329C10.6571 4.58612 11.2295 5.02941 12 5.02941C12.7784 5.02941 13.3929 4.57713 13.8365 3.92473C14.1516 3.46147 14.3509 2.93694 14.442 2.5H9.6132Z" fill="black" fill-opacity="0.7"/>
</svg>
