<svg width="24" height="24" viewBox="0 0 24 24" fill="none" xmlns="http://www.w3.org/2000/svg">
<path d="M16.6186 11.7013C17.1993 10.8714 17.5163 9.85121 17.52 8.8C17.52 6.1536 15.5818 4 13.2 4H6V20H13.68C16.0618 20 18 17.8464 18 15.2C17.9987 14.5426 17.8754 13.8926 17.6377 13.2906C17.4 12.6886 17.053 12.1476 16.6186 11.7013ZM13.2 7.2C13.9939 7.2 14.64 7.91787 14.64 8.8C14.64 9.68213 13.9939 10.4 13.2 10.4H8.88V7.2H13.2ZM13.68 16.8H8.88V13.6H13.68C14.4739 13.6 15.12 14.3179 15.12 15.2C15.12 16.0821 14.4739 16.8 13.68 16.8Z" fill="black" fill-opacity="0.8"/>
</svg>
