<svg fill="none" xmlns="http://www.w3.org/2000/svg" width='24' height='24' viewBox="0 0 24 24">
  <path d="M3 5v-.5c-.27614 0-.5.22386-.5.5H3zm18 0h.5c0-.27614-.2239-.5-.5-.5V5zm0 15v.5c.2761 0 .5-.2239.5-.5H21zM3 20h-.5c0 .2761.22386.5.5.5V20zM6.5 4c0-.27614-.22386-.5-.5-.5s-.5.22386-.5.5h1zm-1 2c0 .27614.22386.5.5.5s.5-.22386.5-.5h-1zm4-2c0-.27614-.22386-.5-.5-.5s-.5.22386-.5.5h1zm-1 2c0 .27614.22386.5.5.5s.5-.22386.5-.5h-1zm4-2c0-.27614-.2239-.5-.5-.5s-.5.22386-.5.5h1zm-1 2c0 .27614.2239.5.5.5s.5-.22386.5-.5h-1zm4-2c0-.27614-.2239-.5-.5-.5s-.5.22386-.5.5h1zm-1 2c0 .27614.2239.5.5.5s.5-.22386.5-.5h-1zm4-2c0-.27614-.2239-.5-.5-.5s-.5.22386-.5.5h1zm-1 2c0 .27614.2239.5.5.5s.5-.22386.5-.5h-1zM6 13.5c-.27614 0-.5.2239-.5.5s.22386.5.5.5v-1zm12 1c.2761 0 .5-.2239.5-.5s-.2239-.5-.5-.5v1zM6 11c-.27614 0-.5.2239-.5.5s.22386.5.5.5v-1zm12 1c.2761 0 .5-.2239.5-.5s-.2239-.5-.5-.5v1zM6 16c-.27614 0-.5.2239-.5.5s.22386.5.5.5v-1zm10.5 1c.2761 0 .5-.2239.5-.5s-.2239-.5-.5-.5v1zM3 5.5h3v-1H3v1zm3 0h3v-1H6v1zm3 0h3v-1H9v1zm3 0h3v-1h-3v1zm3 0h3v-1h-3v1zm3 0h3v-1h-3v1zm2.5-.5v3h1V5h-1zm0 3v12h1V8h-1zm.5 11.5H3v1h18v-1zM3.5 20V8h-1v12h1zm0-12V5h-1v3h1zm2-4v1h1V4h-1zm0 1v1h1V5h-1zm3-1v1h1V4h-1zm0 1v1h1V5h-1zm3-1v1h1V4h-1zm0 1v1h1V5h-1zm3-1v1h1V4h-1zm0 1v1h1V5h-1zm3-1v1h1V4h-1zm0 1v1h1V5h-1zM3 8.5h18v-1H3v1zm3 6h12v-1H6v1zM6 12h12v-1H6v1zm0 5h10.5v-1H6v1z" fill="#000" fill-opacity=".7"/>
</svg>
