<svg width="24" height="24" fill="none" xmlns="http://www.w3.org/2000/svg"><path fill-rule="evenodd" clip-rule="evenodd" d="M10.4596 4.5c-.71567 0-1.33165.50554-1.47123 1.20743-.12465.62682-.67473 1.07828-1.31382 1.07828H4c-.82843 0-1.5.67157-1.5 1.5V18c0 .8284.67157 1.5 1.5 1.5h16c.8284 0 1.5-.6716 1.5-1.5V8.28571c0-.82843-.6716-1.5-1.5-1.5h-3.6747c-.639 0-1.1891-.45146-1.3138-1.07828C14.8719 5.00554 14.256 4.5 13.5403 4.5h-3.0807zM8.00758 5.51239C8.24021 4.34257 9.26684 3.5 10.4596 3.5h3.0807c1.1928 0 2.2194.84256 2.452 2.01239.0316.15888.171.27332.333.27332H20c1.3807 0 2.5 1.11929 2.5 2.5V18c0 1.3807-1.1193 2.5-2.5 2.5H4c-1.38071 0-2.5-1.1193-2.5-2.5V8.28571c0-1.38071 1.11929-2.5 2.5-2.5h3.67455c.162 0 .30143-.11444.33303-.27332z" fill="#000" fill-opacity=".7"/><path fill-rule="evenodd" clip-rule="evenodd" d="M8.5 8.5c.27614 0 .5.22386.5.5v.6089C9.63509 9.05088 10.618 8.5 12 8.5c.8466 0 1.9674.27899 2.8855 1.05581C15.8211 10.3475 16.5 11.6178 16.5 13.5c0 .2761-.2239.5-.5.5s-.5-.2239-.5-.5c0-1.6178-.5711-2.5975-1.2605-3.1808C13.5326 9.72102 12.6534 9.5 12 9.5c-1.1036 0-1.8647.43761-2.35532.8737-.04751.0422-.09248.0845-.13495.1263H10.5c.2761 0 .5.2239.5.5s-.2239.5-.5.5h-2c-.27614 0-.5-.2239-.5-.5V9c0-.27614.22386-.5.5-.5zM8 12c.27614 0 .5.2239.5.5 0 1.6178.5711 2.5975 1.26047 3.1808C10.4674 16.279 11.3466 16.5 12 16.5c1.1036 0 1.8647-.4376 2.3553-.8737.0475-.0422.0925-.0845.135-.1263H13.5c-.2761 0-.5-.2239-.5-.5s.2239-.5.5-.5h2c.2761 0 .5.2239.5.5v2c0 .2761-.2239.5-.5.5s-.5-.2239-.5-.5v-.6089c-.6351.558-1.618 1.1089-3 1.1089-.8466 0-1.9674-.279-2.88547-1.0558C8.1789 15.6525 7.5 14.3822 7.5 12.5c0-.2761.22386-.5.5-.5z" fill="#000" fill-opacity=".7"/></svg>