<svg width="24" height="24" viewBox="0 0 24 24" fill="none" xmlns="http://www.w3.org/2000/svg">
<path fill-rule="evenodd" clip-rule="evenodd" d="M10.4596 4.5C9.74393 4.5 9.12795 5.00554 8.98837 5.70743C8.86372 6.33425 8.31364 6.78571 7.67455 6.78571H4C3.17157 6.78571 2.5 7.45729 2.5 8.28571V18C2.5 18.8284 3.17157 19.5 4 19.5H20C20.8284 19.5 21.5 18.8284 21.5 18V8.28571C21.5 7.45729 20.8284 6.78571 20 6.78571H16.3253C15.6863 6.78571 15.1362 6.33425 15.0115 5.70743C14.8719 5.00554 14.256 4.5 13.5403 4.5H10.4596ZM8.00758 5.51239C8.24021 4.34257 9.26684 3.5 10.4596 3.5H13.5403C14.7331 3.5 15.7597 4.34257 15.9923 5.51239C16.0239 5.67128 16.1633 5.78571 16.3253 5.78571H20C21.3807 5.78571 22.5 6.905 22.5 8.28571V18C22.5 19.3807 21.3807 20.5 20 20.5H4C2.61929 20.5 1.5 19.3807 1.5 18V8.28571C1.5 6.905 2.61929 5.78571 4 5.78571H7.67455C7.83655 5.78571 7.97598 5.67128 8.00758 5.51239ZM12 9.5C10.067 9.5 8.5 11.067 8.5 13C8.5 14.933 10.067 16.5 12 16.5C13.933 16.5 15.5 14.933 15.5 13C15.5 11.067 13.933 9.5 12 9.5ZM7.5 13C7.5 10.5147 9.51472 8.5 12 8.5C14.4853 8.5 16.5 10.5147 16.5 13C16.5 15.4853 14.4853 17.5 12 17.5C9.51472 17.5 7.5 15.4853 7.5 13Z" fill="black" fill-opacity="0.7"/>
</svg>
