<svg width="16" height="16" viewBox="0 0 16 16" fill="none" xmlns="http://www.w3.org/2000/svg">
<path fill-rule="evenodd" clip-rule="evenodd" d="M5.57092 2.48999C5.81058 2.20389 6.15621 2 6.6 2H9.4C9.84379 2 10.1894 2.20389 10.4291 2.48999C10.657 2.76203 10.7886 3.10428 10.8622 3.42453C10.8834 3.51634 10.9312 3.59624 10.9883 3.6489C11.0427 3.69906 11.0976 3.71875 11.15 3.71875H13.6C14.6408 3.71875 15.5 4.54976 15.5 5.59375V12.125C15.5 13.169 14.6408 14 13.6 14H2.4C1.35919 14 0.5 13.169 0.5 12.125V5.59375C0.5 4.54976 1.35919 3.71875 2.4 3.71875H4.85C4.90236 3.71875 4.95727 3.69906 5.01168 3.6489C5.06881 3.59624 5.11665 3.51634 5.13775 3.42453C5.21137 3.10428 5.34304 2.76203 5.57092 2.48999ZM6.3375 3.13214C6.24695 3.24023 6.16574 3.41625 6.11234 3.64856C5.98942 4.18327 5.52836 4.71875 4.85 4.71875H2.4C1.89441 4.71875 1.5 5.11896 1.5 5.59375V12.125C1.5 12.5998 1.89441 13 2.4 13H13.6C14.1056 13 14.5 12.5998 14.5 12.125V5.59375C14.5 5.11896 14.1056 4.71875 13.6 4.71875H11.15C10.4716 4.71875 10.0106 4.18327 9.88766 3.64856C9.83426 3.41625 9.75305 3.24023 9.6625 3.13214C9.58373 3.03811 9.50539 3 9.4 3H6.6C6.49461 3 6.41627 3.03811 6.3375 3.13214Z" fill="black" fill-opacity="0.7"/>
<path fill-rule="evenodd" clip-rule="evenodd" d="M8 6.5C6.89543 6.5 6 7.39543 6 8.5C6 9.60457 6.89543 10.5 8 10.5C9.10457 10.5 10 9.60457 10 8.5C10 7.39543 9.10457 6.5 8 6.5ZM5 8.5C5 6.84315 6.34315 5.5 8 5.5C9.65685 5.5 11 6.84315 11 8.5C11 10.1569 9.65685 11.5 8 11.5C6.34315 11.5 5 10.1569 5 8.5Z" fill="black" fill-opacity="0.7"/>
</svg>
