<svg width="24" height="24" viewBox="0 0 24 24" fill="none" xmlns="http://www.w3.org/2000/svg">
<path fill-rule="evenodd" clip-rule="evenodd" d="M4.00238 9.29051C4.01461 8.74245 4.07429 8.10159 4.19018 7.4375H2C1.72386 7.4375 1.5 7.66136 1.5 7.9375V8C1.5 8.33408 1.71654 8.70259 2.13406 9.01292C2.54658 9.31954 3.06901 9.5 3.5 9.5C3.58477 9.5 3.66462 9.5211 3.73457 9.55832L4.00238 9.29051ZM2.95172 10.4448C2.44883 10.3462 1.9486 10.1211 1.53751 9.8155C0.98117 9.40198 0.5 8.77049 0.5 8V7.9375C0.5 7.10907 1.17157 6.4375 2 6.4375H4.40599C4.51396 6.02173 4.64525 5.61034 4.80195 5.21999C5.35396 3.84484 6.32453 2.5 7.9091 2.5H16.0909C17.6755 2.5 18.6461 3.84484 19.1981 5.21999C19.3548 5.61034 19.4861 6.02173 19.594 6.4375H22C22.8284 6.4375 23.5 7.10907 23.5 7.9375V8C23.5 8.77049 23.0188 9.40198 22.4625 9.8155C22.0514 10.1211 21.5512 10.3462 21.0483 10.4448C21.3554 10.9132 21.5476 11.4516 21.6041 12.0158L21.9596 15.5711C22.5716 15.7675 23 16.3507 23 17.0625C23 17.503 22.8361 17.881 22.5344 18.1422C22.2427 18.3949 21.8671 18.5 21.5 18.5H20.5V20C20.5 20.8284 19.8284 21.5 19 21.5H18C17.1716 21.5 16.5 20.8284 16.5 20V18.5H7V20C7 20.8284 6.32843 21.5 5.5 21.5H4.5C3.67157 21.5 3 20.8284 3 20V18.5H2.5C2.13289 18.5 1.75734 18.3949 1.46558 18.1422C1.1639 17.881 1.00001 17.503 1.00001 17.0625C1.00001 16.3507 1.4284 15.7675 2.0404 15.5711L2.39592 12.0158C2.45235 11.4516 2.64458 10.9132 2.95172 10.4448ZM3.05249 15.5H20.9475L20.609 12.1153C20.5516 11.5411 20.2973 11.0044 19.8892 10.5963L19.2929 10H4.70711L4.11079 10.5963C3.70271 11.0044 3.44839 11.5411 3.39096 12.1153L3.05249 15.5ZM5.01426 9H11.3479L7.6348 5.029C7.44619 4.8273 7.45681 4.51089 7.65851 4.32229C7.86021 4.13368 8.17662 4.1443 8.36522 4.346L12.717 9H14.8269L12.6393 6.72127C12.4481 6.52206 12.4545 6.20554 12.6537 6.01431C12.8529 5.82307 13.1695 5.82953 13.3607 6.02873L16.2131 9H18.9857C18.9298 7.97541 18.7064 6.67953 18.27 5.59251C17.7432 4.28016 17.0093 3.5 16.0909 3.5H7.9091C6.99076 3.5 6.25678 4.28016 5.72997 5.59251C5.29361 6.67954 5.07024 7.97541 5.01426 9ZM19.9976 9.29051L20.2654 9.55832C20.3354 9.5211 20.4152 9.5 20.5 9.5C20.931 9.5 21.4534 9.31954 21.8659 9.01292C22.2835 8.70259 22.5 8.33408 22.5 8V7.9375C22.5 7.66136 22.2761 7.4375 22 7.4375H19.8098C19.9257 8.10159 19.9854 8.74245 19.9976 9.29051ZM4 18.5V20C4 20.2761 4.22386 20.5 4.5 20.5H5.5C5.77614 20.5 6 20.2761 6 20V18.5H4ZM17.5 18.5V20C17.5 20.2761 17.7239 20.5 18 20.5H19C19.2761 20.5 19.5 20.2761 19.5 20V18.5H17.5ZM6.00001 12.5C5.72387 12.5 5.50001 12.7239 5.50001 13C5.50001 13.2761 5.72387 13.5 6.00001 13.5C6.27615 13.5 6.50001 13.2761 6.50001 13C6.50001 12.7239 6.27615 12.5 6.00001 12.5ZM4.50001 13C4.50001 12.1716 5.17158 11.5 6.00001 11.5C6.82844 11.5 7.50001 12.1716 7.50001 13C7.50001 13.8284 6.82844 14.5 6.00001 14.5C5.17158 14.5 4.50001 13.8284 4.50001 13ZM18 12.5C17.7239 12.5 17.5 12.7239 17.5 13C17.5 13.2761 17.7239 13.5 18 13.5C18.2761 13.5 18.5 13.2761 18.5 13C18.5 12.7239 18.2761 12.5 18 12.5ZM16.5 13C16.5 12.1716 17.1716 11.5 18 11.5C18.8284 11.5 19.5 12.1716 19.5 13C19.5 13.8284 18.8284 14.5 18 14.5C17.1716 14.5 16.5 13.8284 16.5 13ZM9 13C9 12.7239 9.22386 12.5 9.5 12.5H14.5C14.7761 12.5 15 12.7239 15 13C15 13.2761 14.7761 13.5 14.5 13.5H9.5C9.22386 13.5 9 13.2761 9 13ZM2.5 16.5C2.24157 16.5 2.00001 16.6993 2.00001 17.0625C2.00001 17.2434 2.05997 17.3341 2.12021 17.3863C2.19038 17.447 2.31483 17.5 2.5 17.5H21.5C21.6852 17.5 21.8096 17.447 21.8798 17.3863C21.94 17.3341 22 17.2434 22 17.0625C22 16.6993 21.7584 16.5 21.5 16.5H2.5Z" fill="black" fill-opacity="0.7"/>
</svg>
