<svg width="24" height="24" viewBox="0 0 24 24" fill="none" xmlns="http://www.w3.org/2000/svg"><path fill-rule="evenodd" clip-rule="evenodd" d="M12.142 2.642a9.5 9.5 0 100 19 9.5 9.5 0 000-19zm-10.5 9.5c0-5.799 4.701-10.5 10.5-10.5 5.8 0 10.5 4.701 10.5 10.5 0 5.8-4.7 10.5-10.5 10.5-5.799 0-10.5-4.7-10.5-10.5z" fill="#000" fill-opacity=".7"/><path fill-rule="evenodd" clip-rule="evenodd" d="M17.838 7.631a.5.5 0 01.03.707l-7.333 8a.5.5 0 01-.722.016l-3.666-3.667a.5.5 0 11.707-.707l3.297 3.297 6.98-7.615a.5.5 0 01.707-.03z" fill="#000" fill-opacity=".7"/></svg>