<svg width="24" height="24" viewBox="0 0 24 24" fill="none" xmlns="http://www.w3.org/2000/svg">
<path fill-rule="evenodd" clip-rule="evenodd" d="M3.97853 8.33985C3.9416 8.39523 3.9066 8.44868 3.87352 8.5H7C7.27614 8.5 7.5 8.72386 7.5 9C7.5 9.27614 7.27614 9.5 7 9.5H3C2.72386 9.5 2.5 9.27614 2.5 9V5C2.5 4.72386 2.72386 4.5 3 4.5C3.27614 4.5 3.5 4.72386 3.5 5V7.27941C3.86083 6.78641 4.32611 6.21678 4.89645 5.64645C6.45095 4.09195 8.82062 2.5 12 2.5C17.2377 2.5 21.5 6.68693 21.5 11C21.5 11.2761 21.2761 11.5 21 11.5C20.7239 11.5 20.5 11.2761 20.5 11C20.5 7.31307 16.7623 3.5 12 3.5C9.17938 3.5 7.04906 4.90805 5.60355 6.35355C4.88216 7.07495 4.33997 7.79768 3.97853 8.33985ZM3 12.5C3.27614 12.5 3.5 12.7239 3.5 13C3.5 16.6869 7.23771 20.5 12 20.5C14.8206 20.5 16.9509 19.0919 18.3964 17.6464C19.1178 16.9251 19.66 16.2023 20.0215 15.6601C20.0584 15.6048 20.0934 15.5513 20.1265 15.5H17C16.7239 15.5 16.5 15.2761 16.5 15C16.5 14.7239 16.7239 14.5 17 14.5H21C21.2761 14.5 21.5 14.7239 21.5 15V19C21.5 19.2761 21.2761 19.5 21 19.5C20.7239 19.5 20.5 19.2761 20.5 19V16.7206C20.1392 17.2136 19.6739 17.7832 19.1036 18.3536C17.5491 19.9081 15.1794 21.5 12 21.5C6.76229 21.5 2.5 17.3131 2.5 13C2.5 12.7239 2.72386 12.5 3 12.5Z" fill="black" fill-opacity="0.7"/>
</svg>
