<svg width="24" height="24" viewBox="0 0 24 24" fill="none" xmlns="http://www.w3.org/2000/svg">
  <path fill-rule="evenodd" clip-rule="evenodd" d="M11.3844 2.686c-.1559.11311-.1701.20499-.1701.214 0 .27614-.2239.5-.5.5H7.5v1.25h9V3.4h-3.2143c-.2761 0-.5-.22386-.5-.5 0-.00901-.0142-.10089-.1701-.214-.145-.10518-.3631-.186-.6156-.186-.2525 0-.4706.08082-.6156.186zm-.5871-.8095C11.1176 1.64418 11.5424 1.5 12 1.5c.4576 0 .8824.14418 1.2027.3765.1817.1318.3511.30973.46.5235H17c.2761 0 .5.22386.5.5v.6H20c.2761 0 .5.22386.5.5v18c0 .2761-.2239.5-.5.5H4c-.27614 0-.5-.2239-.5-.5V4c0-.27614.22386-.5.5-.5h2.5v-.6c0-.27614.22386-.5.5-.5h3.3373c.1089-.21377.2783-.3917.46-.5235zM6.5 4.5h-2v17h15v-17h-2v.65c0 .27614-.2239.5-.5.5H7c-.27614 0-.5-.22386-.5-.5V4.5zm4.5 5c-1.38071 0-2.5 1.1193-2.5 2.5s1.11929 2.5 2.5 2.5c1.3807 0 2.5-1.1193 2.5-2.5S12.3807 9.5 11 9.5zM7.5 12c0-1.933 1.567-3.5 3.5-3.5s3.5 1.567 3.5 3.5c0 .788-.2604 1.5151-.6998 2.1001.0186.014.0364.0294.0534.0463l2.5 2.5c.1952.1953.1952.5119 0 .7072-.1953.1952-.5119.1952-.7072 0l-2.5-2.5c-.0169-.017-.0323-.0348-.0463-.0534-.585.4394-1.3121.6998-2.1001.6998-1.933 0-3.5-1.567-3.5-3.5z" fill="#000" fill-opacity=".7"/>
</svg>
