<svg width="24" height="24" viewBox="0 0 24 24" fill="none" xmlns="http://www.w3.org/2000/svg">
<path fill-rule="evenodd" clip-rule="evenodd" d="M12.1422 2.64215C6.89545 2.64215 2.64215 6.89545 2.64215 12.1422C2.64215 17.3889 6.89545 21.6422 12.1422 21.6422C17.3889 21.6422 21.6422 17.3889 21.6422 12.1422C21.6422 6.89545 17.3889 2.64215 12.1422 2.64215ZM1.64215 12.1422C1.64215 6.34316 6.34316 1.64215 12.1422 1.64215C17.9411 1.64215 22.6422 6.34316 22.6422 12.1422C22.6422 17.9411 17.9411 22.6422 12.1422 22.6422C6.34316 22.6422 1.64215 17.9411 1.64215 12.1422Z" fill="black" fill-opacity="0.7"/>
<path fill-rule="evenodd" clip-rule="evenodd" d="M7.40381 7.40381C7.59907 7.20854 7.91565 7.20854 8.11091 7.40381L12 11.2929L15.8891 7.40381C16.0843 7.20855 16.4009 7.20854 16.5962 7.40381C16.7915 7.59907 16.7915 7.91565 16.5962 8.11091L12.7071 12L16.5962 15.8891C16.7915 16.0843 16.7915 16.4009 16.5962 16.5962C16.4009 16.7915 16.0843 16.7915 15.8891 16.5962L12 12.7071L8.11091 16.5962C7.91565 16.7915 7.59907 16.7915 7.40381 16.5962C7.20854 16.4009 7.20854 16.0844 7.40381 15.8891L11.2929 12L7.40381 8.11091C7.20854 7.91565 7.20854 7.59907 7.40381 7.40381Z" fill="black" fill-opacity="0.7"/>
</svg>
