<svg width="24" height="24" viewBox="0 0 24 24" fill="none" xmlns="http://www.w3.org/2000/svg">
<path fill-rule="evenodd" clip-rule="evenodd" d="M3.5 4C3.5 3.72386 3.72386 3.5 4 3.5H12C12.2761 3.5 12.5 3.72386 12.5 4C12.5 4.27614 12.2761 4.5 12 4.5H4.5V19.5H19.5V12C19.5 11.7239 19.7239 11.5 20 11.5C20.2761 11.5 20.5 11.7239 20.5 12V20C20.5 20.2761 20.2761 20.5 20 20.5H4C3.72386 20.5 3.5 20.2761 3.5 20V4Z" fill="black" fill-opacity="0.7"/>
<path fill-rule="evenodd" clip-rule="evenodd" d="M16.5 12C16.5 12.2761 16.2761 12.5 16 12.5H12C11.7239 12.5 11.5 12.2761 11.5 12V8C11.5 7.72386 11.7239 7.5 12 7.5C12.2761 7.5 12.5 7.72386 12.5 8V10.7929L19.6464 3.64645C19.8417 3.45118 20.1583 3.45118 20.3536 3.64645C20.5488 3.84171 20.5488 4.15829 20.3536 4.35355L13.2071 11.5L16 11.5C16.2761 11.5 16.5 11.7239 16.5 12Z" fill="black" fill-opacity="0.7"/>
</svg>
