<svg width="16" height="16" viewBox="0 0 16 16" fill="none" xmlns="http://www.w3.org/2000/svg">
<path fill-rule="evenodd" clip-rule="evenodd" d="M3.5 3.30761C3.69526 3.11235 4.01184 3.11235 4.20711 3.30761L8.09619 7.1967L11.9853 3.30761C12.1805 3.11235 12.4971 3.11235 12.6924 3.30761C12.8877 3.50287 12.8877 3.81946 12.6924 4.01472L8.8033 7.90381L12.6924 11.7929C12.8877 11.9882 12.8877 12.3047 12.6924 12.5C12.4971 12.6953 12.1805 12.6953 11.9853 12.5L8.09619 8.61091L4.20711 12.5C4.01184 12.6953 3.69526 12.6953 3.5 12.5C3.30474 12.3047 3.30474 11.9882 3.5 11.7929L7.38909 7.90381L3.5 4.01472C3.30474 3.81946 3.30474 3.50287 3.5 3.30761Z" fill="black" fill-opacity="0.7"/>
</svg>
