<svg width="24" height="24" viewBox="0 0 24 24" fill="none" xmlns="http://www.w3.org/2000/svg">
<path fill-rule="evenodd" clip-rule="evenodd" d="M2.5 3C2.5 2.17157 3.17157 1.5 4 1.5H20C20.8284 1.5 21.5 2.17157 21.5 3V21C21.5 21.8284 20.8284 22.5 20 22.5H4C3.17157 22.5 2.5 21.8284 2.5 21V3ZM3.5 6V16.5H11.5V6H8V6.58535C8.5826 6.79127 9 7.34689 9 8V15C9 15.2761 8.77614 15.5 8.5 15.5H6.5C6.22386 15.5 6 15.2761 6 15V8C6 7.34689 6.4174 6.79127 7 6.58535V6H3.5ZM3.5 5V3C3.5 2.72386 3.72386 2.5 4 2.5H11.5V5H3.5ZM12.5 2.5V16.5H20.5V3C20.5 2.72386 20.2761 2.5 20 2.5H12.5ZM20.5 17.5H12.5V21.5H20C20.2761 21.5 20.5 21.2761 20.5 21V17.5ZM11.5 21.5V17.5H3.5V21C3.5 21.2761 3.72386 21.5 4 21.5H11.5ZM7.5 7.5C7.22386 7.5 7 7.72386 7 8V14.5H8V8C8 7.72386 7.77614 7.5 7.5 7.5ZM14.5 8.5C14.7761 8.5 15 8.72386 15 9V10C15 10.2761 14.7761 10.5 14.5 10.5C14.2239 10.5 14 10.2761 14 10V9C14 8.72386 14.2239 8.5 14.5 8.5ZM6.5 19.5C6.5 19.2239 6.72386 19 7 19H8C8.27614 19 8.5 19.2239 8.5 19.5C8.5 19.7761 8.27614 20 8 20H7C6.72386 20 6.5 19.7761 6.5 19.5ZM15.5 19.5C15.5 19.2239 15.7239 19 16 19H17C17.2761 19 17.5 19.2239 17.5 19.5C17.5 19.7761 17.2761 20 17 20H16C15.7239 20 15.5 19.7761 15.5 19.5Z" fill="black" fill-opacity="0.7"/>
</svg>
