<svg width="24" height="24" viewBox="0 0 24 24" fill="none" xmlns="http://www.w3.org/2000/svg">
<path fill-rule="evenodd" clip-rule="evenodd" d="M12 2.5C6.75329 2.5 2.5 6.75329 2.5 12V21.5H11.4691V19.5H10C6.70819 19.5 4.5 17.0216 4.5 14V13.5C4.5 13.2239 4.72386 13 5 13C6.22867 13 8.07108 13.2584 9.62561 14.1259C10.3259 14.5166 10.9693 15.0334 11.4691 15.7017V12.8756H11C9.067 12.8756 7.5 11.3086 7.5 9.37562V6.37562C7.5 6.09947 7.72386 5.87562 8 5.87562H8.96905C9.47292 5.87562 9.95281 5.98238 10.3865 6.17467L10.9803 5.63118C11.5579 5.1025 12.4449 5.10702 13.0171 5.64155L13.5861 6.17312C14.0188 5.9818 14.4975 5.87562 15 5.87562H16C16.2761 5.87562 16.5 6.09947 16.5 6.37562V9.37562C16.5 11.3086 14.933 12.8756 13 12.8756H12.4691V15.7863C12.977 15.0768 13.6449 14.533 14.3744 14.1259C15.9289 13.2584 17.7713 13 19 13C19.2761 13 19.5 13.2239 19.5 13.5V14C19.5 17.0216 17.2918 19.5 14 19.5H12.4691V21.5H21.5V12C21.5 6.75329 17.2467 2.5 12 2.5ZM12.5218 18.5H14C16.7028 18.5 18.4929 16.5091 18.5 14.0149C17.4193 14.0776 16.0294 14.3475 14.8617 14.9991C13.6446 15.6783 12.677 16.7612 12.5218 18.5ZM11.4691 18.4068C11.2881 16.7224 10.3335 15.6661 9.13832 14.9991C7.97056 14.3475 6.58073 14.0776 5.50002 14.0149C5.50713 16.5091 7.29719 18.5 10 18.5H11.4691V18.4068ZM12.5 11.8756H13C14.3807 11.8756 15.5 10.7563 15.5 9.37562V6.87562H15C14.5438 6.87562 14.1176 6.99735 13.7504 7.20977C13.436 7.39161 13.1166 7.80632 12.872 8.36667C12.6322 8.91568 12.5 9.52377 12.5 10V11.8756ZM11.9845 7.90126C12.173 7.48488 12.4241 7.07374 12.7385 6.74981L12.3344 6.37228C12.1437 6.1941 11.848 6.19259 11.6555 6.36882L11.2346 6.75404C11.5471 7.07731 11.7969 7.48669 11.9845 7.90126ZM11.4691 11.8756V10C11.4691 9.52377 11.3368 8.91568 11.0971 8.36667C10.8524 7.80632 10.533 7.39161 10.2187 7.20977C9.85148 6.99735 9.42524 6.87562 8.96905 6.87562H8.5V9.37562C8.5 10.7563 9.61929 11.8756 11 11.8756H11.4691ZM1.5 12C1.5 6.20101 6.20101 1.5 12 1.5C17.799 1.5 22.5 6.20101 22.5 12V22C22.5 22.2761 22.2761 22.5 22 22.5H2C1.72386 22.5 1.5 22.2761 1.5 22V12Z" fill="black" fill-opacity="0.7"/>
</svg>
