<svg width="24" height="24" viewBox="0 0 24 24" fill="none" xmlns="http://www.w3.org/2000/svg">
  <path fill-rule="evenodd" clip-rule="evenodd" d="M10.375 2.81c-.0003.00107 0 .00082 0 0 0 .27614-.2239.5-.5.5h-2.75v1.025h7.75V3.31h-2.75c-.2761 0-.5-.22386-.5-.5 0 .00082.0003.00107 0 0-.002-.00843-.0172-.07312-.1285-.15611C11.3807 2.5675 11.2047 2.5 11 2.5s-.3807.0675-.4965.15389c-.1113.08299-.1265.14768-.1285.15611zm5.5 1.49v.535c0 .27614-.2239.5-.5.5h-8.75c-.27614 0-.5-.22386-.5-.5V4.3H4.5v15.2h4V8c0-.27614.22386-.5.5-.5h8.5V4.3h-1.625zM18.5 7.5V3.8c0-.27614-.2239-.5-.5-.5h-2.125v-.49c0-.27614-.2239-.5-.5-.5h-2.8786c-.0992-.18563-.2455-.34092-.4019-.45764C11.8031 1.635 11.4166 1.5 11 1.5c-.4166 0-.8031.135-1.09447.35236-.15646.11672-.30276.27201-.40194.45764H6.625c-.27614 0-.5.22386-.5.5v.49H4c-.27614 0-.5.22386-.5.5V20c0 .2761.22386.5.5.5h4.5V22c0 .2761.22386.5.5.5h11c.2761 0 .5-.2239.5-.5V8c0-.27614-.2239-.5-.5-.5h-1.5zm-9 1v13h10v-13h-10zm2 2.5c0-.2761.2239-.5.5-.5h5c.2761 0 .5.2239.5.5s-.2239.5-.5.5h-5c-.2761 0-.5-.2239-.5-.5zm0 2.5c0-.2761.2239-.5.5-.5h5c.2761 0 .5.2239.5.5s-.2239.5-.5.5h-5c-.2761 0-.5-.2239-.5-.5zm0 2.5c0-.2761.2239-.5.5-.5h3.5c.2761 0 .5.2239.5.5s-.2239.5-.5.5H12c-.2761 0-.5-.2239-.5-.5z" fill="#000" fill-opacity=".7"/>
</svg>
