<svg width="24" height="24" viewBox="0 0 24 24" fill="none" xmlns="http://www.w3.org/2000/svg">
<path fill-rule="evenodd" clip-rule="evenodd" d="M3.1326 0.660862C3.3199 0.457952 3.63623 0.445299 3.83914 0.632601L10.3391 6.6326C10.3724 6.66326 10.4005 6.69738 10.4235 6.7339C10.8824 6.58355 11.4121 6.5 12 6.5C12.5879 6.5 13.1176 6.58355 13.5765 6.7339C13.5995 6.69738 13.6276 6.66326 13.6609 6.6326L20.1609 0.632601C20.3638 0.445299 20.6801 0.457952 20.8674 0.660862C21.0547 0.863773 21.0421 1.1801 20.8391 1.3674L14.5184 7.20195C14.9951 7.54466 15.3136 7.99268 15.4395 8.5H20C21.3807 8.5 22.5 9.61929 22.5 11V21C22.5 22.3807 21.3807 23.5 20 23.5H4C2.61929 23.5 1.5 22.3807 1.5 21V11C1.5 9.61929 2.61929 8.5 4 8.5H8.56054C8.68642 7.99268 9.00495 7.54466 9.48161 7.20195L3.16086 1.3674C2.95795 1.1801 2.9453 0.863773 3.1326 0.660862ZM4 9.5C3.17157 9.5 2.5 10.1716 2.5 11V21C2.5 21.8284 3.17157 22.5 4 22.5H20C20.8284 22.5 21.5 21.8284 21.5 21V11C21.5 10.1716 20.8284 9.5 20 9.5H4ZM14.3652 8.5H9.63477C9.90542 7.99795 10.6115 7.5 12 7.5C13.3885 7.5 14.0946 7.99795 14.3652 8.5ZM3.5 13C3.5 11.6193 4.61929 10.5 6 10.5H14C15.3807 10.5 16.5 11.6193 16.5 13V19C16.5 20.3807 15.3807 21.5 14 21.5H6C4.61929 21.5 3.5 20.3807 3.5 19V13ZM6 11.5C5.17157 11.5 4.5 12.1716 4.5 13V19C4.5 19.8284 5.17157 20.5 6 20.5H14C14.8284 20.5 15.5 19.8284 15.5 19V13C15.5 12.1716 14.8284 11.5 14 11.5H6ZM19 11.5C18.7239 11.5 18.5 11.7239 18.5 12C18.5 12.2761 18.7239 12.5 19 12.5C19.2761 12.5 19.5 12.2761 19.5 12C19.5 11.7239 19.2761 11.5 19 11.5ZM17.5 12C17.5 11.1716 18.1716 10.5 19 10.5C19.8284 10.5 20.5 11.1716 20.5 12C20.5 12.8284 19.8284 13.5 19 13.5C18.1716 13.5 17.5 12.8284 17.5 12ZM19 15C18.7239 15 18.5 15.2239 18.5 15.5C18.5 15.7761 18.7239 16 19 16C19.2761 16 19.5 15.7761 19.5 15.5C19.5 15.2239 19.2761 15 19 15ZM17.5 15.5C17.5 14.6716 18.1716 14 19 14C19.8284 14 20.5 14.6716 20.5 15.5C20.5 16.3284 19.8284 17 19 17C18.1716 17 17.5 16.3284 17.5 15.5Z" fill="black" fill-opacity="0.7"/>
</svg>
