<svg width="24" height="24" viewBox="0 0 24 24" fill="none" xmlns="http://www.w3.org/2000/svg">
<path fill-rule="evenodd" clip-rule="evenodd" d="M7.64645 4.64645C7.74021 4.55268 7.86739 4.5 8 4.5H23C23.2761 4.5 23.5 4.72386 23.5 5V19C23.5 19.2761 23.2761 19.5 23 19.5H8C7.86739 19.5 7.74021 19.4473 7.64645 19.3536L0.646447 12.3536C0.451184 12.1583 0.451184 11.8417 0.646447 11.6464L7.64645 4.64645ZM8.20711 5.5L1.70711 12L8.20711 18.5H22.5V5.5H8.20711ZM12.818 8.81802C13.0133 8.62276 13.3299 8.62276 13.5251 8.81802L16 11.2929L18.4749 8.81802C18.6701 8.62276 18.9867 8.62276 19.182 8.81802C19.3772 9.01329 19.3772 9.32987 19.182 9.52513L16.7071 12L19.182 14.4749C19.3772 14.6701 19.3772 14.9867 19.182 15.182C18.9867 15.3772 18.6701 15.3772 18.4749 15.182L16 12.7071L13.5251 15.182C13.3299 15.3772 13.0133 15.3772 12.818 15.182C12.6228 14.9867 12.6228 14.6701 12.818 14.4749L15.2929 12L12.818 9.52513C12.6228 9.32987 12.6228 9.01328 12.818 8.81802Z" fill="black" fill-opacity="0.7"/>
</svg>
