<svg width="16" height="16" viewBox="0 0 16 16" fill="none" xmlns="http://www.w3.org/2000/svg">
  <path fill-rule="evenodd" clip-rule="evenodd" d="M4 1.5c-.27614 0-.5.22386-.5.5s.22386.5.5.5.5-.22386.5-.5-.22386-.5-.5-.5zM2.5 2c0-.82843.67157-1.5 1.5-1.5s1.5.67157 1.5 1.5S4.82843 3.5 4 3.5 2.5 2.82843 2.5 2zM8 1.5c-.27614 0-.5.22386-.5.5s.22386.5.5.5.5-.22386.5-.5-.22386-.5-.5-.5zM6.5 2c0-.82843.67157-1.5 1.5-1.5s1.5.67157 1.5 1.5S8.82843 3.5 8 3.5 6.5 2.82843 6.5 2zm5.5-.5c-.2761 0-.5.22386-.5.5s.2239.5.5.5.5-.22386.5-.5-.2239-.5-.5-.5zm-1.5.5c0-.82843.6716-1.5 1.5-1.5s1.5.67157 1.5 1.5-.6716 1.5-1.5 1.5-1.5-.67157-1.5-1.5zM4 5.5c-.27614 0-.5.22386-.5.5s.22386.5.5.5.5-.22386.5-.5-.22386-.5-.5-.5zM2.5 6c0-.82843.67157-1.5 1.5-1.5s1.5.67157 1.5 1.5S4.82843 7.5 4 7.5 2.5 6.82843 2.5 6zM8 5.5c-.27614 0-.5.22386-.5.5s.22386.5.5.5.5-.22386.5-.5-.22386-.5-.5-.5zM6.5 6c0-.82843.67157-1.5 1.5-1.5s1.5.67157 1.5 1.5S8.82843 7.5 8 7.5 6.5 6.82843 6.5 6zm5.5-.5c-.2761 0-.5.22386-.5.5s.2239.5.5.5.5-.22386.5-.5-.2239-.5-.5-.5zm-1.5.5c0-.82843.6716-1.5 1.5-1.5s1.5.67157 1.5 1.5-.6716 1.5-1.5 1.5-1.5-.67157-1.5-1.5zM4 9.5c-.27614 0-.5.22386-.5.5 0 .2761.22386.5.5.5s.5-.2239.5-.5c0-.27614-.22386-.5-.5-.5zm-1.5.5c0-.82843.67157-1.5 1.5-1.5s1.5.67157 1.5 1.5c0 .8284-.67157 1.5-1.5 1.5s-1.5-.6716-1.5-1.5zM8 9.5c-.27614 0-.5.22386-.5.5 0 .2761.22386.5.5.5s.5-.2239.5-.5c0-.27614-.22386-.5-.5-.5zm-1.5.5c0-.82843.67157-1.5 1.5-1.5s1.5.67157 1.5 1.5c0 .8284-.67157 1.5-1.5 1.5s-1.5-.6716-1.5-1.5zm5.5-.5c-.2761 0-.5.22386-.5.5 0 .2761.2239.5.5.5s.5-.2239.5-.5c0-.27614-.2239-.5-.5-.5zm-1.5.5c0-.82843.6716-1.5 1.5-1.5s1.5.67157 1.5 1.5c0 .8284-.6716 1.5-1.5 1.5s-1.5-.6716-1.5-1.5zM8 13.5c-.27614 0-.5.2239-.5.5s.22386.5.5.5.5-.2239.5-.5-.22386-.5-.5-.5zm-1.5.5c0-.8284.67157-1.5 1.5-1.5s1.5.6716 1.5 1.5-.67157 1.5-1.5 1.5-1.5-.6716-1.5-1.5z" fill="#000" fill-opacity=".7"/>
</svg>
