<svg width="24" height="24" viewBox="0 0 24 24" fill="none" xmlns="http://www.w3.org/2000/svg">
<path fill-rule="evenodd" clip-rule="evenodd" d="M20.2143 1.50146C20.0707 1.49047 19.9293 1.54191 19.8264 1.64262L12.0659 9.23603C12.0587 9.17908 12.0498 9.1126 12.0389 9.04L11.7371 7.02468C11.6625 6.52681 11.4367 6.07078 11.0834 5.71946L6.98637 1.64545C6.79056 1.45074 6.47398 1.45163 6.27927 1.64745C6.08456 1.84326 6.08545 2.15984 6.28127 2.35455L10.3783 6.42856C10.5739 6.62304 10.7043 6.88013 10.7481 7.1728L11.0499 9.18812C11.0657 9.29308 11.0745 9.36632 11.0825 9.43283C11.0865 9.46575 11.0903 9.49702 11.0946 9.52967C11.1051 9.60982 11.1222 9.73459 11.1831 9.8595C11.2474 9.99152 11.3387 10.081 11.4062 10.143C11.4347 10.1692 11.4797 10.2085 11.5297 10.2521C11.5719 10.289 11.6176 10.3289 11.6597 10.3665L21.3521 19.721C21.3567 19.7254 21.3613 19.7297 21.366 19.7339C21.5299 19.8805 21.5797 20.2232 21.3035 20.4978L20.6065 21.1909C20.3292 21.4666 19.9795 21.418 19.8303 21.2531C19.8255 21.2477 19.8205 21.2425 19.8154 21.2373L10.3638 11.6568C10.2787 11.5623 10.2252 11.4939 10.18 11.4361L10.1745 11.4291C10.1719 11.4257 10.169 11.4221 10.166 11.4182C10.1267 11.3675 10.0547 11.2749 9.95638 11.203C9.83234 11.1122 9.70435 11.0769 9.60058 11.0554C9.5226 11.0393 9.42098 11.0245 9.30495 11.0075C9.27981 11.0038 9.25398 11 9.22758 10.9961L7.20085 10.696C6.90469 10.6521 6.64528 10.5218 6.44963 10.3272L2.35256 6.25319C2.15675 6.05848 1.84017 6.05937 1.64546 6.25518C1.45075 6.45099 1.45164 6.76758 1.64746 6.96229L5.74452 11.0363C6.09776 11.3875 6.55549 11.6113 7.05435 11.6852L9.08108 11.9853C9.11558 11.9904 9.14656 11.995 9.17451 11.9991C9.21593 12.0052 9.2507 12.0103 9.28044 12.0148L2.24134 19.0986C1.58803 19.7015 1.67819 20.7103 2.2761 21.3116L2.96918 22.0086C3.57021 22.613 4.58312 22.7031 5.18365 22.037L11.997 14.7361L19.0967 21.9327C19.6994 22.5882 20.7097 22.4985 21.3116 21.9L22.0086 21.2069C22.612 20.6069 22.7028 19.5965 22.0404 18.9955L14.9154 12.1188C14.9567 12.1102 15.0052 12.1017 15.0615 12.0938C15.2159 12.0721 15.3951 12.0591 15.5833 12.0501C15.7044 12.0443 15.819 12.0405 15.9312 12.0368C15.9972 12.0347 16.0624 12.0325 16.1275 12.03C16.285 12.024 16.4591 12.0154 16.5887 11.9921C17.329 11.8586 18.12 11.3712 18.8282 10.7184C19.5465 10.0563 20.2255 9.18233 20.733 8.20199C21.7412 6.25447 22.1238 3.76357 20.5761 1.7C20.4897 1.58481 20.3578 1.51245 20.2143 1.50146ZM14.1336 11.3643L12.7175 9.99754L20.0904 2.7834C20.9485 4.32447 20.6723 6.14413 19.8449 7.74226C19.3905 8.62004 18.7825 9.40053 18.1505 9.98309C17.5084 10.5749 16.8859 10.9224 16.4113 11.0079C16.3628 11.0167 16.2604 11.0242 16.089 11.0308C16.0353 11.0328 15.9752 11.0348 15.9114 11.0369C15.7932 11.0408 15.6623 11.0452 15.5355 11.0512C15.3363 11.0607 15.1217 11.0755 14.9223 11.1036C14.7312 11.1304 14.5151 11.1743 14.3328 11.2593C14.3247 11.2631 14.3168 11.267 14.3089 11.2712C14.2458 11.3048 14.1872 11.3359 14.1336 11.3643ZM11.2941 14.0236L4.44209 21.3659C4.29549 21.5298 3.9529 21.5797 3.67828 21.3035L2.9852 20.6065C2.70946 20.3292 2.75809 19.9795 2.92303 19.8303C2.9296 19.8243 2.93602 19.8182 2.94228 19.8119L9.99873 12.7106L11.2941 14.0236ZM4.73467 3.18336C4.53996 3.37917 4.54085 3.69575 4.73666 3.89046L8.90709 8.03742C9.1029 8.23213 9.41948 8.23124 9.61419 8.03543C9.80891 7.83962 9.80801 7.52304 9.6122 7.32833L5.44177 3.18136C5.24596 2.98665 4.92938 2.98755 4.73467 3.18336ZM3.19006 4.71927C2.99535 4.91508 2.99625 5.23166 3.19206 5.42637L7.36249 9.57334C7.5583 9.76805 7.87488 9.76715 8.06959 9.57134C8.2643 9.37553 8.26341 9.05895 8.0676 8.86424L3.89717 4.71727C3.70135 4.52256 3.38477 4.52346 3.19006 4.71927Z" fill="black" fill-opacity="0.7"/>
</svg>
