<svg width="24" height="24" viewBox="0 0 24 24" fill="none" xmlns="http://www.w3.org/2000/svg">
<path fill-rule="evenodd" clip-rule="evenodd" d="M5.6116 1.56695C5.72783 1.63404 5.81221 1.74503 5.84577 1.87497L7.13047 6.84918L14.1261 4.70379C14.2588 4.66311 14.4024 4.67938 14.5226 4.74871C14.6428 4.81804 14.7287 4.93419 14.7599 5.06939L15.9966 10.4284L18.2085 9.70649C18.3376 9.66435 18.4784 9.67656 18.5983 9.7403C18.7182 9.80405 18.8071 9.91385 18.8444 10.0445L20.6626 16.4081C20.6665 16.4217 20.6697 16.4353 20.6724 16.4489L21.8661 16.117C22.1321 16.0431 22.4078 16.1988 22.4817 16.4648C22.5557 16.7309 22.4 17.0065 22.1339 17.0805L12.4775 19.7649C12.5551 20.9518 11.8194 22.0838 10.6427 22.4109C9.29755 22.7849 7.93937 21.9518 7.58904 20.5953C7.2826 19.4088 7.83817 18.175 8.88485 17.6409L7.83809 13.5879C7.83736 13.5852 7.83667 13.5825 7.83599 13.5798L6.29368 7.60815C6.29316 7.60618 6.29265 7.60421 6.29215 7.60223L5.0049 2.61814L2.13392 3.41624C1.86787 3.4902 1.59223 3.33447 1.51827 3.06842C1.44431 2.80237 1.60003 2.52673 1.86609 2.45277L5.22774 1.51827C5.35704 1.48232 5.49536 1.49987 5.6116 1.56695ZM7.38079 7.81838L8.67226 12.8188L15.0422 10.7399L13.9062 5.8172L7.38079 7.81838ZM15.6589 11.5905L8.92282 13.7889L9.84941 17.3766C10.8495 17.3148 11.785 17.8847 12.224 18.7974L19.7118 16.7159C19.7078 16.7051 19.7043 16.694 19.7011 16.6828L18.0254 10.8181L15.913 11.5076C15.8643 11.5399 15.8091 11.5642 15.7488 11.5781C15.7187 11.585 15.6887 11.5891 15.6589 11.5905ZM11.4309 19.5273C11.2127 18.6824 10.3899 18.2092 9.6133 18.4251C8.82895 18.6431 8.33748 19.4942 8.55727 20.3452C8.77548 21.1901 9.59826 21.6634 10.3749 21.4475C11.1592 21.2294 11.6507 20.3783 11.4309 19.5273Z" fill="black" fill-opacity="0.7"/>
</svg>
