<svg width="24" height="24" viewBox="0 0 24 24" fill="none" xmlns="http://www.w3.org/2000/svg">
<path fill-rule="evenodd" clip-rule="evenodd" d="M12 2.5C6.75329 2.5 2.5 6.75329 2.5 12C2.5 17.2467 6.75329 21.5 12 21.5C17.2467 21.5 21.5 17.2467 21.5 12C21.5 6.75329 17.2467 2.5 12 2.5ZM1.5 12C1.5 6.20101 6.20101 1.5 12 1.5C17.799 1.5 22.5 6.20101 22.5 12C22.5 17.799 17.799 22.5 12 22.5C6.20101 22.5 1.5 17.799 1.5 12ZM14.8737 6.14645C15.069 5.95118 15.3856 5.95118 15.5808 6.14645L17.8536 8.41917C18.0488 8.61444 18.0488 8.93102 17.8536 9.12628L11.4899 15.4899C11.4394 15.5404 11.3788 15.5795 11.3119 15.6045L7.67556 16.9682C7.49197 17.037 7.28509 16.9922 7.14645 16.8536C7.0078 16.7149 6.96299 16.508 7.03184 16.3244L8.39547 12.6881C8.42053 12.6212 8.45961 12.5606 8.51008 12.5101L14.8737 6.14645ZM9.29377 13.1406L8.3544 15.6456L10.8594 14.7062L16.7929 8.77273L15.2273 7.20711L9.29377 13.1406Z" fill="#6035B7"/>
</svg>
