<svg width="24" height="24" viewBox="0 0 24 24" fill="none" xmlns="http://www.w3.org/2000/svg">
<path fill-rule="evenodd" clip-rule="evenodd" d="M1.5 2C1.5 1.72386 1.72386 1.5 2 1.5H22C22.2761 1.5 22.5 1.72386 22.5 2V22C22.5 22.2761 22.2761 22.5 22 22.5H2C1.72386 22.5 1.5 22.2761 1.5 22V2ZM2.5 2.5V21.5H5V9.5C5 9.22386 5.22386 9 5.5 9H15.5C15.7761 9 16 9.22386 16 9.5V21.5H21.5V2.5H2.5ZM15 21.5V10H11V21.5H15ZM10 21.5V10H6V21.5H10ZM6 4.5C6 4.22386 6.22386 4 6.5 4H14.5C14.7761 4 15 4.22386 15 4.5V6.5C15 6.77614 14.7761 7 14.5 7H6.5C6.22386 7 6 6.77614 6 6.5V4.5ZM7 5V6H14V5H7ZM18.1464 12.6464C18.3417 12.4512 18.6583 12.4512 18.8536 12.6464L19.8536 13.6464C20.0488 13.8417 20.0488 14.1583 19.8536 14.3536C19.6583 14.5488 19.3417 14.5488 19.1464 14.3536L18.5 13.7071L17.8536 14.3536C17.6583 14.5488 17.3417 14.5488 17.1464 14.3536C16.9512 14.1583 16.9512 13.8417 17.1464 13.6464L18.1464 12.6464ZM17.1464 15.6464C17.3417 15.4512 17.6583 15.4512 17.8536 15.6464L18.5 16.2929L19.1464 15.6464C19.3417 15.4512 19.6583 15.4512 19.8536 15.6464C20.0488 15.8417 20.0488 16.1583 19.8536 16.3536L18.8536 17.3536C18.6583 17.5488 18.3417 17.5488 18.1464 17.3536L17.1464 16.3536C16.9512 16.1583 16.9512 15.8417 17.1464 15.6464Z" fill="black" fill-opacity="0.7"/>
</svg>
