<svg width="4" height="24" viewBox="0 0 4 24" fill="none" xmlns="http://www.w3.org/2000/svg">
<path d="M4 4C4 5.10457 3.10457 6 2 6C0.895431 6 0 5.10457 0 4C0 2.89543 0.895431 2 2 2C3.10457 2 4 2.89543 4 4Z" fill="#CECECE"/>
<path d="M4 12C4 13.1046 3.10457 14 2 14C0.895431 14 0 13.1046 0 12C0 10.8954 0.895431 10 2 10C3.10457 10 4 10.8954 4 12Z" fill="#CECECE"/>
<path d="M4 20C4 21.1046 3.10457 22 2 22C0.895431 22 0 21.1046 0 20C0 18.8954 0.895431 18 2 18C3.10457 18 4 18.8954 4 20Z" fill="#CECECE"/>
</svg>
