<svg width="24" height="24" viewBox="0 0 24 24" fill="none" xmlns="http://www.w3.org/2000/svg">
<path d="M1 5V4.5C0.723858 4.5 0.5 4.72386 0.5 5H1ZM1 19H0.5C0.5 19.2761 0.723858 19.5 1 19.5V19ZM23 19V19.5C23.2761 19.5 23.5 19.2761 23.5 19H23ZM23 5H23.5C23.5 4.72386 23.2761 4.5 23 4.5V5ZM0.5 5V19H1.5V5H0.5ZM1 19.5H23V18.5H1V19.5ZM23 4.5H1V5.5H23V4.5ZM23.5 19V5H22.5V19H23.5ZM0.646447 5.35355L7.64645 12.3536L8.35355 11.6464L1.35355 4.64645L0.646447 5.35355ZM7.64645 11.6464L0.646447 18.6464L1.35355 19.3536L8.35355 12.3536L7.64645 11.6464ZM15.6464 12.3536L22.6464 19.3536L23.3536 18.6464L16.3536 11.6464L15.6464 12.3536ZM7.64645 12.3536L10.2322 14.9393L10.9393 14.2322L8.35355 11.6464L7.64645 12.3536ZM13.7678 14.9393L16.3536 12.3536L15.6464 11.6464L13.0607 14.2322L13.7678 14.9393ZM10.2322 14.9393C11.2085 15.9156 12.7915 15.9157 13.7678 14.9393L13.0607 14.2322C12.4749 14.818 11.5251 14.818 10.9393 14.2322L10.2322 14.9393ZM22.6464 4.64645L15.6464 11.6464L16.3536 12.3536L23.3536 5.35355L22.6464 4.64645Z" fill="black" fill-opacity="0.7"/>
</svg>
