<svg width="16" height="16" viewBox="0 0 16 16" fill="none" xmlns="http://www.w3.org/2000/svg"><g clip-path="url(#clip0)"><path fill-rule="evenodd" clip-rule="evenodd" d="M2.115 4.552C3.324 3.402 5.155 2.5 8 2.5c2.673 0 4.498.848 5.745 1.963 1.236 1.105 1.868 2.44 2.222 3.357a.5.5 0 010 .36c-.354.918-.986 2.252-2.222 3.357C12.498 12.652 10.673 13.5 8 13.5c-2.845 0-4.676-.902-5.885-2.052C.984 10.371.435 9.105.094 8.32a62.057 62.057 0 00-.052-.12.5.5 0 010-.4l.052-.12c.34-.785.89-2.05 2.021-3.128zM1.045 8c.34.778.819 1.828 1.76 2.724C3.812 11.683 5.39 12.5 8 12.5c2.44 0 4.025-.766 5.079-1.709.992-.887 1.547-1.959 1.883-2.791-.336-.832-.891-1.904-1.883-2.791C12.025 4.266 10.44 3.5 8 3.5c-2.61 0-4.188.817-5.195 1.776-.941.896-1.42 1.946-1.76 2.724zM8 6c-1.272 0-2.227.936-2.227 2 0 1.065.955 2 2.227 2 1.272 0 2.227-.935 2.227-2 0-1.064-.955-2-2.227-2zM4.773 8c0-1.697 1.486-3 3.227-3 1.74 0 3.227 1.303 3.227 3S9.741 11 8 11c-1.74 0-3.227-1.303-3.227-3z" fill="#000" fill-opacity=".7"/></g><defs><clipPath id="clip0"><path fill="#fff" d="M0 0h16v16H0z"/></clipPath></defs></svg>