<svg width="16" height="16" viewBox="0 0 16 16" fill="none" xmlns="http://www.w3.org/2000/svg"><g clip-path="url(#clip0)"><path fill-rule="evenodd" clip-rule="evenodd" d="M2.177 2.662a.5.5 0 01.706-.03l.85.778C4.818 2.858 6.208 2.5 8 2.5c2.673 0 4.498.848 5.745 1.963 1.236 1.105 1.868 2.44 2.222 3.357a.5.5 0 010 .36c-.354.918-.986 2.252-2.222 3.357-.19.17-.394.334-.612.49l.66.604a.5.5 0 01-.676.738l-.873-.8c-1.1.566-2.49.931-4.244.931-2.845 0-4.676-.902-5.885-2.052C.984 10.371.435 9.105.094 8.32L.042 8.2a.5.5 0 010-.4 62 62 0 00.052-.12c.34-.785.89-2.05 2.021-3.128.221-.21.463-.412.727-.602l-.634-.581a.5.5 0 01-.031-.707zm1.422 1.982a5.766 5.766 0 00-.794.632c-.941.896-1.42 1.946-1.76 2.724.34.778.819 1.828 1.76 2.724C3.812 11.683 5.39 12.5 8 12.5c1.417 0 2.546-.258 3.45-.66l-1.547-1.417C9.364 10.788 8.703 11 8 11c-1.74 0-3.227-1.303-3.227-3 0-.655.221-1.25.593-1.736l-1.767-1.62zm2.51 2.301c-.214.31-.336.675-.336 1.055 0 1.065.955 2 2.227 2 .422 0 .809-.103 1.137-.28L6.11 6.946zm3.782 2.11L6.863 6.279A2.4 2.4 0 018 6c1.272 0 2.227.936 2.227 2 0 .38-.122.744-.336 1.055zm.743.681A2.834 2.834 0 0011.227 8c0-1.697-1.486-3-3.227-3-.703 0-1.364.212-1.903.577L4.53 4.14C5.42 3.752 6.55 3.5 8 3.5c2.44 0 4.025.766 5.079 1.709.992.887 1.547 1.959 1.883 2.791-.336.832-.891 1.904-1.883 2.791-.212.19-.445.372-.703.542l-1.742-1.597z" fill="#000" fill-opacity=".7"/></g><defs><clipPath id="clip0"><path fill="#fff" d="M0 0h16v16H0z"/></clipPath></defs></svg>