<svg width="24" height="24" viewBox="0 0 24 24" fill="none" xmlns="http://www.w3.org/2000/svg">
<path fill-rule="evenodd" clip-rule="evenodd" d="M1.51936 12C1.53397 12.0489 1.55345 12.1117 1.57829 12.1869C1.64627 12.3927 1.7541 12.6905 1.91121 13.0496C2.2259 13.7689 2.73543 14.7276 3.51306 15.6847C5.05863 17.5869 7.67356 19.5 12 19.5C16.3265 19.5 18.9414 17.5869 20.4869 15.6847C21.2646 14.7276 21.7741 13.7689 22.0888 13.0496C22.2459 12.6905 22.3537 12.3927 22.4217 12.1869C22.4466 12.1117 22.466 12.0489 22.4806 12C22.466 11.9511 22.4466 11.8883 22.4217 11.8131C22.3537 11.6073 22.2459 11.3095 22.0888 10.9504C21.7741 10.2311 21.2646 9.27238 20.4869 8.3153C18.9414 6.41306 16.3265 4.5 12 4.5C7.67356 4.5 5.05863 6.41306 3.51306 8.3153C2.73543 9.27238 2.2259 10.2311 1.91121 10.9504C1.7541 11.3095 1.64627 11.6073 1.57829 11.8131C1.55345 11.8883 1.53397 11.9511 1.51936 12ZM23 12C23.4851 11.8787 23.4849 11.8781 23.4849 11.8781L23.4842 11.8753L23.4826 11.8689L23.4769 11.8476C23.4721 11.8296 23.4652 11.8043 23.4559 11.772C23.4373 11.7075 23.4095 11.6153 23.3713 11.4994C23.2947 11.2677 23.176 10.9405 23.005 10.5496C22.6634 9.76889 22.1104 8.72762 21.2631 7.6847C19.5586 5.58694 16.6736 3.5 12 3.5C7.32646 3.5 4.44139 5.58694 2.73695 7.6847C1.88958 8.72762 1.33661 9.76889 0.995054 10.5496C0.824038 10.9405 0.70531 11.2677 0.628759 11.4994C0.590466 11.6153 0.562674 11.7075 0.544131 11.772C0.534858 11.8043 0.527893 11.8296 0.52308 11.8476L0.517454 11.8689L0.515814 11.8753L0.515281 11.8774C0.515281 11.8774 0.514936 11.8787 1.00001 12L0.514936 11.8787L0.484619 12L0.514936 12.1213L1.00001 12C0.514936 12.1213 0.514936 12.1213 0.514936 12.1213L0.515281 12.1226L0.515814 12.1247L0.517454 12.1311L0.52308 12.1524C0.527893 12.1704 0.534858 12.1957 0.544131 12.228C0.562674 12.2925 0.590466 12.3847 0.628759 12.5006C0.70531 12.7323 0.824038 13.0595 0.995054 13.4504C1.33661 14.2311 1.88958 15.2724 2.73695 16.3153C4.44139 18.4131 7.32646 20.5 12 20.5C16.6736 20.5 19.5586 18.4131 21.2631 16.3153C22.1104 15.2724 22.6634 14.2311 23.005 13.4504C23.176 13.0595 23.2947 12.7323 23.3713 12.5006C23.4095 12.3847 23.4373 12.2925 23.4559 12.228C23.4652 12.1957 23.4721 12.1704 23.4769 12.1524L23.4826 12.1311L23.4842 12.1247L23.4847 12.1226C23.4847 12.1226 23.4851 12.1213 23 12ZM23 12L23.4851 12.1213L23.5154 12L23.4849 11.8781L23 12ZM12 8.5C10.067 8.5 8.50001 10.067 8.50001 12C8.50001 13.933 10.067 15.5 12 15.5C13.933 15.5 15.5 13.933 15.5 12C15.5 10.067 13.933 8.5 12 8.5ZM7.50001 12C7.50001 9.51472 9.51473 7.5 12 7.5C14.4853 7.5 16.5 9.51472 16.5 12C16.5 14.4853 14.4853 16.5 12 16.5C9.51473 16.5 7.50001 14.4853 7.50001 12Z" fill="black" fill-opacity="0.7"/>
<path fill-rule="evenodd" clip-rule="evenodd" d="M3.64645 3.64645C3.84172 3.45118 4.1583 3.45118 4.35356 3.64645L20.3536 19.6464C20.5488 19.8417 20.5488 20.1583 20.3536 20.3536C20.1583 20.5488 19.8417 20.5488 19.6465 20.3536L3.64645 4.35355C3.45119 4.15829 3.45119 3.84171 3.64645 3.64645Z" fill="black" fill-opacity="0.7"/>
</svg>
