<svg width="24" height="24" viewBox="0 0 24 24" fill="none" xmlns="http://www.w3.org/2000/svg">
<path fill-rule="evenodd" clip-rule="evenodd" d="M4.63985 2.5C3.81143 2.5 3.13986 3.17157 3.13986 4C3.13986 4.82843 3.81143 5.5 4.63985 5.5C5.46828 5.5 6.13985 4.82843 6.13985 4C6.13985 3.17157 5.46828 2.5 4.63985 2.5ZM2.13986 4C2.13986 2.61929 3.25914 1.5 4.63985 1.5C6.02056 1.5 7.13985 2.61929 7.13985 4C7.13985 5.37827 6.02452 6.49604 4.64717 6.49999H5.99997C7.38068 6.49999 8.49997 7.61928 8.49997 8.99999V13.0027C8.49997 13.8292 7.83038 14.4992 7.00411 14.5V20.5C7.00411 21.6046 6.10868 22.5 5.00411 22.5L4 22.5C2.89542 22.5 1.99999 21.6046 2 20.5L2.00007 14.5C1.1716 14.5 0.499972 13.8284 0.499973 12.9999L0.499982 8.99999C0.499982 7.61928 1.61927 6.49999 2.99998 6.49999H4.63253C3.25519 6.49604 2.13986 5.37827 2.13986 4ZM19.6399 2.5C18.8115 2.5 18.1399 3.17157 18.1399 4C18.1399 4.82843 18.8115 5.5 19.6399 5.5C20.4683 5.5 21.1399 4.82843 21.1399 4C21.1399 3.17157 20.4683 2.5 19.6399 2.5ZM17.1399 4C17.1399 2.61929 18.2592 1.5 19.6399 1.5C21.0206 1.5 22.1399 2.61929 22.1399 4C22.1399 5.37827 21.0245 6.49604 19.6472 6.49999H21C22.3807 6.49999 23.5 7.61928 23.5 8.99999V13.0027C23.5 13.8292 22.8304 14.4992 22.0041 14.5V20.5C22.0041 21.6046 21.1087 22.5 20.0041 22.5L19 22.5C17.8955 22.5 17 21.6046 17 20.5L17.0001 14.5C16.1716 14.5 15.5 13.8284 15.5 12.9999L15.5 8.99999C15.5 7.61928 16.6193 6.49999 18 6.49999H19.6326C18.2552 6.49604 17.1399 5.37827 17.1399 4ZM2.99998 7.49999C2.17155 7.49999 1.49998 8.17156 1.49998 8.99999L1.49997 12.9999C1.49997 13.2761 1.72386 13.5 2.00004 13.5C2.55227 13.5 2.99997 13.9476 3.00007 14.4998L3 20.5C2.99999 21.0523 3.44771 21.5 4 21.5L5.00411 21.5C5.5564 21.5 6.00411 21.0523 6.00411 20.5V14.4986C6.00411 13.9471 6.45121 13.5 7.00273 13.5C7.27735 13.5 7.49997 13.2774 7.49997 13.0027V8.99999C7.49997 8.17156 6.8284 7.49999 5.99997 7.49999H2.99998ZM18 7.49999C17.1716 7.49999 16.5 8.17156 16.5 8.99999L16.5 12.9999C16.5 13.2761 16.7239 13.5 17.0001 13.5C17.5523 13.5 18 13.9476 18.0001 14.4998L18 20.5C18 21.0523 18.4477 21.5 19 21.5L20.0041 21.5C20.5564 21.5 21.0041 21.0523 21.0041 20.5V14.4986C21.0041 13.9471 21.4512 13.5 22.0028 13.5C22.2774 13.5 22.5 13.2774 22.5 13.0027V8.99999C22.5 8.17156 21.8284 7.49999 21 7.49999H18ZM12.0635 9.5C11.235 9.5 10.5635 10.1716 10.5635 11C10.5635 11.8284 11.235 12.5 12.0635 12.5C12.8919 12.5 13.5635 11.8284 13.5635 11C13.5635 10.1716 12.8919 9.5 12.0635 9.5ZM9.56347 11C9.56347 9.61929 10.6828 8.5 12.0635 8.5C13.4442 8.5 14.5635 9.61929 14.5635 11C14.5635 12.3807 13.4442 13.5 12.0635 13.5C10.6828 13.5 9.56347 12.3807 9.56347 11ZM11.5 14.5C10.6716 14.5 10 15.1716 10 16V21C10 21.2761 10.2239 21.5 10.5 21.5L13.5 21.5C13.7761 21.5 14 21.2761 14 21V16C14 15.1716 13.3284 14.5 12.5 14.5H11.5ZM9 16C9 14.6193 10.1193 13.5 11.5 13.5H12.5C13.8807 13.5 15 14.6193 15 16V21C15 21.8284 14.3284 22.5 13.5 22.5L10.5 22.5C9.67158 22.5 9 21.8284 9 21V16Z" fill="black" fill-opacity="0.7"/>
</svg>
