<svg width="16" height="16" viewBox="0 0 16 16" fill="none" xmlns="http://www.w3.org/2000/svg">
<rect width="16" height="16" fill="white"/>
<path fill-rule="evenodd" clip-rule="evenodd" d="M1.5 5C1.5 4.72386 1.72386 4.5 2 4.5H14C14.2761 4.5 14.5 4.72386 14.5 5C14.5 5.27614 14.2761 5.5 14 5.5H2C1.72386 5.5 1.5 5.27614 1.5 5ZM4 8C4 7.72386 4.22386 7.5 4.5 7.5H11.5C11.7761 7.5 12 7.72386 12 8C12 8.27614 11.7761 8.5 11.5 8.5H4.5C4.22386 8.5 4 8.27614 4 8ZM5.5 11C5.5 10.7239 5.72386 10.5 6 10.5H10C10.2761 10.5 10.5 10.7239 10.5 11C10.5 11.2761 10.2761 11.5 10 11.5H6C5.72386 11.5 5.5 11.2761 5.5 11Z" fill="black" fill-opacity="0.7"/>
</svg>
