<svg width="24" height="24" viewBox="0 0 24 24" fill="none" xmlns="http://www.w3.org/2000/svg">
<path fill-rule="evenodd" clip-rule="evenodd" d="M10.5 2C10.5 1.17157 11.1716 0.5 12 0.5C12.8284 0.5 13.5 1.17157 13.5 2V4.80629L15.7438 4.05835L15.5591 3.43176C15.3056 2.57188 15.8802 1.75334 16.7177 1.54938C17.5419 1.34865 18.4484 1.78103 18.696 2.61641C18.6975 2.61844 18.7019 2.62298 18.712 2.62828C18.7316 2.63854 18.7596 2.64362 18.7892 2.63641L19.8783 2.37116C20.7032 2.17027 21.6105 2.60353 21.8572 3.44027L22.4409 5.42017C22.6944 6.28005 22.1198 7.0986 21.2823 7.30256L20.1932 7.56781C20.1758 7.57204 20.1656 7.57843 20.1601 7.58307C20.4026 8.43751 19.8298 9.24784 18.9972 9.45062C18.1723 9.65152 17.265 9.21825 17.0183 8.38151L16.4792 6.55289L13.5 7.8297V9.80629L15.8419 9.02566C15.9944 8.97483 16.162 9.0004 16.2924 9.09438C16.4227 9.18835 16.5 9.33928 16.5 9.5V11C16.5 11.1894 16.393 11.3625 16.2236 11.4472L13.5 12.809V17.2929L18.8536 22.6464C18.9966 22.7894 19.0393 23.0045 18.9619 23.1913C18.8846 23.3782 18.7022 23.5 18.5 23.5H16C15.8674 23.5 15.7402 23.4473 15.6464 23.3536L13.197 20.9041C12.9232 21.2661 12.4889 21.5 12 21.5C11.5377 21.5 11.1243 21.2909 10.8491 20.9621L8.88411 23.3201C8.78911 23.4341 8.64839 23.5 8.5 23.5H6C5.80209 23.5 5.62281 23.3833 5.54274 23.2023C5.46268 23.0213 5.4969 22.8101 5.63003 22.6637L10.5 17.3067V9.50013C10.4342 9.50016 10.3673 9.48713 10.303 9.45957L7 8.04398V9.1961C7.1228 9.30973 7.20176 9.45148 7.24863 9.56085C7.34884 9.79467 7.40184 10.0889 7.43444 10.3823C7.50001 10.9724 7.50001 11.7443 7.5 12.4773V15.9992C7.5 16.1793 7.4031 16.3463 7.24635 16.4351C7.16987 16.4784 7.0849 16.5 7 16.5V19C7 19.1693 6.91437 19.327 6.77246 19.4192C6.63054 19.5115 6.4516 19.5256 6.29693 19.4569L1.79693 17.4569C1.61637 17.3767 1.5 17.1976 1.5 17H2C1.5 17 1.5 17.0001 1.5 17L1.50001 16.9947L1.50005 16.9807L1.50038 16.928C1.50076 16.8821 1.50151 16.8152 1.50301 16.7296C1.50599 16.5584 1.51195 16.3125 1.52383 16.0115C1.54756 15.4102 1.59507 14.586 1.69035 13.6967C1.78543 12.8092 1.92914 11.8469 2.14774 10.9725C2.36339 10.1099 2.66406 9.28125 3.1 8.7C3.72967 7.86044 3.96975 7.026 4.04768 6.37193C4.10343 5.90403 4.31481 5.44845 4.63225 5.10441C4.95129 4.75864 5.40403 4.5 5.93845 4.5C6.15526 4.5 6.35135 4.54906 6.51831 4.64817C6.68475 4.74696 6.79511 4.87936 6.86577 5.00518C6.88863 5.04589 6.90745 5.08605 6.92297 5.12461L10.5 6.466V2ZM10.5 7.50014C10.4416 7.50014 10.3823 7.48986 10.3244 7.46816L7 6.2215V6.99987C7.06579 6.99984 7.13266 7.01287 7.19696 7.04043L10.5 8.45602V7.50014ZM5.99778 5.50538C5.98675 5.50283 5.96781 5.5 5.93845 5.5C5.7422 5.5 5.54103 5.59414 5.3672 5.78253C5.19178 5.97265 5.07135 6.23261 5.04066 6.49024C4.94561 7.28793 4.6526 8.29653 3.9 9.3C3.58594 9.71875 3.32411 10.3901 3.11788 11.215C2.91461 12.0281 2.77707 12.9408 2.68465 13.8033C2.59243 14.664 2.54619 15.4648 2.52305 16.051C2.51304 16.3046 2.50737 16.5174 2.50417 16.6769L6 18.2306V16C6 15.9944 6.00009 15.9888 6.00028 15.9833L4.24275 14.9287C4.09215 14.8384 4 14.6756 4 14.5V12C4 10.5143 4.88052 9.33539 6 9.06065V5.5152C5.99993 5.51478 5.99985 5.51434 5.99976 5.51387C5.99917 5.51073 5.99848 5.50788 5.99778 5.50538ZM6.01031 5.50934C6.01029 5.50936 6.00984 5.50918 6.00899 5.50872L6.01031 5.50934ZM6.5 15.1169V12.5C6.5 11.7397 6.49931 11.0215 6.44056 10.4927C6.41588 10.2707 6.38382 10.113 6.35066 10.0117C5.7241 10.108 5 10.798 5 12V14.2169L6.5 15.1169ZM11.5 17.4983C11.5 17.4995 11.5 17.5008 11.5 17.502V20C11.5 20.2761 11.7239 20.5 12 20.5C12.2761 20.5 12.5 20.2761 12.5 20V17.5005C12.5 17.5002 12.5 17.5008 12.5 17.5005V12.5108C12.4999 12.5039 12.4999 12.4969 12.5 12.4899V10.5115C12.4998 10.5038 12.4998 10.496 12.5 10.4883V7.51153C12.4998 7.50399 12.4998 7.49645 12.5 7.48894V5.51152C12.4998 5.50378 12.4998 5.49604 12.5 5.48833V2C12.5 1.72386 12.2761 1.5 12 1.5C11.7239 1.5 11.5 1.72386 11.5 2V17.4983ZM13.5 5.86038V6.74173L16.1945 5.58696L16.0268 5.01812L13.5 5.86038ZM13.5 10.8604V11.691L15.5 10.691V10.1937L13.5 10.8604ZM13.5 18.7071V19.7929L16.2071 22.5H17.2929L13.5 18.7071ZM10.5 18.7933L7.13028 22.5H8.26581L10.5 19.819V18.7933ZM17.7374 2.90125C17.6617 2.64452 17.3325 2.42887 16.9543 2.52098C16.5888 2.61001 16.4494 2.91541 16.5183 3.149L17.9775 8.09875C18.0532 8.35548 18.3824 8.57113 18.7606 8.47902C19.1261 8.38999 19.2654 8.08459 19.1966 7.851C19.0237 7.26449 19.4198 6.72693 19.9565 6.59621L21.0457 6.33096C21.4112 6.24192 21.5506 5.93652 21.4817 5.70294L20.898 3.72304C20.8223 3.46631 20.4931 3.25066 20.115 3.34276L19.0258 3.60802C18.5017 3.73566 17.9035 3.46462 17.7374 2.90125Z" fill="black" fill-opacity="0.7"/>
</svg>
