<svg width="24" height="24" viewBox="0 0 24 24" fill="none" xmlns="http://www.w3.org/2000/svg">
<path fill-rule="evenodd" clip-rule="evenodd" d="M2.64645 1.64645C2.81928 1.47362 3.09173 1.45107 3.29062 1.59314L6.79062 4.09314C6.87661 4.15456 6.94092 4.24164 6.97434 4.34189L7.43763 5.73176L11.5012 9.85561L13.5 7.84115V6.03141C13.5 3.53248 15.511 1.50001 18 1.50001C18.9312 1.50001 19.5929 1.88767 19.8549 2.15176C20.0484 2.34671 20.0484 2.66116 19.8549 2.8561L17.562 5.16699C17.3649 5.36564 17.3649 5.68932 17.562 5.88797L18.1478 6.47836C18.3428 6.67484 18.6572 6.67484 18.8522 6.47836L21.1451 4.16746C21.2389 4.07285 21.3667 4.01963 21.5 4.01963C21.6333 4.01963 21.7611 4.07285 21.8549 4.16747C22.1168 4.4314 22.5 5.09648 22.5 6.03141C22.5 8.53034 20.489 10.5628 18 10.5628H16.2176L15.2471 11.6047L21.7306 18.1391C22.3162 18.7293 22.3162 19.6846 21.7306 20.2748L20.138 21.8799C19.5502 22.4723 18.5956 22.4723 18.0078 21.8799L11.5384 15.3597L4.86163 21.9986C4.31128 22.5997 3.3456 22.7121 2.68702 22.0521L1.99002 21.3535C1.38785 20.7501 1.29799 19.736 1.95881 19.1326L9.78976 11.5656L5.72785 7.43634L4.34188 6.97435C4.24164 6.94093 4.15455 6.87661 4.09313 6.79063L1.59313 3.29063C1.45107 3.09173 1.47361 2.81928 1.64645 2.64645L2.64645 1.64645ZM10.4926 12.277L2.6481 19.8571L2.63544 19.8689C2.46919 20.0188 2.42029 20.369 2.69789 20.6472L3.39489 21.3457C3.61402 21.5653 3.92553 21.5446 4.12789 21.3191C4.13421 21.3121 4.14074 21.3052 4.14745 21.2985L10.8342 14.6497C10.2909 14.0843 10.2638 13.1836 10.8027 12.5945C10.8035 12.5936 10.8042 12.5928 10.805 12.5919L10.4926 12.277ZM11.5 11.8726L10.8564 11.224L10.8549 11.2224L6.35645 6.64937C6.30104 6.59304 6.23307 6.55065 6.15811 6.52566L4.81236 6.07708L2.65306 3.05406L3.05405 2.65306L6.07707 4.81237L6.52566 6.15812C6.54981 6.23058 6.59024 6.29654 6.64385 6.35095L11.1439 10.9177L11.1451 10.9189L11.7956 11.5746L11.5 11.8726ZM12.8474 11.9343L11.8549 12.9346C11.7802 13.0099 11.6669 13.1312 11.5406 13.2694C11.3642 13.4623 11.3687 13.7689 11.561 13.9627L18.7177 21.1756C18.9143 21.3738 19.2315 21.3738 19.4281 21.1756L21.0207 19.5705C21.2195 19.3702 21.2195 19.0437 21.0207 18.8434L13.8749 11.6415C13.684 11.4491 13.3786 11.4427 13.1802 11.6263L12.8474 11.9343ZM12.5149 10.8797C13.0945 10.3563 13.9736 10.3663 14.5414 10.8952L15.6341 9.72202C15.7287 9.62048 15.8612 9.56281 16 9.56281H18C19.9293 9.56281 21.5 7.98544 21.5 6.03141C21.5 5.75412 21.4525 5.52166 21.3915 5.33882L19.562 7.1827C18.9759 7.77339 18.0241 7.7734 17.438 7.1827L16.8522 6.59231C16.2682 6.00378 16.2682 5.05119 16.8522 4.46266L18.6896 2.61077C18.5082 2.54865 18.2767 2.50001 18 2.50001C16.0707 2.50001 14.5 4.07738 14.5 6.03141V8.04711C14.5 8.17904 14.4479 8.30562 14.3549 8.39928L12.2044 10.5667L12.5149 10.8797Z" fill="black" fill-opacity="0.7"/>
</svg>
