<svg width="24" height="24" viewBox="0 0 24 24" fill="none" xmlns="http://www.w3.org/2000/svg">
<path fill-rule="evenodd" clip-rule="evenodd" d="M2 3.5C2.27614 3.5 2.5 3.72386 2.5 4V19.5H3.5V15C3.5 14.7239 3.72386 14.5 4 14.5H8C8.27614 14.5 8.5 14.7239 8.5 15V19.5H9.5V12C9.5 11.7239 9.72386 11.5 10 11.5H14C14.2761 11.5 14.5 11.7239 14.5 12V19.5H15.5V9C15.5 8.72386 15.7239 8.5 16 8.5H20C20.2761 8.5 20.5 8.72386 20.5 9V19.5H22C22.2761 19.5 22.5 19.7239 22.5 20C22.5 20.2761 22.2761 20.5 22 20.5H2C1.72386 20.5 1.5 20.2761 1.5 20V4C1.5 3.72386 1.72386 3.5 2 3.5ZM19.5 19.5V9.5H16.5V19.5H19.5ZM13.5 19.5V12.5H10.5V19.5H13.5ZM7.5 19.5V15.5H4.5V19.5H7.5ZM18 4.5C17.7239 4.5 17.5 4.72386 17.5 5C17.5 5.27614 17.7239 5.5 18 5.5C18.2761 5.5 18.5 5.27614 18.5 5C18.5 4.72386 18.2761 4.5 18 4.5ZM16.5 5C16.5 4.17157 17.1716 3.5 18 3.5C18.8284 3.5 19.5 4.17157 19.5 5C19.5 5.82843 18.8284 6.5 18 6.5C17.5955 6.5 17.2285 6.33992 16.9587 6.07967L13.4887 7.81468C13.4961 7.87541 13.5 7.93725 13.5 8C13.5 8.82843 12.8284 9.5 12 9.5C11.5955 9.5 11.2285 9.33992 10.9587 9.07967L7.48867 10.8147C7.49615 10.8754 7.5 10.9373 7.5 11C7.5 11.8284 6.82843 12.5 6 12.5C5.17157 12.5 4.5 11.8284 4.5 11C4.5 10.1716 5.17157 9.5 6 9.5C6.40446 9.5 6.77152 9.66008 7.04131 9.92033L10.5113 8.18532C10.5039 8.12459 10.5 8.06275 10.5 8C10.5 7.17157 11.1716 6.5 12 6.5C12.4045 6.5 12.7715 6.66008 13.0413 6.92033L16.5113 5.18532C16.5039 5.12459 16.5 5.06275 16.5 5ZM12 7.5C11.7239 7.5 11.5 7.72386 11.5 8C11.5 8.27614 11.7239 8.5 12 8.5C12.2761 8.5 12.5 8.27614 12.5 8C12.5 7.72386 12.2761 7.5 12 7.5ZM6 10.5C5.72386 10.5 5.5 10.7239 5.5 11C5.5 11.2761 5.72386 11.5 6 11.5C6.27614 11.5 6.5 11.2761 6.5 11C6.5 10.7239 6.27614 10.5 6 10.5Z" fill="black" fill-opacity="0.7"/>
</svg>
