<svg width="24" height="24" viewBox="0 0 24 24" fill="none" xmlns="http://www.w3.org/2000/svg">
<path fill-rule="evenodd" clip-rule="evenodd" d="M9.19744 1.60194C9.32183 1.50739 9.48327 1.47643 9.63382 1.51825L18.6338 4.01825C18.8502 4.07836 19 4.2754 19 4.5V19.5H23C23.2761 19.5 23.5 19.7239 23.5 20C23.5 20.2761 23.2761 20.5 23 20.5H18.5549L9.60847 22.4881C9.46042 22.521 9.30544 22.4849 9.18714 22.39C9.06884 22.2951 9 22.1517 9 22V20.5H1C0.723858 20.5 0.5 20.2761 0.5 20C0.5 19.7239 0.723858 19.5 1 19.5H5V3.5C5 3.22386 5.22386 3 5.5 3H7.5C7.77614 3 8 3.22386 8 3.5C8 3.77615 7.77614 4 7.5 4H6V19.5H9V2C9 1.84376 9.07304 1.69649 9.19744 1.60194ZM18 19.5989V4.88005L10 2.65782V21.3767L18 19.5989ZM12.5 11.5C12.2239 11.5 12 11.7239 12 12C12 12.2761 12.2239 12.5 12.5 12.5C12.7761 12.5 13 12.2761 13 12C13 11.7239 12.7761 11.5 12.5 11.5ZM11 12C11 11.1716 11.6716 10.5 12.5 10.5C13.3284 10.5 14 11.1716 14 12C14 12.8284 13.3284 13.5 12.5 13.5C11.6716 13.5 11 12.8284 11 12Z" fill="black" fill-opacity="0.7"/>
</svg>
