<svg width="24" height="24" fill="none" xmlns="http://www.w3.org/2000/svg"><path fill-rule="evenodd" clip-rule="evenodd" d="M19.6107 7.79109c.0205.00233.0409.00593.061.01079 1.0976.26518 2.0703.92731 2.7628 1.86605.3801.51527.6392 1.33117.8052 2.09827.1698.7847.2603 1.6067.2603 2.1926v.9463c0 .5427-.1979 1.0708-.5615 1.4662-.365.3969-.8694.6287-1.4052.6287h-3.6666c-.5358 0-1.0402-.2318-1.4052-.6287-.3636-.3954-.5615-.9235-.5615-1.4662 0-.1758-.0348-.6043-.1049-1.0288-.0348-.2102-.076-.4051-.1211-.5585-.0351-.1189-.0626-.1771-.0723-.1974-.0049-.0104-.0051-.0109.0007-.0046-.1852-.2013-.4269-.3056-.6691-.3056H9.06667c-.24221 0-.48391.1043-.66905.3056.00581-.0063.00556-.0058.00065.0046-.00963.0203-.03721.0785-.07224.1974-.04518.1534-.08634.3483-.12108.5585-.07017.4245-.10495.853-.10495 1.0288 0 .5427-.19787 1.0708-.56154 1.4662-.36496.3969-.86937.6287-1.40513.6287H2.46667c-.53576 0-1.04017-.2318-1.40513-.6287-.36367-.3954-.561539-.9235-.561539-1.4662v-.9462s0 .0001 0 0c-.00034-.5862.089929-1.4086.259538-2.1935.165854-.7675.424861-1.5837.804921-2.09929.69255-.93945 1.66566-1.6021 2.76381-1.86742.02017-.00487.04061-.00848.0612-.01081 5.02764-1.05158 10.19393-1.0505 15.22123.00321zm-.1702.98607C14.5257 7.742 9.47441 7.74094 4.55929 8.77402a.5081066.5081066 0 01-.03281.00576c-.84295.21303-1.60461.73026-2.1571 1.47972-.24645.3343-.47125.9714-.6324 1.7172-.15737.7282-.2373 1.4788-.23698 1.9818v.9466c0 .3033.11118.5866.29762.7893.18514.2013.42684.3056.66905.3056h3.66666c.24221 0 .48391-.1043.66906-.3056.18643-.2027.29761-.486.29761-.7893 0-.2472.04249-.733.11834-1.1919.03827-.2315.08731-.4705.14846-.678.05345-.1814.14-.428.29474-.5963.36496-.3969.86937-.6287 1.40513-.6287h5.86663c.5358 0 1.0402.2318 1.4052.6287.1547.1683.2412.4149.2947.5963.0611.2075.1102.4465.1485.678.0758.4589.1183.9447.1183 1.1919 0 .3033.1112.5866.2976.7893.1852.2013.4269.3056.6691.3056h3.6666c.2422 0 .4839-.1043.6691-.3056.1864-.2027.2976-.486.2976-.7893v-.9463c0-.5028-.0802-1.2532-.2377-1.9811-.1613-.7454-.3861-1.3821-.6325-1.7161-.5524-.7489-1.3138-1.26571-2.1563-1.47863-.011-.00157-.022-.0035-.033-.00581z" fill="#000" fill-opacity=".7"/></svg>