<svg fill="none" xmlns="http://www.w3.org/2000/svg" width='24' height='24' viewBox="0 0 24 24">
  <path fill-rule="evenodd" clip-rule="evenodd" d="M12 2.5c-5.24671 0-9.5 4.25329-9.5 9.5 0 5.2467 4.25329 9.5 9.5 9.5 5.2467 0 9.5-4.2533 9.5-9.5 0-5.24671-4.2533-9.5-9.5-9.5zM1.5 12C1.5 6.20101 6.20101 1.5 12 1.5c5.799 0 10.5 4.70101 10.5 10.5 0 5.799-4.701 10.5-10.5 10.5-5.79899 0-10.5-4.701-10.5-10.5zm8.6103-4.71914C9.67617 7.73215 9.5 8.23885 9.5 8.5c0 .27614-.22386.5-.5.5s-.5-.22386-.5-.5c0-.58096.32383-1.32426.88967-1.91244C9.97359 5.98059 10.8498 5.5 12 5.5c1.0778 0 1.9601.26946 2.5793.81121.6278.5494.9207 1.32253.9207 2.18879 0 .84083-.2126 1.47372-.5577 1.9721-.3373.4873-.7786.8113-1.1649 1.0689-.0902.0601-.1752.1155-.2555.1678-.2883.1877-.5157.3358-.6996.5198-.202.2019-.3223.4232-.3223.7714v1c0 .2761-.2239.5-.5.5s-.5-.2239-.5-.5v-1c0-.6518.2547-1.118.6152-1.4786.2657-.2656.608-.4875.9073-.6815.0695-.0451.1368-.0887.2001-.1309.3637-.2424.6724-.4809.8976-.80611.2174-.31411.3798-.74372.3798-1.40289 0-.63374-.2071-1.11061-.5793-1.43621C13.5399 6.73054 12.9222 6.5 12 6.5c-.8498 0-1.4736.34835-1.8897.78086zM11 17c0-.5523.4477-1 1-1s1 .4477 1 1-.4477 1-1 1-1-.4477-1-1z" fill="#000" fill-opacity=".7"/>
</svg>
