<svg width="24" height="24" viewBox="0 0 24 24" fill="none" xmlns="http://www.w3.org/2000/svg">
<rect width="24" height="24" fill="white"/>
<path fill-rule="evenodd" clip-rule="evenodd" d="M6.5 9C4.567 9 3 10.567 3 12.5C3 14.433 4.567 16 6.5 16H10C10.5523 16 11 16.4477 11 17C11 17.5523 10.5523 18 10 18H6.5C3.46243 18 1 15.5376 1 12.5C1 9.46243 3.46243 7 6.5 7H10C10.5523 7 11 7.44772 11 8C11 8.55228 10.5523 9 10 9H6.5Z" fill="black" fill-opacity="0.8"/>
<path fill-rule="evenodd" clip-rule="evenodd" d="M13 8C13 7.44772 13.4477 7 14 7H17.5C20.5376 7 23 9.46243 23 12.5C23 15.5376 20.5376 18 17.5 18H14C13.4477 18 13 17.5523 13 17C13 16.4477 13.4477 16 14 16H17.5C19.433 16 21 14.433 21 12.5C21 10.567 19.433 9 17.5 9H14C13.4477 9 13 8.55228 13 8Z" fill="black" fill-opacity="0.8"/>
<path fill-rule="evenodd" clip-rule="evenodd" d="M7 12.5C7 11.9477 7.44772 11.5 8 11.5H16C16.5523 11.5 17 11.9477 17 12.5C17 13.0523 16.5523 13.5 16 13.5H8C7.44772 13.5 7 13.0523 7 12.5Z" fill="black" fill-opacity="0.8"/>
</svg>
