<svg width="24" height="24" viewBox="0 0 24 24" fill="none" xmlns="http://www.w3.org/2000/svg"><path fill-rule="evenodd" clip-rule="evenodd" d="M1.5 4a.5.5 0 01.5-.5h20a.5.5 0 01.5.5v16a.5.5 0 01-.5.5H2a.5.5 0 01-.5-.5V4zm1 12.707V19.5h19v-2.793l-3.692-3.692a.5.5 0 00-.683-.023l-2.624 2.297a1.5 1.5 0 01-1.997-.019l-4.135-3.759a.5.5 0 00-.69.017L2.5 16.708zm19-1.414l-2.985-2.985a1.5 1.5 0 00-2.048-.068l-2.625 2.296a.5.5 0 01-.666-.006l-4.134-3.759a1.5 1.5 0 00-2.07.05L2.5 15.293V4.5h19v10.793zM18 7a1 1 0 100 2 1 1 0 000-2zm-2 1a2 2 0 114 0 2 2 0 01-4 0z" fill="#000" fill-opacity=".7"/></svg>