<svg width="24" height="24" viewBox="0 0 24 24" fill="none" xmlns="http://www.w3.org/2000/svg">
  <path d="M3 10l-.36168-.34524C2.54954 9.74777 2.5 9.87142 2.5 10H3zm0 11h-.5c0 .2761.22386.5.5.5V21zm18 0v.5c.2761 0 .5-.2239.5-.5H21zm0-11h.5c0-.12858-.0495-.25223-.1383-.34524L21 10zM5.86364 3v-.5c-.27615 0-.5.22386-.5.5h.5zM18.1364 3h.5c0-.27614-.2239-.5-.5-.5V3zm0 9.75l.3463.3606-.3463-.3606zm.3616-6.09524c-.1906-.19975-.5071-.20711-.7069-.01644-.1997.19067-.2071.50717-.0164.70692l.7233-.69048zm-12.27269.69048c.19067-.19975.18331-.51625-.01644-.70692-.19974-.19067-.51624-.18331-.70691.01644l.72335.69048zM2.5 10v11h1V10h-1zM3 21.5h18v-1H3v1zm18.5-.5V10h-1v11h1zM8.38095 15.1394l-5.72728 5.5.69266.7212 5.72727-5.5-.69265-.7212zm6.54545.7212l5.7273 5.5.6926-.7212-5.7272-5.5-.6927.7212zM8.72727 16h6.54543v-1H8.72727v1zm-6.0736-5.6394l2.86364 2.75.69265-.7212-2.86363-2.75004-.69266.72124zm2.86364 2.75l2.86364 2.75.69265-.7212-2.86364-2.75-.69265.7212zm.84633-.3606V3h-1v9.75h1zM20.6537 9.63936L17.79 12.3894l.6927.7212 2.8636-2.75-.6926-.72124zM17.79 12.3894l-2.8636 2.75.6927.7212 2.8636-2.75-.6927-.7212zM17.6364 3v9.75h1V3h-1zm-11.77276.5H18.1364v-1H5.86364v1zM21.3617 9.65476l-2.8637-3-.7233.69048 2.8636 2.99996.7234-.69044zm-15.85974-3l-2.86364 3 .72336.69044 2.86363-2.99996-.72335-.69048z" fill="#000" fill-opacity=".70"/>
  <path d="M9 5.5c-.27614 0-.5.22386-.5.5s.22386.5.5.5v-1zm6 1c.2761 0 .5-.22386.5-.5s-.2239-.5-.5-.5v1zM9 8c-.27614 0-.5.22386-.5.5s.22386.5.5.5V8zm6 1c.2761 0 .5-.22386.5-.5S15.2761 8 15 8v1zm-6 1.5c-.27614 0-.5.2239-.5.5s.22386.5.5.5v-1zm5 1c.2761 0 .5-.2239.5-.5s-.2239-.5-.5-.5v1zm-5-5h6v-1H9v1zM9 9h6V8H9v1zm0 2.5h5v-1H9v1z" fill="#000" fill-opacity=".70"/>
</svg>
