<svg width="24" height="24" viewBox="0 0 24 24" fill="none" xmlns="http://www.w3.org/2000/svg">
<path d="M3.5 9C3.5 8.72386 3.72386 8.5 4 8.5H5C5.27614 8.5 5.5 8.72386 5.5 9C5.5 9.27614 5.27614 9.5 5 9.5H4C3.72386 9.5 3.5 9.27614 3.5 9Z" fill="black" fill-opacity="0.7"/>
<path d="M6.5 9C6.5 8.72386 6.72386 8.5 7 8.5H8C8.27614 8.5 8.5 8.72386 8.5 9C8.5 9.27614 8.27614 9.5 8 9.5H7C6.72386 9.5 6.5 9.27614 6.5 9Z" fill="black" fill-opacity="0.7"/>
<path d="M9.5 9C9.5 8.72386 9.72386 8.5 10 8.5H11C11.2761 8.5 11.5 8.72386 11.5 9C11.5 9.27614 11.2761 9.5 11 9.5H10C9.72386 9.5 9.5 9.27614 9.5 9Z" fill="black" fill-opacity="0.7"/>
<path d="M12.5 9C12.5 8.72386 12.7239 8.5 13 8.5H14C14.2761 8.5 14.5 8.72386 14.5 9C14.5 9.27614 14.2761 9.5 14 9.5H13C12.7239 9.5 12.5 9.27614 12.5 9Z" fill="black" fill-opacity="0.7"/>
<path d="M15.5 9C15.5 8.72386 15.7239 8.5 16 8.5H17C17.2761 8.5 17.5 8.72386 17.5 9C17.5 9.27614 17.2761 9.5 17 9.5H16C15.7239 9.5 15.5 9.27614 15.5 9Z" fill="black" fill-opacity="0.7"/>
<path d="M18.5 9C18.5 8.72386 18.7239 8.5 19 8.5H20C20.2761 8.5 20.5 8.72386 20.5 9C20.5 9.27614 20.2761 9.5 20 9.5H19C18.7239 9.5 18.5 9.27614 18.5 9Z" fill="black" fill-opacity="0.7"/>
<path d="M3.5 12C3.5 11.7239 3.72386 11.5 4 11.5H5C5.27614 11.5 5.5 11.7239 5.5 12C5.5 12.2761 5.27614 12.5 5 12.5H4C3.72386 12.5 3.5 12.2761 3.5 12Z" fill="black" fill-opacity="0.7"/>
<path d="M6.5 12C6.5 11.7239 6.72386 11.5 7 11.5H8C8.27614 11.5 8.5 11.7239 8.5 12C8.5 12.2761 8.27614 12.5 8 12.5H7C6.72386 12.5 6.5 12.2761 6.5 12Z" fill="black" fill-opacity="0.7"/>
<path d="M9.5 12C9.5 11.7239 9.72386 11.5 10 11.5H11C11.2761 11.5 11.5 11.7239 11.5 12C11.5 12.2761 11.2761 12.5 11 12.5H10C9.72386 12.5 9.5 12.2761 9.5 12Z" fill="black" fill-opacity="0.7"/>
<path d="M12.5 12C12.5 11.7239 12.7239 11.5 13 11.5H14C14.2761 11.5 14.5 11.7239 14.5 12C14.5 12.2761 14.2761 12.5 14 12.5H13C12.7239 12.5 12.5 12.2761 12.5 12Z" fill="black" fill-opacity="0.7"/>
<path d="M15.5 12C15.5 11.7239 15.7239 11.5 16 11.5H17C17.2761 11.5 17.5 11.7239 17.5 12C17.5 12.2761 17.2761 12.5 17 12.5H16C15.7239 12.5 15.5 12.2761 15.5 12Z" fill="black" fill-opacity="0.7"/>
<path d="M18.5 12C18.5 11.7239 18.7239 11.5 19 11.5H20C20.2761 11.5 20.5 11.7239 20.5 12C20.5 12.2761 20.2761 12.5 20 12.5H19C18.7239 12.5 18.5 12.2761 18.5 12Z" fill="black" fill-opacity="0.7"/>
<path d="M3.5 15C3.5 14.7239 3.72386 14.5 4 14.5H5C5.27614 14.5 5.5 14.7239 5.5 15C5.5 15.2761 5.27614 15.5 5 15.5H4C3.72386 15.5 3.5 15.2761 3.5 15Z" fill="black" fill-opacity="0.7"/>
<path d="M6.5 15C6.5 14.7239 6.72386 14.5 7 14.5H8C8.27614 14.5 8.5 14.7239 8.5 15C8.5 15.2761 8.27614 15.5 8 15.5H7C6.72386 15.5 6.5 15.2761 6.5 15Z" fill="black" fill-opacity="0.7"/>
<path d="M9.5 15C9.5 14.7239 9.72386 14.5 10 14.5H14C14.2761 14.5 14.5 14.7239 14.5 15C14.5 15.2761 14.2761 15.5 14 15.5H10C9.72386 15.5 9.5 15.2761 9.5 15Z" fill="black" fill-opacity="0.7"/>
<path d="M15.5 15C15.5 14.7239 15.7239 14.5 16 14.5H17C17.2761 14.5 17.5 14.7239 17.5 15C17.5 15.2761 17.2761 15.5 17 15.5H16C15.7239 15.5 15.5 15.2761 15.5 15Z" fill="black" fill-opacity="0.7"/>
<path d="M18.5 15C18.5 14.7239 18.7239 14.5 19 14.5H20C20.2761 14.5 20.5 14.7239 20.5 15C20.5 15.2761 20.2761 15.5 20 15.5H19C18.7239 15.5 18.5 15.2761 18.5 15Z" fill="black" fill-opacity="0.7"/>
<path fill-rule="evenodd" clip-rule="evenodd" d="M0.5 6C0.5 5.17157 1.17157 4.5 2 4.5H22C22.8284 4.5 23.5 5.17157 23.5 6V18C23.5 18.8284 22.8284 19.5 22 19.5H2C1.17157 19.5 0.5 18.8284 0.5 18V6ZM2 5.5C1.72386 5.5 1.5 5.72386 1.5 6V18C1.5 18.2761 1.72386 18.5 2 18.5H22C22.2761 18.5 22.5 18.2761 22.5 18V6C22.5 5.72386 22.2761 5.5 22 5.5H2Z" fill="black" fill-opacity="0.7"/>
</svg>
