<svg width="24" height="24" viewBox="0 0 24 24" fill="none" xmlns="http://www.w3.org/2000/svg">
<path fill-rule="evenodd" clip-rule="evenodd" d="M7.65065 3.63316C8.65606 2.33619 10.2303 1.5 12 1.5C13.7697 1.5 15.3439 2.33619 16.3494 3.63316C16.7192 3.54602 17.1045 3.5 17.5 3.5C20.2614 3.5 22.5 5.73858 22.5 8.5C22.5 11.0927 20.5267 13.2245 18 13.4753V21C18 21.8284 17.3284 22.5 16.5 22.5H7.5C6.67157 22.5 6 21.8284 6 21V13.4753C3.47334 13.2245 1.5 11.0927 1.5 8.5C1.5 5.73858 3.73858 3.5 6.5 3.5C6.89552 3.5 7.28083 3.54602 7.65065 3.63316ZM7 13.4776V21C7 21.2761 7.22386 21.5 7.5 21.5H16.5C16.7761 21.5 17 21.2761 17 21V13.4776C16.5111 13.4329 16.1195 13.3276 15.8272 13.2183C15.6347 13.1463 15.4862 13.0728 15.3819 13.0145C15.3682 13.0069 15.3552 12.9995 15.343 12.9924C14.3557 13.6253 13.1844 14 12 14C10.8156 14 9.64433 13.6253 8.65695 12.9924C8.64477 12.9995 8.63181 13.0069 8.61809 13.0145C8.51383 13.0728 8.36528 13.1463 8.17276 13.2183C7.88051 13.3276 7.48889 13.4329 7 13.4776ZM7.76423 12.3027C7.48097 12.4017 7.05957 12.5 6.5 12.5C4.29086 12.5 2.5 10.7091 2.5 8.5C2.5 6.29086 4.29086 4.5 6.5 4.5C6.91971 4.5 7.32342 4.56447 7.70228 4.6837C7.91338 4.75013 8.14304 4.66988 8.26683 4.48643C9.07618 3.287 10.4463 2.5 12 2.5C13.5537 2.5 14.9238 3.287 15.7332 4.48643C15.857 4.66988 16.0866 4.75013 16.2977 4.6837C16.6766 4.56447 17.0803 4.5 17.5 4.5C19.7091 4.5 21.5 6.29086 21.5 8.5C21.5 10.7091 19.7091 12.5 17.5 12.5C16.9404 12.5 16.519 12.4017 16.2358 12.3027C17.2855 11.3309 18 9.9959 18 8.5C18 8.22386 17.7761 8 17.5 8C17.2239 8 17 8.22386 17 8.5C17 9.70909 16.4001 10.83 15.4555 11.6599C14.5097 12.491 13.2499 13 12 13C10.7501 13 9.49033 12.491 8.54449 11.6599C7.59991 10.83 7 9.70909 7 8.5C7 8.22386 6.77614 8 6.5 8C6.22386 8 6 8.22386 6 8.5C6 9.9959 6.71446 11.3309 7.76423 12.3027Z" fill="black" fill-opacity="0.7"/>
</svg>
