<svg width="24" height="24" viewBox="0 0 24 24" fill="none" xmlns="http://www.w3.org/2000/svg">
<path fill-rule="evenodd" clip-rule="evenodd" d="M2.5 3C2.5 2.17157 3.17157 1.5 4 1.5H20C20.8284 1.5 21.5 2.17157 21.5 3V21C21.5 21.8284 20.8284 22.5 20 22.5H4C3.17157 22.5 2.5 21.8284 2.5 21V3ZM4 2.5C3.72386 2.5 3.5 2.72386 3.5 3V21C3.5 21.2761 3.72386 21.5 4 21.5H20C20.2761 21.5 20.5 21.2761 20.5 21V3C20.5 2.72386 20.2761 2.5 20 2.5H4ZM6.5 4.5C6.22386 4.5 6 4.72386 6 5C6 5.27614 6.22386 5.5 6.5 5.5C6.77614 5.5 7 5.27614 7 5C7 4.72386 6.77614 4.5 6.5 4.5ZM5 5C5 4.17157 5.67157 3.5 6.5 3.5C7.32843 3.5 8 4.17157 8 5C8 5.82843 7.32843 6.5 6.5 6.5C5.67157 6.5 5 5.82843 5 5ZM10 4.5C9.72386 4.5 9.5 4.72386 9.5 5C9.5 5.27614 9.72386 5.5 10 5.5C10.2761 5.5 10.5 5.27614 10.5 5C10.5 4.72386 10.2761 4.5 10 4.5ZM8.5 5C8.5 4.17157 9.17157 3.5 10 3.5C10.8284 3.5 11.5 4.17157 11.5 5C11.5 5.82843 10.8284 6.5 10 6.5C9.17157 6.5 8.5 5.82843 8.5 5ZM13.5 4C13.5 3.72386 13.7239 3.5 14 3.5H18.5C18.7761 3.5 19 3.72386 19 4V6C19 6.27614 18.7761 6.5 18.5 6.5H14C13.7239 6.5 13.5 6.27614 13.5 6V4ZM14.5 4.5V5.5H18V4.5H14.5ZM7.69751 12.1774C8.25279 11.818 9.02201 11.5 10 11.5C10.5851 11.5 11.048 11.5482 11.4101 11.6463C11.7734 11.7448 12.0702 11.9032 12.2747 12.1487C12.4842 12.4001 12.5481 12.6838 12.5564 12.9326C12.5639 13.1589 12.5255 13.3888 12.4964 13.5629C12.4953 13.5694 12.4943 13.5759 12.4932 13.5822C12.4601 13.7809 12.4392 13.9173 12.4431 14.0341C12.4465 14.1369 12.4686 14.1813 12.4935 14.2112C12.5233 14.2469 12.6093 14.3229 12.8515 14.3885C13.0949 14.4545 13.4601 14.5 14 14.5C14.8206 14.5 15.4509 14.0919 15.8964 13.6464C16.1178 13.4251 16.285 13.2023 16.3965 13.0351C16.4222 12.9966 16.4448 12.9612 16.4642 12.9298C16.184 10.7137 14.2921 9 12 9C9.97501 9 8.26241 10.3376 7.69751 12.1774ZM16.3721 14.5697C15.8184 15.0515 15.0265 15.5 14 15.5C13.4149 15.5 12.952 15.4518 12.5899 15.3537C12.2266 15.2552 11.9298 15.0968 11.7253 14.8513C11.5158 14.5999 11.4519 14.3162 11.4436 14.0674C11.4361 13.8411 11.4745 13.6112 11.5036 13.4371C11.5047 13.4306 11.5057 13.4241 11.5068 13.4178C11.5399 13.2191 11.5608 13.0827 11.5569 12.9659C11.5535 12.8631 11.5314 12.8187 11.5065 12.7888C11.4767 12.7531 11.3907 12.6771 11.1485 12.6115C10.9051 12.5455 10.5399 12.5 10 12.5C9.13275 12.5 8.48541 12.8234 8.05 13.15C7.83154 13.3138 7.66831 13.4773 7.5612 13.5978C7.53937 13.6224 7.51997 13.645 7.50299 13.6654C7.59004 16.0741 9.57011 18 12 18C14.1167 18 15.8921 16.5386 16.3721 14.5697ZM6.5 13.5C6.5 10.4624 8.96243 8 12 8C15.0376 8 17.5 10.4624 17.5 13.5C17.5 16.5376 15.0376 19 12 19C8.96243 19 6.5 16.5376 6.5 13.5ZM7.41472 13.7793C7.41452 13.7796 7.41456 13.7795 7.41482 13.7791L7.41472 13.7793Z" fill="black" fill-opacity="0.7"/>
</svg>
