<svg width="24" height="24" viewBox="0 0 24 24" fill="none" xmlns="http://www.w3.org/2000/svg">
<path fill-rule="evenodd" clip-rule="evenodd" d="M17.7438 4.51099C18.0138 4.56856 18.1861 4.83417 18.1285 5.10425L17.489 8.10425C17.4314 8.37432 17.1658 8.54659 16.8958 8.48901C16.6257 8.43144 16.4534 8.16583 16.511 7.89575L17.1505 4.89575C17.2081 4.62568 17.4737 4.45341 17.7438 4.51099ZM13.839 4.58669C14.1004 4.49777 14.3844 4.63761 14.4734 4.89905L15.4734 7.83899C15.5623 8.10042 15.4224 8.38444 15.161 8.47337C14.8996 8.56229 14.6156 8.42244 14.5266 8.16101L13.5266 5.22107C13.4377 4.95964 13.5776 4.67562 13.839 4.58669ZM21.0803 6.48662C21.293 6.66269 21.3227 6.97787 21.1467 7.1906L19.3852 9.31881C19.2091 9.53153 18.8939 9.56125 18.6812 9.38518C18.4685 9.20911 18.4387 8.89392 18.6148 8.68119L20.3763 6.55299C20.5524 6.34026 20.8676 6.31054 21.0803 6.48662ZM0.5 13.0206C0.5 10.5951 2.21291 8.5 4.4736 8.5H11.4208C13.6815 8.5 15.3944 10.5951 15.3944 13.0206C15.3944 13.7533 15.2585 14.2586 15.0986 14.5979C15.0189 14.767 14.9349 14.8914 14.8626 14.9797C14.8266 15.0236 14.7939 15.0582 14.7666 15.0846C14.753 15.0977 14.7407 15.1088 14.7301 15.1179L14.7155 15.1302L14.7092 15.1352L14.7063 15.1375L14.705 15.1386L14.7043 15.1391C14.704 15.1393 14.7036 15.1396 14.3982 14.7438L14.7036 15.1396C14.485 15.3083 14.171 15.2678 14.0023 15.0492C13.8384 14.8368 13.872 14.5344 14.0745 14.3626C14.0771 14.3599 14.082 14.3546 14.0888 14.3463C14.1096 14.3209 14.1496 14.2658 14.194 14.1716C14.2822 13.9844 14.3944 13.6282 14.3944 13.0206C14.3944 11.0051 12.9969 9.5 11.4208 9.5H4.4736C2.89746 9.5 1.5 11.0051 1.5 13.0206C1.5 15.0362 2.89746 16.5413 4.4736 16.5413H7.9472C8.22335 16.5413 8.4472 16.7651 8.4472 17.0413C8.4472 17.3174 8.22335 17.5413 7.9472 17.5413H4.4736C2.21291 17.5413 0.5 15.4462 0.5 13.0206ZM19.0137 10.884C19.0777 10.6154 19.3474 10.4496 19.616 10.5137L20.6227 10.7538L20.6377 10.7576C22.8123 11.3478 23.9465 13.786 23.3331 16.1046C22.7193 18.4245 20.5294 19.9659 18.3513 19.3748L11.6408 17.5537C9.46613 16.9636 8.33195 14.5254 8.94537 12.2067C9.016 11.9398 9.28967 11.7806 9.55663 11.8512C9.82358 11.9219 9.98274 12.1955 9.91211 12.4625C9.40746 14.37 10.3713 16.173 11.9027 16.5886L18.6132 18.4097C20.1411 18.8244 21.862 17.7551 22.3663 15.8489C22.8702 13.9443 21.9101 12.1439 20.3828 11.7247L19.384 11.4863C19.1154 11.4223 18.9496 11.1526 19.0137 10.884Z" fill="black" fill-opacity="0.7"/>
</svg>
