<svg width="24" height="24" viewBox="0 0 24 24" fill="none" xmlns="http://www.w3.org/2000/svg">
<path fill-rule="evenodd" clip-rule="evenodd" d="M15.5 8C15.5 7.72386 15.7239 7.5 16 7.5H19.5C21.7698 7.5 23.5 9.57952 23.5 12C23.5 14.4205 21.7698 16.5 19.5 16.5H12.5C10.2302 16.5 8.5 14.4205 8.5 12C8.5 11.2699 8.63721 10.766 8.79876 10.4275C8.87922 10.2589 8.9641 10.1348 9.03694 10.047C9.07324 10.0032 9.10621 9.96879 9.13369 9.94262C9.14742 9.92955 9.15974 9.91856 9.17039 9.9095L9.18505 9.89735L9.19137 9.89233L9.19427 9.89008L9.19565 9.88902L9.19632 9.8885C9.19665 9.88825 9.19698 9.888 9.5 10.2857L9.19698 9.888C9.41663 9.72064 9.73036 9.76304 9.89772 9.98269C10.0603 10.1961 10.0249 10.4984 9.82123 10.6689C9.81861 10.6716 9.81365 10.6769 9.80681 10.6852C9.7859 10.7104 9.74578 10.7649 9.70124 10.8582C9.61279 11.0435 9.5 11.3968 9.5 12C9.5 13.9978 10.9038 15.5 12.5 15.5H19.5C21.0962 15.5 22.5 13.9978 22.5 12C22.5 10.0022 21.0962 8.5 19.5 8.5H16C15.7239 8.5 15.5 8.27614 15.5 8ZM0.5 12C0.5 9.57952 2.23023 7.5 4.5 7.5H11.5C13.7698 7.5 15.5 9.57952 15.5 12C15.5 12.7301 15.3628 13.234 15.2012 13.5725C15.1208 13.7411 15.0359 13.8652 14.9631 13.953C14.9268 13.9968 14.8938 14.0312 14.8663 14.0574C14.8526 14.0705 14.8403 14.0814 14.8296 14.0905L14.8149 14.1027L14.8086 14.1077L14.8057 14.1099L14.8044 14.111L14.8037 14.1115C14.8034 14.1117 14.803 14.112 14.5 13.7143L14.803 14.112C14.5834 14.2794 14.2696 14.237 14.1023 14.0173C13.9397 13.8039 13.9751 13.5016 14.1788 13.3311C14.1814 13.3284 14.1864 13.3231 14.1932 13.3148C14.2141 13.2896 14.2542 13.2351 14.2988 13.1418C14.3872 12.9565 14.5 12.6032 14.5 12C14.5 10.0022 13.0962 8.5 11.5 8.5H4.5C2.90377 8.5 1.5 10.0022 1.5 12C1.5 13.9978 2.90377 15.5 4.5 15.5H8C8.27614 15.5 8.5 15.7239 8.5 16C8.5 16.2761 8.27614 16.5 8 16.5H4.5C2.23023 16.5 0.5 14.4205 0.5 12Z" fill="black" fill-opacity="0.7"/>
</svg>
