<svg width="24" height="24" viewBox="0 0 24 24" fill="none" xmlns="http://www.w3.org/2000/svg">
<path fill-rule="evenodd" clip-rule="evenodd" d="M5 7.6572V4H4.26923L3 4.73675L3.36154 5.29429L4.08462 4.90268V7.6572H5ZM5.09286 11.1655C5.09286 11.3869 4.97143 11.5978 4.6037 11.8879C4.59517 11.8946 4.58651 11.9014 4.57772 11.9082C4.54426 11.9341 4.50886 11.9606 4.47143 11.9879L3.04286 13.0045V13.652H6V12.9333H4.32857L5.04286 12.4347C5.25715 12.2987 5.42516 12.1703 5.55536 12.0444C5.85119 11.7583 5.95187 11.4852 5.95694 11.1655C5.95708 11.1569 5.95714 11.1483 5.95714 11.1396C5.95102 10.9784 5.90861 10.8193 5.83255 10.6734C5.82854 10.6658 5.82445 10.6581 5.82027 10.6505C5.74493 10.5137 5.64105 10.3913 5.51429 10.2902C5.49993 10.2788 5.48532 10.2676 5.47046 10.2568C5.34677 10.1665 5.20584 10.0973 5.05451 10.0528C5.02757 10.0448 5.00039 10.0377 4.97301 10.0314C4.82814 9.99798 4.67782 9.9873 4.52857 10C4.50527 9.99988 4.48199 10.0001 4.45875 10.0008C4.44789 10.0011 4.43703 10.0015 4.42619 10.002C4.20438 10.0118 3.98629 10.0572 3.78205 10.136C3.74464 10.1504 3.7077 10.166 3.67129 10.1826C3.63961 10.1971 3.60844 10.2124 3.57781 10.2284C3.51955 10.2589 3.46323 10.2922 3.40908 10.3281C3.25288 10.4316 3.11475 10.5567 3 10.6993L3.54286 11.172C3.56505 11.1434 3.58864 11.1159 3.61353 11.0894C3.68131 11.0173 3.75879 10.9532 3.84411 10.8986C3.88148 10.8747 3.92035 10.8527 3.96057 10.8325C3.9831 10.8212 4.00597 10.8106 4.02915 10.8007C4.17659 10.7373 4.33654 10.7005 4.5 10.6928C4.50798 10.6922 4.51598 10.6917 4.52397 10.6913C4.55044 10.6901 4.57693 10.6907 4.60322 10.6931C4.64218 10.6965 4.68072 10.7038 4.71814 10.7148C4.74524 10.7228 4.77154 10.7327 4.7968 10.7444C4.83708 10.763 4.87474 10.7861 4.90885 10.8133C4.92317 10.8247 4.93678 10.8368 4.94964 10.8495C4.98666 10.8859 5.01747 10.9273 5.04096 10.9722C5.04487 10.9797 5.04858 10.9873 5.05207 10.9949C5.0731 11.0411 5.08626 11.0899 5.0911 11.1396C5.09192 11.1481 5.09252 11.157 5.09286 11.1655ZM5.05896 17.3005C4.98274 17.1486 4.78951 17.0506 4.53456 17.0345C4.5299 17.0342 4.52522 17.0339 4.52052 17.0337C4.50022 17.0326 4.47955 17.0321 4.45853 17.0321C4.44005 17.0328 4.42161 17.0338 4.40323 17.0352C4.36994 17.0378 4.33682 17.0416 4.30395 17.0466C4.22159 17.0593 4.14079 17.0796 4.06281 17.1074C4.04244 17.1146 4.02227 17.1224 4.0023 17.1306C3.98882 17.1362 3.97544 17.142 3.96216 17.148C3.91823 17.168 3.87573 17.1903 3.83486 17.2149C3.76604 17.2562 3.70186 17.3037 3.64328 17.3568C3.61406 17.3834 3.58622 17.4112 3.55991 17.4404L3.08295 16.9811C3.21686 16.8233 3.3802 16.6895 3.5648 16.5858C3.58341 16.5753 3.60224 16.5651 3.62128 16.5553C3.65601 16.5373 3.69143 16.5204 3.7275 16.5046C3.77921 16.4818 3.83195 16.4614 3.88553 16.4434C4.05955 16.3849 4.24244 16.3514 4.42775 16.3443C4.438 16.3439 4.44826 16.3435 4.45853 16.3433C4.48384 16.3427 4.50919 16.3426 4.53456 16.3431C5.37788 16.3431 5.91705 16.7514 5.91705 17.3064C5.91681 17.334 5.91511 17.3614 5.91198 17.3885C5.90949 17.4102 5.90609 17.4318 5.90179 17.4532C5.87498 17.5866 5.81346 17.7129 5.72152 17.8207C5.69766 17.8486 5.672 17.8751 5.64474 17.8998C5.52909 18.0049 5.3846 18.0801 5.22581 18.1167C5.40125 18.1426 5.56391 18.2147 5.69485 18.3232C5.72478 18.348 5.75304 18.3747 5.77943 18.4032C5.88204 18.514 5.95134 18.6465 5.98203 18.7876C5.98926 18.8209 5.99435 18.8547 5.99723 18.8887C5.99901 18.9099 5.99994 18.9311 6 18.9525C6 19.5586 5.41935 19.9988 4.52765 19.9988C4.51613 19.9992 4.50461 19.9995 4.49309 19.9997C4.49102 19.9997 4.48895 19.9998 4.48688 19.9998C4.26498 20.0029 4.04438 19.9714 3.83433 19.9068C3.78662 19.8921 3.73945 19.8757 3.69293 19.8577C3.66882 19.8483 3.64494 19.8385 3.62129 19.8283C3.55115 19.7979 3.48312 19.7639 3.41754 19.7263C3.2634 19.6379 3.1228 19.53 3 19.4055L3.48387 18.9078C3.50646 18.9306 3.52991 18.9526 3.55416 18.9738C3.62088 19.032 3.69366 19.0839 3.7714 19.1287C3.82584 19.1601 3.88272 19.1881 3.94165 19.2123C3.96069 19.2201 3.97989 19.2275 3.99925 19.2345L4.0023 19.2356C4.14334 19.2863 4.29246 19.3153 4.44374 19.3214C4.45985 19.322 4.47694 19.3224 4.49309 19.3225C4.49517 19.3225 4.49725 19.3225 4.49932 19.3225C4.50886 19.3225 4.5183 19.3224 4.52765 19.3222C4.91782 19.3146 5.14312 19.177 5.17919 18.9543L5.17947 18.9525C5.18271 18.9319 5.18433 18.9107 5.18433 18.8887C5.18433 18.8722 5.18346 18.8562 5.18172 18.8407C5.17489 18.7801 5.15463 18.7273 5.12017 18.6823C5.11097 18.6703 5.10076 18.6588 5.08953 18.6479C4.98537 18.5468 4.79301 18.4933 4.50074 18.4873C4.4982 18.4873 4.49565 18.4872 4.49309 18.4872C4.47725 18.4869 4.46112 18.4868 4.4447 18.4868H4.0023V17.8487H4.40323C4.41725 17.8487 4.43107 17.8486 4.4447 17.8483C4.44933 17.8482 4.45394 17.8481 4.45853 17.848C4.47084 17.8476 4.48299 17.8472 4.49497 17.8466C4.75556 17.8341 4.93809 17.7668 5.02881 17.6511C5.04562 17.6297 5.05928 17.6066 5.0697 17.5818C5.0861 17.5429 5.09447 17.5 5.09447 17.4532C5.09447 17.4331 5.09285 17.4137 5.08969 17.3948C5.08448 17.3637 5.07509 17.3342 5.06185 17.3064C5.06091 17.3045 5.05994 17.3025 5.05896 17.3005Z" fill="black" fill-opacity="0.8"/>
<path fill-rule="evenodd" clip-rule="evenodd" d="M8 6C8 5.44772 8.4014 5 8.89655 5H20.1034C20.5986 5 21 5.44772 21 6C21 6.55228 20.5986 7 20.1034 7H8.89655C8.4014 7 8 6.55228 8 6Z" fill="black" fill-opacity="0.8"/>
<path fill-rule="evenodd" clip-rule="evenodd" d="M8 12C8 11.4477 8.4014 11 8.89655 11H20.1034C20.5986 11 21 11.4477 21 12C21 12.5523 20.5986 13 20.1034 13H8.89655C8.4014 13 8 12.5523 8 12Z" fill="black" fill-opacity="0.8"/>
<path fill-rule="evenodd" clip-rule="evenodd" d="M8 18C8 17.4477 8.4014 17 8.89655 17H20.1034C20.5986 17 21 17.4477 21 18C21 18.5523 20.5986 19 20.1034 19H8.89655C8.4014 19 8 18.5523 8 18Z" fill="black" fill-opacity="0.8"/>
</svg>
