<svg width="24" height="24" viewBox="0 0 24 24" fill="none" xmlns="http://www.w3.org/2000/svg">
<path fill-rule="evenodd" clip-rule="evenodd" d="M8.35135 6C8.35135 5.44772 8.7419 5 9.22367 5H20.1277C20.6095 5 21 5.44772 21 6C21 6.55228 20.6095 7 20.1277 7H9.22367C8.7419 7 8.35135 6.55228 8.35135 6Z" fill="black" fill-opacity="0.8"/>
<path fill-rule="evenodd" clip-rule="evenodd" d="M8.35135 12C8.35135 11.4477 8.7419 11 9.22367 11H20.1277C20.6095 11 21 11.4477 21 12C21 12.5523 20.6095 13 20.1277 13H9.22367C8.7419 13 8.35135 12.5523 8.35135 12Z" fill="black" fill-opacity="0.8"/>
<path fill-rule="evenodd" clip-rule="evenodd" d="M8.35135 18C8.35135 17.4477 8.7419 17 9.22367 17H20.1277C20.6095 17 21 17.4477 21 18C21 18.5523 20.6095 19 20.1277 19H9.22367C8.7419 19 8.35135 18.5523 8.35135 18Z" fill="black" fill-opacity="0.8"/>
<path d="M6.89189 6C6.89189 7.10457 6.02066 8 4.94595 8C3.87123 8 3 7.10457 3 6C3 4.89543 3.87123 4 4.94595 4C6.02066 4 6.89189 4.89543 6.89189 6Z" fill="black" fill-opacity="0.8"/>
<path d="M6.89189 12C6.89189 13.1046 6.02066 14 4.94595 14C3.87123 14 3 13.1046 3 12C3 10.8954 3.87123 10 4.94595 10C6.02066 10 6.89189 10.8954 6.89189 12Z" fill="black" fill-opacity="0.8"/>
<path d="M6.89189 18C6.89189 19.1046 6.02066 20 4.94595 20C3.87123 20 3 19.1046 3 18C3 16.8954 3.87123 16 4.94595 16C6.02066 16 6.89189 16.8954 6.89189 18Z" fill="black" fill-opacity="0.8"/>
</svg>
