<svg width="24" height="24" viewBox="0 0 24 24" fill="none" xmlns="http://www.w3.org/2000/svg">
<path fill-rule="evenodd" clip-rule="evenodd" d="M12 2.5C8.96243 2.5 6.5 4.96243 6.5 8V10.3368C7.68247 10.8985 8.5 12.1038 8.5 13.5V14.9998C8.91783 14.686 9.4372 14.5 10 14.5H14C14.5628 14.5 15.0822 14.686 15.5 14.9998V13.5C15.5 12.1038 16.3175 10.8985 17.5 10.3368V8C17.5 4.96243 15.0376 2.5 12 2.5ZM18.5 10.0354V8C18.5 4.41015 15.5899 1.5 12 1.5C8.41015 1.5 5.5 4.41015 5.5 8V10.0354C5.3367 10.0121 5.16976 10 5 10C3.067 10 1.5 11.567 1.5 13.5C1.5 15.1578 2.42936 16.6891 4 16.9582V21C4 21.8284 4.67157 22.5 5.5 22.5H18.5C19.3284 22.5 20 21.8284 20 21V16.9582C21.5706 16.6891 22.5 15.1578 22.5 13.5C22.5 11.567 20.933 10 19 10C18.8302 10 18.6633 10.0121 18.5 10.0354ZM16.5 13.5C16.5 12.1193 17.6193 11 19 11C20.3807 11 21.5 12.1193 21.5 13.5C21.5 14.9869 20.6285 16 19.5 16C19.2239 16 19 16.2239 19 16.5V21C19 21.2761 18.7761 21.5 18.5 21.5H5.5C5.22386 21.5 5 21.2761 5 21V16.5C5 16.2239 4.77614 16 4.5 16C3.37151 16 2.5 14.9869 2.5 13.5C2.5 12.1193 3.61929 11 5 11C6.38071 11 7.5 12.1193 7.5 13.5V18.5C7.5 18.7761 7.72386 19 8 19H16C16.2761 19 16.5 18.7761 16.5 18.5V13.5ZM15.5 17C15.5 16.1716 14.8284 15.5 14 15.5H10C9.17157 15.5 8.5 16.1716 8.5 17V18H15.5V17Z" fill="black" fill-opacity="0.7"/>
</svg>
