<svg width="24" height="24" viewBox="0 0 24 24" fill="none" xmlns="http://www.w3.org/2000/svg">
<path fill-rule="evenodd" clip-rule="evenodd" d="M2.5 2C2.5 1.72386 2.72386 1.5 3 1.5H21C21.2761 1.5 21.5 1.72386 21.5 2V19C21.5 19.2761 21.2761 19.5 21 19.5H20.5V21C20.5 21.8284 19.8284 22.5 19 22.5H18C17.1716 22.5 16.5 21.8284 16.5 21V19.5H7.5V21C7.5 21.8284 6.82843 22.5 6 22.5H5C4.17157 22.5 3.5 21.8284 3.5 21V19.5H3C2.72386 19.5 2.5 19.2761 2.5 19V2ZM3.5 17V18.5H20.5V17H3.5ZM5 16H3.5V2.5H20.5V16H19V8.5C19 8.22386 18.7761 8 18.5 8H12.5V4.5C12.5 4.22386 12.2761 4 12 4H5.5C5.22386 4 5 4.22386 5 4.5V16ZM6 16H11.5V13H6V16ZM6 12H11.5V9H6V12ZM6 8H11.5V5H6V8ZM12.5 9V12H18V9H12.5ZM18 13H12.5V16H18V13ZM19.5 19.5H17.5V21C17.5 21.2761 17.7239 21.5 18 21.5H19C19.2761 21.5 19.5 21.2761 19.5 21V19.5ZM6.5 19.5H4.5V21C4.5 21.2761 4.72386 21.5 5 21.5H6C6.27614 21.5 6.5 21.2761 6.5 21V19.5Z" fill="black" fill-opacity="0.7"/>
</svg>
