<svg width="24" height="24" viewBox="0 0 24 24" fill="none" xmlns="http://www.w3.org/2000/svg">
<path fill-rule="evenodd" clip-rule="evenodd" d="M8.52658 3.25281L9.95929 6.7478L11.2998 5.86308C11.1473 5.64148 10.9441 5.34697 10.7144 5.01657C10.2149 4.29786 9.59307 3.41319 9.09725 2.73927C8.99361 2.5984 8.92276 2.53867 8.88526 2.51413C8.86566 2.53223 8.8343 2.56647 8.79297 2.62942C8.70223 2.76762 8.62462 2.95408 8.56752 3.12335C8.55153 3.17074 8.53787 3.21459 8.52658 3.25281ZM12.7002 5.86308L14.0407 6.7478L15.4734 3.25281C15.4621 3.21459 15.4485 3.17074 15.4325 3.12335C15.3754 2.95408 15.2978 2.76762 15.207 2.62942C15.1657 2.56647 15.1343 2.53223 15.1147 2.51414C15.0772 2.53867 15.0064 2.5984 14.9027 2.73927C14.4069 3.41319 13.7851 4.29786 13.2856 5.01657C13.0559 5.34697 12.8527 5.64148 12.7002 5.86308ZM16.2913 3.89401L14.7354 7.68967C14.6786 7.82802 14.563 7.93373 14.4201 7.9778C14.2772 8.02188 14.1221 7.99969 13.9973 7.91732L13.8636 7.8291V12.5C13.8636 12.7762 13.6398 13 13.3636 13H11.5455C11.2693 13 11.0455 12.7762 11.0455 12.5C11.0455 12.2239 11.2693 12 11.5455 12H12.8636V7.1691L12 6.5991L10.0027 7.91732C9.8779 7.99969 9.72278 8.02188 9.5799 7.9778C9.43701 7.93373 9.32135 7.82802 9.26464 7.68967L7.71551 3.91071C6.22631 4.45144 4.93911 5.28715 3.99439 6.02162C3.47849 6.4227 3.06929 6.79 2.79017 7.05587C2.72776 7.11532 2.67191 7.16964 2.62288 7.21808L4.66517 10.7334L6.72265 9.36177C6.87608 9.25949 7.07335 9.24995 7.23593 9.33696C7.39851 9.42397 7.5 9.5934 7.5 9.7778C7.5 11.3911 7.37431 14.459 7.24945 17.1119C7.18689 18.4409 7.12435 19.6697 7.07744 20.5662C7.05782 20.9413 7.04093 21.2582 7.02793 21.5H16.9721C16.9591 21.2582 16.9422 20.9413 16.9226 20.5662C16.8757 19.6697 16.8131 18.4409 16.7506 17.1119C16.6257 14.459 16.5 11.3911 16.5 9.7778C16.5 9.60064 16.5937 9.43671 16.7464 9.34686C16.8991 9.25702 17.088 9.25468 17.2428 9.34072L19.7731 10.7464L21.4155 7.21246C21.3704 7.15949 21.3168 7.09824 21.2548 7.02994C21.0186 6.76976 20.6607 6.40816 20.1816 6.01237C19.2948 5.27987 17.9979 4.43452 16.2913 3.89401ZM22 7.14126L22.4045 6.84742C22.5112 6.99427 22.5299 7.1874 22.4534 7.352L20.4534 11.6552C20.3949 11.7811 20.2866 11.877 20.1546 11.92C20.0225 11.9629 19.8786 11.949 19.7572 11.8815L17.5088 10.6325C17.5394 12.3165 17.6441 14.8269 17.7494 17.0649C17.8119 18.3916 17.8743 19.6186 17.9212 20.514C17.9446 20.9616 17.9641 21.3263 17.9778 21.5791L17.9992 21.972C18.0068 22.1092 17.9576 22.2438 17.8632 22.3436C17.7688 22.4435 17.6374 22.5 17.5 22.5H6.5C6.36259 22.5 6.23124 22.4435 6.1368 22.3436C6.04236 22.2438 5.99316 22.1096 6.00077 21.9724L6.02221 21.5791C6.03587 21.3263 6.05539 20.9616 6.07881 20.514C6.12565 19.6186 6.1881 18.3916 6.25055 17.0649C6.3541 14.865 6.45708 12.4017 6.48953 10.719L4.77735 11.8605C4.66256 11.937 4.52125 11.9627 4.38686 11.9315C4.25248 11.9003 4.13697 11.8149 4.06766 11.6956L1.56766 7.39243C1.45822 7.20404 1.48336 6.96646 1.62982 6.80516L2 7.14126C1.62982 6.80516 1.62972 6.80527 1.62982 6.80516L1.63093 6.80393L1.63297 6.80171L1.63977 6.7943L1.66422 6.76804C1.68529 6.74557 1.71585 6.71336 1.75554 6.67248C1.83491 6.59075 1.95085 6.47429 2.10045 6.33179C2.39946 6.04697 2.83401 5.65709 3.38061 5.23214C4.41817 4.4255 5.87613 3.47947 7.59037 2.89464C7.59943 2.86579 7.6093 2.83537 7.61998 2.8037C7.68788 2.60245 7.79777 2.32317 7.95703 2.08059C8.10133 1.86082 8.37333 1.53821 8.80291 1.50301C8.87058 1.49747 8.93627 1.49939 9 1.50794V1.50002H15V1.50794C15.0637 1.49939 15.1294 1.49747 15.1971 1.50301C15.6267 1.53821 15.8987 1.86082 16.043 2.08059C16.2022 2.32317 16.3121 2.60245 16.38 2.8037C16.3893 2.83112 16.3979 2.85761 16.4059 2.88295C18.3526 3.46634 19.8233 4.41937 20.8184 5.24139C21.3393 5.67162 21.7314 6.06722 21.9952 6.35772C22.1271 6.50305 22.2272 6.62232 22.2953 6.70678C22.3294 6.74902 22.3556 6.78258 22.3738 6.80637L22.3951 6.83462L22.4013 6.843L22.4033 6.84571L22.4045 6.84742C22.4047 6.84759 22.4045 6.84742 22 7.14126ZM13.8395 2.50002H10.1605C10.6101 3.12128 11.1174 3.84424 11.5356 4.44583C11.7088 4.69507 11.8671 4.92395 12 5.11677C12.1329 4.92395 12.2912 4.69507 12.4644 4.44583C12.8826 3.84424 13.3899 3.12128 13.8395 2.50002ZM8.48744 3.39783C8.4874 3.39799 8.48742 3.39793 8.48744 3.39783V3.39783Z" fill="black" fill-opacity="0.7"/>
<mask id="path-2-inside-1" fill="white">
<path d="M12.5 8.5C12.5 8.77614 12.2761 9 12 9C11.7239 9 11.5 8.77614 11.5 8.5C11.5 8.22386 11.7239 8 12 8C12.2761 8 12.5 8.22386 12.5 8.5Z"/>
<path d="M12.5 10.5C12.5 10.7761 12.2761 11 12 11C11.7239 11 11.5 10.7761 11.5 10.5C11.5 10.2239 11.7239 10 12 10C12.2761 10 12.5 10.2239 12.5 10.5Z"/>
</mask>
<path d="M12.5 8.5C12.5 8.77614 12.2761 9 12 9C11.7239 9 11.5 8.77614 11.5 8.5C11.5 8.22386 11.7239 8 12 8C12.2761 8 12.5 8.22386 12.5 8.5Z" fill="black" fill-opacity="0.7"/>
<path d="M12.5 10.5C12.5 10.7761 12.2761 11 12 11C11.7239 11 11.5 10.7761 11.5 10.5C11.5 10.2239 11.7239 10 12 10C12.2761 10 12.5 10.2239 12.5 10.5Z" fill="black" fill-opacity="0.7"/>
<path d="M11.5 8.5C11.5 8.22386 11.7239 8 12 8V10C12.8284 10 13.5 9.32843 13.5 8.5H11.5ZM12 8C12.2761 8 12.5 8.22386 12.5 8.5H10.5C10.5 9.32843 11.1716 10 12 10V8ZM12.5 8.5C12.5 8.77614 12.2761 9 12 9V7C11.1716 7 10.5 7.67157 10.5 8.5H12.5ZM12 9C11.7239 9 11.5 8.77614 11.5 8.5H13.5C13.5 7.67157 12.8284 7 12 7V9ZM11.5 10.5C11.5 10.2239 11.7239 10 12 10V12C12.8284 12 13.5 11.3284 13.5 10.5H11.5ZM12 10C12.2761 10 12.5 10.2239 12.5 10.5H10.5C10.5 11.3284 11.1716 12 12 12V10ZM12.5 10.5C12.5 10.7761 12.2761 11 12 11V9C11.1716 9 10.5 9.67157 10.5 10.5H12.5ZM12 11C11.7239 11 11.5 10.7761 11.5 10.5H13.5C13.5 9.67157 12.8284 9 12 9V11Z" fill="black" fill-opacity="0.7" mask="url(#path-2-inside-1)"/>
</svg>
