<svg width="24" height="24" viewBox="0 0 24 24" fill="none" xmlns="http://www.w3.org/2000/svg">
<path fill-rule="evenodd" clip-rule="evenodd" d="M6 2.5C4.61929 2.5 3.5 3.61929 3.5 5V12.8096C3.8159 12.5064 4.16237 12.2349 4.53431 12H4.5V10C4.5 8.61929 5.61929 7.5 7 7.5H10C10.8178 7.5 11.5439 7.89267 12 8.49976C12.4561 7.89267 13.1822 7.5 14 7.5H17C18.3807 7.5 19.5 8.61929 19.5 10V12H19.4657C19.8376 12.2349 20.1841 12.5064 20.5 12.8096V5C20.5 3.61929 19.3807 2.5 18 2.5H6ZM21.4989 14.0326C21.4996 14.0219 21.5 14.011 21.5 14V5C21.5 3.067 19.933 1.5 18 1.5H6C4.067 1.5 2.5 3.067 2.5 5V14H2.52182C1.875 15.0103 1.5 16.2114 1.5 17.5V22C1.5 22.2761 1.72386 22.5 2 22.5H4C4.27614 22.5 4.5 22.2761 4.5 22V20.5H19.5V22C19.5 22.2761 19.7239 22.5 20 22.5H22C22.2761 22.5 22.5 22.2761 22.5 22V17.5C22.5 16.2252 22.133 15.0361 21.4989 14.0326ZM18.5 11.4982V10C18.5 9.17157 17.8284 8.5 17 8.5H14C13.1716 8.5 12.5 9.17157 12.5 10V11H16C16.8859 11 17.7304 11.1772 18.5 11.4982ZM11.5 11V10C11.5 9.17157 10.8284 8.5 10 8.5H7C6.17157 8.5 5.5 9.17157 5.5 10V11.4982C6.26959 11.1772 7.1141 11 8 11H11.5ZM8 12C4.96243 12 2.5 14.4624 2.5 17.5H21.5C21.5 14.4624 19.0376 12 16 12H8ZM21.5 18.5H2.5V21.5H3.5V20C3.5 19.7239 3.72386 19.5 4 19.5H20C20.2761 19.5 20.5 19.7239 20.5 20V21.5H21.5V18.5Z" fill="black" fill-opacity="0.7"/>
</svg>
