<svg width="24" height="24" fill="none" xmlns="http://www.w3.org/2000/svg"><path fill-rule="evenodd" clip-rule="evenodd" d="M9 2l-.35355-.35355c-.19527.19526-.19527.51184 0 .7071.19518.19518.51157.19527.70686.00025l-.00109.00108c-.00025.00024-.00022.00022 0 0M9 2c-.35355-.35355-.35369-.35342-.35355-.35355l.00122-.00122.00161-.00159.00433-.00426.01316-.01268c.01075-.01024.02545-.02398.04399-.04072.03704-.03346.08956-.07905.15658-.13266.13374-.107.32703-.24741.57209-.38744C9.92746.787002 10.6381.5 11.5.5c2.0343 0 4 1.63657 4 4v4.00001C15.5 8.77615 15.2761 9 15 9s-.5-.22386-.5-.50001V4.5c0-1.7603-1.4657-3-3-3-.6381 0-1.1775.213-1.56443.43412-.19245.10997-.3429.21956-.44354.30006-.05016.04014-.08749.07267-.11099.0939-.01174.0106-.01998.01835-.02462.02276l-.0042.00404m-4.70577-.70844c.19526-.19526.51184-.19526.7071 0L19.3536 15.6464c.1952.1953.1952.5119 0 .7072-.1953.1952-.5119.1952-.7072 0L4.64645 2.35355c-.19527-.19526-.19527-.51185 0-.70711zM5 7.49999c.27614 0 .5.22386.5.5V12.5c0 1.4419.68279 2.9471 1.79672 4.0976C8.40849 17.7459 9.90983 18.5 11.5 18.5c1.3828 0 2.413-.4596 3.0977-.916.3433-.2289.5993-.4569.7675-.6251.084-.0839.1456-.1526.1849-.1984.0196-.0228.0336-.04.0419-.0504l.0083-.0105c.1657-.2206.4789-.2652.6997-.0996.2209.1657.2657.4791.1.7L16 17c.4.3.4002.2998.4.3l-.0014.0019-.002.0026-.0056.0073-.0181.023c-.0151.0189-.0363.0447-.0636.0765-.0545.0636-.1335.1512-.237.2548-.2068.2068-.5133.4788-.92.7499-.729.4861-1.7815.9696-3.1523 1.0665V23c0 .2761-.2239.5-.5.5s-.5-.2239-.5-.5v-3.5206c-1.7137-.1412-3.2696-.9962-4.42172-2.1862C5.31721 15.9907 4.5 14.2459 4.5 12.5V7.99999c0-.27614.22386-.5.5-.5zm2.99995 0c.27615 0 .5.22386.5.5V12.5c0 1.6433 1.47815 3 3.00005 3 .9125 0 1.4386-.2267 1.7226-.416.1444-.0962.234-.188.2839-.2478.0251-.0301.0403-.0525.0475-.0636.002-.0031.0034-.0053.0041-.0066.1267-.2394.422-.335.6655-.2132.247.1235.3471.4238.2236.6708L14 15c.4472.2236.4474.2232.4472.2236l-.0007.0015-.0008.0015-.0017.0034-.0041.0078c-.0031.0057-.0067.0124-.011.0199-.0086.0152-.0197.0339-.0337.0556-.028.0436-.0674.0994-.1205.163-.1063.1277-.2667.2859-.4973.4397-.466.3107-1.1899.584-2.2774.584-2.04671 0-4.00005-1.7773-4.00005-4V7.99999c0-.27614.22386-.5.5-.5zm10.00005 0c.2761 0 .5.22386.5.5V12c0 .2761-.2239.5-.5.5s-.5-.2239-.5-.5V7.99999c0-.27614.2239-.5.5-.5z" fill="#000" fill-opacity=".7"/></svg>