<svg width="24" height="24" fill="none" xmlns="http://www.w3.org/2000/svg"><path fill-rule="evenodd" clip-rule="evenodd" d="M11.5001 1.5c-1.53433 0-3.00006 1.2397-3.00006 3.00001L8.50001 12.5c0 1.6433 1.47815 3 3.00009 3 1.5219 0 3-1.3567 3-3V8.50684 4.5c0-1.7603-1.4658-3-3-3zm4 6.49362V4.5c0-2.36343-1.9657-4-4-4-.8619 0-1.57258.287002-2.06061.56588-.24506.14003-.43835.28044-.57209.38744-.06702.05361-.11954.0992-.15658.13266-.01854.01674-.03324.03048-.04399.04072l-.01316.01268-.00433.00426-.00161.00159-.00095.00095c-.00006.00005-.00012.00011.02772.02804.00003-.00003-.00004.00004 0 0l-.02772-.02804c-.05127.05126-.08935.11116-.11369.17476-.62999.68767-1.03305 1.60885-1.03305 2.67907L7.50001 12.5c0 2.2227 1.95334 4 4.00009 4 2.0467 0 4-1.7773 4-4V7.99999v-.00637zM9.35225 2.35491c-.00025.00024-.00023.00022 0 0zM5 7.49999c.27614 0 .5.22386.5.5V12.5c0 1.4419.68279 2.9471 1.79672 4.0976C8.40849 17.7459 9.90983 18.5 11.5 18.5c1.5902 0 3.0915-.7541 4.2033-1.9024C16.8172 15.4471 17.5 13.9419 17.5 12.5V7.99999c0-.27614.2239-.5.5-.5s.5.22386.5.5V12.5c0 1.7459-.8172 3.4907-2.0783 4.7932-1.1521 1.19-2.708 2.045-4.4217 2.1862V23c0 .2761-.2239.5-.5.5s-.5-.2239-.5-.5v-3.5206c-1.7137-.1412-3.26961-.9962-4.42172-2.1862C5.31721 15.9907 4.5 14.2459 4.5 12.5V7.99999c0-.27614.22386-.5.5-.5z" fill="#000" fill-opacity=".7"/></svg>