<svg width="24" height="24" viewBox="0 0 24 24" fill="none" xmlns="http://www.w3.org/2000/svg">
  <path fill-rule="evenodd" clip-rule="evenodd" d="M11.5 3C6.25329 3 2 7.25329 2 12.5c0 5.2467 4.25329 9.5 9.5 9.5 5.2467 0 9.5-4.2533 9.5-9.5C21 7.25329 16.7467 3 11.5 3zM1 12.5C1 6.70101 5.70101 2 11.5 2 17.299 2 22 6.70101 22 12.5 22 18.299 17.299 23 11.5 23 5.70101 23 1 18.299 1 12.5z" fill="#000" fill-opacity=".7"/>
  <path d="M17 12H6c-.27614 0-.5.2239-.5.5s.22386.5.5.5h11c.2761 0 .5-.2239.5-.5s-.2239-.5-.5-.5z" fill="#000" fill-opacity=".7"/>
</svg>
