<svg width="24" height="24" viewBox="0 0 24 24" fill="none" xmlns="http://www.w3.org/2000/svg">
<path fill-rule="evenodd" clip-rule="evenodd" d="M4.5 3C4.5 1.61929 5.61929 0.5 7 0.5H17C18.3807 0.5 19.5 1.61929 19.5 3V17.999C19.5 17.9993 19.5 17.9987 19.5 17.999C19.5 17.9993 19.5 18.0007 19.5 18.001V21C19.5 22.3807 18.3807 23.5 17 23.5H7C5.61929 23.5 4.5 22.3807 4.5 21V3ZM5.5 18.5V21C5.5 21.8284 6.17157 22.5 7 22.5H17C17.8284 22.5 18.5 21.8284 18.5 21V18.5H5.5ZM18.5 17.5H5.5V3C5.5 2.17157 6.17157 1.5 7 1.5H17C17.8284 1.5 18.5 2.17157 18.5 3V17.5ZM8.5 3.5C8.5 3.22386 8.72386 3 9 3H15C15.2761 3 15.5 3.22386 15.5 3.5C15.5 3.77614 15.2761 4 15 4H9C8.72386 4 8.5 3.77614 8.5 3.5ZM10.5 20.5C10.5 20.2239 10.7239 20 11 20H13C13.2761 20 13.5 20.2239 13.5 20.5C13.5 20.7761 13.2761 21 13 21H11C10.7239 21 10.5 20.7761 10.5 20.5Z" fill="black" fill-opacity="0.7"/>
</svg>
