<svg width="24" height="24" viewBox="0 0 24 24" fill="none" xmlns="http://www.w3.org/2000/svg">
<path fill-rule="evenodd" clip-rule="evenodd" d="M5.50009 1.5C4.67167 1.5 4.00009 2.17157 4.00009 3C4.00009 3.82843 4.67167 4.5 5.50009 4.5C6.32851 4.5 7.00009 3.82843 7.00009 3C7.00009 2.17157 6.32851 1.5 5.50009 1.5ZM3.00009 3C3.00009 1.61929 4.11938 0.5 5.50009 0.5C6.8808 0.5 8.00009 1.61929 8.00009 3C8.00009 4.38071 6.8808 5.5 5.50009 5.5C4.11938 5.5 3.00009 4.38071 3.00009 3ZM1.50001 8.50002C1.50001 7.11931 2.6193 6.00002 4.00001 6.00002H7C8.38071 6.00002 9.5 7.11931 9.5 8.50002V13.5028C9.5 14.3292 8.83041 14.9993 8.00414 15V21C8.00414 21.599 7.8981 22.2113 7.58407 22.6889C7.24904 23.1985 6.71204 23.5 6 23.5H5.00001C4.28769 23.5 3.75155 23.1982 3.41787 22.6878C3.10552 22.2101 3.00114 21.598 3.00113 21.0001C3.00113 21.0001 3.00113 21.0001 3.00113 21.0001L3.00009 15C2.17163 15 1.5 14.3284 1.5 13.4999L1.50001 8.50002ZM4.00001 7.00002C3.17158 7.00002 2.50001 7.67159 2.50001 8.50002L2.5 13.4999C2.5 13.7761 2.72389 14 3.00006 14C3.5523 14 4 14.4476 4.00009 14.9999L4.00113 20.9999C4.00113 21.5066 4.09391 21.8945 4.25484 22.1406C4.39446 22.3541 4.60775 22.5 5.00001 22.5H6C6.39253 22.5 6.6076 22.3538 6.7485 22.1395C6.9104 21.8933 7.00414 21.5056 7.00414 21V14.9986C7.00414 14.4471 7.45124 14 8.00276 14C8.27738 14 8.5 13.7774 8.5 13.5028V8.50002C8.5 7.67159 7.82843 7.00002 7 7.00002H4.00001ZM13.7854 8.64647C13.8803 8.74138 13.933 8.87044 13.9318 9.00464L13.902 12.2195H18.6316C18.9078 12.2195 19.1316 12.4433 19.1316 12.7195V16.5484L20.5324 16.548C20.665 16.5479 20.7923 16.6006 20.8861 16.6944C20.9799 16.7882 21.0326 16.9154 21.0326 17.048L21.0326 21.0296L21.9954 21.0208C22.2716 21.0183 22.4975 21.2401 22.5 21.5162C22.5025 21.7923 22.2807 22.0182 22.0046 22.0207L15.1361 22.0834C14.9145 22.8906 14.1801 23.492 13.3065 23.4999C12.2557 23.5095 11.4156 22.6573 11.4254 21.608C11.4335 20.7355 12.0268 19.9934 12.8319 19.7692L12.8572 17.0501C12.8572 17.0482 12.8572 17.0462 12.8572 17.0443L12.9271 9.50462L11.0046 9.52215C10.7284 9.52467 10.5025 9.30286 10.5 9.02673C10.4975 8.7506 10.7193 8.52471 10.9954 8.52219L13.4273 8.50002C13.5615 8.4988 13.6905 8.55157 13.7854 8.64647ZM13.8525 17.5498L13.832 19.7649C14.4709 19.9384 14.9695 20.4428 15.1406 21.0833L20.0326 21.0387L20.0326 17.5481L13.8525 17.5498ZM13.8618 16.5498L13.8927 13.2195H18.1316V16.5486L13.8618 16.5498ZM14.2046 21.5826C14.2092 21.0856 13.8166 20.6955 13.3325 20.6999C12.841 20.7044 12.43 21.1132 12.4253 21.6173C12.4207 22.1143 12.8133 22.5044 13.2974 22.5C13.7889 22.4955 14.1999 22.0867 14.2046 21.5826Z" fill="black" fill-opacity="0.7"/>
</svg>
