<svg width="24" height="24" viewBox="0 0 24 24" fill="none" xmlns="http://www.w3.org/2000/svg">
<path d="M16.5 8.5C16.5 8.77614 16.7239 9 17 9C17.2761 9 17.5 8.77614 17.5 8.5H16.5ZM17 2H17.5C17.5 1.72386 17.2761 1.5 17 1.5V2ZM3 2V1.5C2.72386 1.5 2.5 1.72386 2.5 2H3ZM3 22H2.5C2.5 22.2761 2.72386 22.5 3 22.5V22ZM17 22V22.5C17.2761 22.5 17.5 22.2761 17.5 22H17ZM17.5 17.5C17.5 17.2239 17.2761 17 17 17C16.7239 17 16.5 17.2239 16.5 17.5H17.5ZM6 4.5C5.72386 4.5 5.5 4.72386 5.5 5C5.5 5.27614 5.72386 5.5 6 5.5V4.5ZM14 5.5C14.2761 5.5 14.5 5.27614 14.5 5C14.5 4.72386 14.2761 4.5 14 4.5V5.5ZM18.7273 9.00001L19.0808 8.64646C18.8856 8.4512 18.569 8.4512 18.3737 8.64646L18.7273 9.00001ZM21 11.2727L21.3536 11.6263C21.5488 11.431 21.5488 11.1144 21.3536 10.9192L21 11.2727ZM12.3636 15.3636L12.0101 15.0101C11.9596 15.0606 11.9205 15.1213 11.8955 15.1881L12.3636 15.3636ZM11 19L10.5318 18.8244C10.463 19.008 10.5078 19.2149 10.6465 19.3536C10.7851 19.4922 10.992 19.537 11.1756 19.4682L11 19ZM14.6364 17.6364L14.8119 18.1045C14.8788 18.0795 14.9395 18.0404 14.9899 17.9899L14.6364 17.6364ZM6 7C5.72386 7 5.5 7.22386 5.5 7.5C5.5 7.77614 5.72386 8 6 8V7ZM14 8C14.2761 8 14.5 7.77614 14.5 7.5C14.5 7.22386 14.2761 7 14 7V8ZM6 9.5C5.72386 9.5 5.5 9.72386 5.5 10C5.5 10.2761 5.72386 10.5 6 10.5V9.5ZM12.5 10.5C12.7761 10.5 13 10.2761 13 10C13 9.72386 12.7761 9.5 12.5 9.5V10.5ZM17.5 8.5V2H16.5V8.5H17.5ZM17 1.5H3V2.5H17V1.5ZM2.5 2V22H3.5V2H2.5ZM3 22.5H17V21.5H3V22.5ZM17.5 22V17.5H16.5V22H17.5ZM6 5.5H14V4.5H6V5.5ZM18.3737 9.35356L20.6465 11.6263L21.3536 10.9192L19.0808 8.64646L18.3737 9.35356ZM12.7172 15.7172L19.0808 9.35356L18.3737 8.64646L12.0101 15.0101L12.7172 15.7172ZM11.8955 15.1881L10.5318 18.8244L11.4682 19.1756L12.8318 15.5392L11.8955 15.1881ZM20.6465 10.9192L14.2828 17.2828L14.9899 17.9899L21.3536 11.6263L20.6465 10.9192ZM6 8H14V7H6V8ZM6 10.5H12.5V9.5H6V10.5ZM11.1756 19.4682L12.9938 18.7864L12.6426 17.85L10.8244 18.5318L11.1756 19.4682ZM12.9938 18.7864L14.8119 18.1045L14.4608 17.1682L12.6426 17.85L12.9938 18.7864Z" fill="black" fill-opacity="0.7"/>
</svg>
