<svg width="24" height="24" viewBox="0 0 24 24" fill="none" xmlns="http://www.w3.org/2000/svg"><path fill-rule="evenodd" clip-rule="evenodd" d="M3.64227 9.59458c-.01287-.01617-.02474-.03313-.03553-.0508-.5886-.96363-.80821-2.11963-.63409-3.27308.09556-.63308.48932-1.39325.91437-2.05307.43478-.67491.95206-1.32019 1.36634-1.73445l.66913-.66913c.38375-.38375.89705-.61722 1.43383-.6397.5387-.02256 1.05928.17019 1.43813.54903L11.3872 4.3161c.3788.37884.5716.89943.549 1.43813-.0225.53678-.2559 1.05008-.6397 1.43383-.1243.12431-.4027.4519-.6533.80168-.124.17318-.2328.34014-.3093.48053-.0592.10884-.0809.16952-.0885.19071-.0039.0108-.004.01134-.0037.00276-.0114.27328.0858.5179.257.68917l4.1484 4.14839c.1713.1712.4159.2684.6892.257-.0086.0003-.0081.0001.0027-.0037.0212-.0076.0819-.0293.1907-.0886.1404-.0764.3074-.1852.4806-.3093.3497-.2505.6773-.5289.8016-.6532.3838-.3838.8971-.6172 1.4339-.6397.5387-.0226 1.0593.1702 1.4381.549l2.5927 2.5927c.3789.3789.5716.8995.549 1.4382-.0224.5368-.2559 1.0501-.6397 1.4338l-.669.6691s0-.0001 0 0c-.4143.4147-1.0596.9324-1.7346 1.3675-.6599.4254-1.4203.8194-2.0536.9152-1.154.1746-2.3106-.0449-3.2747-.6338-.0178-.0108-.0348-.0227-.051-.0356-4.2986-2.8115-7.95099-6.4654-10.76073-10.76532zm.8176-.57692C7.20317 13.2249 10.7742 16.7975 14.9803 19.5425c.0093.0061.0184.0124.0272.0191.7467.4454 1.651.6183 2.5716.479.4107-.0621 1.0202-.3537 1.6614-.767.6262-.4037 1.2135-.8779 1.569-1.2338l.6693-.6694c.2145-.2145.3362-.4934.3477-.7686.0115-.2733-.0857-.5179-.257-.6891l-2.5927-2.5928c-.1713-.1712-.4159-.2684-.6892-.257-.2752.0115-.5541.1332-.7686.3477-.1748.1748-.5483.4883-.9264.7591-.1908.1367-.3944.2709-.5844.3745-.1661.0904-.4017.2036-.6301.2132-.5387.0226-1.0593-.1702-1.4381-.549L9.79162 10.06c-.37884-.37882-.57159-.89941-.54903-1.43811.00957-.2284.12276-.46398.21324-.63006.10352-.18999.23781-.39365.37445-.58441.27082-.3781.58432-.75167.75912-.92647.2144-.21445.3361-.49338.3477-.76857.0114-.27328-.0858-.5179-.257-.68917L8.08734 2.43049c-.17127-.17127-.41589-.26846-.68917-.25701-.27519.01152-.55412.13323-.76857.34768l-.66915.66914c-.35556.35554-.82945.94282-1.23276 1.56889-.41304.64116-.7043 1.25039-.76624 1.66077-.1389.92015.034 1.82393.47918 2.57024.00672.00893.01314.01809.01924.02746z" fill="#000" fill-opacity=".7"/></svg>