<svg width="24" height="24" viewBox="0 0 24 24" fill="none" xmlns="http://www.w3.org/2000/svg">
<path fill-rule="evenodd" clip-rule="evenodd" d="M3.5 4C3.5 3.72386 3.72386 3.5 4 3.5H12C12.2761 3.5 12.5 3.72386 12.5 4C12.5 4.27614 12.2761 4.5 12 4.5H4.5V19.5H19.5V12C19.5 11.7239 19.7239 11.5 20 11.5C20.2761 11.5 20.5 11.7239 20.5 12V20C20.5 20.2761 20.2761 20.5 20 20.5H4C3.72386 20.5 3.5 20.2761 3.5 20V4ZM15.5 4C15.5 3.72386 15.7239 3.5 16 3.5H20C20.2761 3.5 20.5 3.72386 20.5 4V8C20.5 8.27614 20.2761 8.5 20 8.5C19.7239 8.5 19.5 8.27614 19.5 8V5.20711L12.3536 12.3536C12.1583 12.5488 11.8417 12.5488 11.6464 12.3536C11.4512 12.1583 11.4512 11.8417 11.6464 11.6464L18.7929 4.5H16C15.7239 4.5 15.5 4.27614 15.5 4Z" fill="black" fill-opacity="0.7"/>
</svg>
