<svg width="24" height="24" viewBox="0 0 24 24" fill="none" xmlns="http://www.w3.org/2000/svg">
<path fill-rule="evenodd" clip-rule="evenodd" d="M3.5 2C3.5 1.72386 3.72386 1.5 4 1.5H20C20.2761 1.5 20.5 1.72386 20.5 2V22C20.5 22.2761 20.2761 22.5 20 22.5H16.5C16.2239 22.5 16 22.2761 16 22V21H14.5V22C14.5 22.2761 14.2761 22.5 14 22.5H10C9.72386 22.5 9.5 22.2761 9.5 22V21H8V22C8 22.2761 7.77614 22.5 7.5 22.5H4C3.72386 22.5 3.5 22.2761 3.5 22V2ZM4.5 2.5V7H11.5V2.5H4.5ZM12.5 2.5V7H19.5V2.5H12.5ZM19.5 8H12.5V12.5H19.5V8ZM19.5 13.5H12.5V18H19.5V13.5ZM19.5 19H4.5V21.5H7V20.5C7 20.2239 7.22386 20 7.5 20H10C10.2761 20 10.5 20.2239 10.5 20.5V21.5H13.5V20.5C13.5 20.2239 13.7239 20 14 20H16.5C16.7761 20 17 20.2239 17 20.5V21.5H19.5V19ZM4.5 18H11.5V13.5H4.5V18ZM4.5 12.5H11.5V8H4.5V12.5Z" fill="black" fill-opacity="0.7"/>
</svg>
