<svg width="24" height="24" viewBox="0 0 24 24" fill="none" xmlns="http://www.w3.org/2000/svg">
<path fill-rule="evenodd" clip-rule="evenodd" d="M6.5 3C6.5 2.72386 6.72386 2.5 7 2.5H17C17.2761 2.5 17.5 2.72386 17.5 3V9.5H22C22.2761 9.5 22.5 9.72386 22.5 10V16.5H23C23.2761 16.5 23.5 16.7239 23.5 17V21C23.5 21.2761 23.2761 21.5 23 21.5H19C18.7239 21.5 18.5 21.2761 18.5 21V20H14.5V21C14.5 21.2761 14.2761 21.5 14 21.5H10C9.72386 21.5 9.5 21.2761 9.5 21V20H5.5V21C5.5 21.2761 5.27614 21.5 5 21.5H1C0.723858 21.5 0.5 21.2761 0.5 21V17C0.5 16.7239 0.723858 16.5 1 16.5H1.5V10C1.5 9.72386 1.72386 9.5 2 9.5H6.5V3ZM7.5 9.5H16.5V3.5H7.5V9.5ZM2.5 10.5V16.5H11.5V10.5H2.5ZM12.5 10.5V16.5H21.5V10.5H12.5ZM1.5 17.5V20.5H4.5V19.5C4.5 19.2239 4.72386 19 5 19H10C10.2761 19 10.5 19.2239 10.5 19.5V20.5H13.5V19.5C13.5 19.2239 13.7239 19 14 19H19C19.2761 19 19.5 19.2239 19.5 19.5V20.5H22.5V17.5H1.5Z" fill="black" fill-opacity="0.7"/>
</svg>
