<svg width="24" height="24" viewBox="0 0 24 24" fill="none" xmlns="http://www.w3.org/2000/svg"><path fill-rule="evenodd" clip-rule="evenodd" d="M4.33511 3.53554C2.71365 5.157 2.60258 7.45985 3.8327 8.68997L15.4441 20.3014c.9151.915 1.6711 1.2864 2.3187 1.3127.635.0257 1.2967-.2761 2.0403-1.0196.7435-.7435 1.0448-1.4047 1.0171-2.0414-.0283-.6503-.4045-1.4118-1.3305-2.3379L9.84733 6.57288c-.64661-.64661-1.73291-.64554-2.42666.04821-.69375.69376-.69483 1.78005-.04821 2.42667l7.71394 7.71384c.1952.1953.1952.5119 0 .7072-.1953.1952-.5119.1952-.7072 0L6.66535 9.75486c-1.05749-1.05749-1.01539-2.77726.04821-3.84087 1.06361-1.06361 2.78339-1.10571 3.84084-.04821l9.6424 9.64232c1.0025 1.0025 1.5784 1.9886 1.6225 3.0016.0446 1.0267-.4616 1.9444-1.3091 2.7919-.8475.8475-1.7646 1.3532-2.7879 1.3117-1.0106-.041-1.9921-.6116-2.9853-1.6048L3.12559 9.39708c-1.72964-1.72964-1.39083-4.6754.50242-6.56865s4.839-2.232059 6.56869-.50242l9.6626 9.66269c.1953.1952.1953.5118 0 .7071-.1952.1952-.5118.1952-.7071 0L9.48955 3.03312C8.25943 1.803 5.95658 1.91407 4.33511 3.53554z" fill="#000" fill-opacity=".7"/></svg>