<svg width="24" height="24" viewBox="0 0 24 24" fill="none" xmlns="http://www.w3.org/2000/svg">
<path fill-rule="evenodd" clip-rule="evenodd" d="M2.51784 10H7.51429C7.62454 8.04435 8.35753 6.04924 9.18476 4.51295C9.59093 3.75864 10.0282 3.09924 10.4413 2.59667C5.77664 3.18819 2.77422 6.41231 2.51784 10ZM12 1.5C5.77865 1.5 1.5 5.67208 1.5 10.5C1.5 10.7761 1.72386 11 2 11H11.5V15.5H7.5C7.22386 15.5 7 15.7239 7 16C7 16.2761 7.22386 16.5 7.5 16.5H11.5V22C11.5 22.2761 11.7239 22.5 12 22.5C12.2761 22.5 12.5 22.2761 12.5 22V16.5H16.5C16.7761 16.5 17 16.2761 17 16C17 15.7239 16.7761 15.5 16.5 15.5H12.5V11H22C22.2761 11 22.5 10.7761 22.5 10.5C22.5 5.67208 18.2214 1.5 12 1.5ZM12 2.50558C11.9769 2.5152 11.9239 2.54016 11.8375 2.60381C11.6994 2.70549 11.527 2.86801 11.3302 3.09402C10.9382 3.5441 10.4896 4.19899 10.0652 4.98705C9.28786 6.43075 8.62615 8.25683 8.51607 10H15.4839C15.3738 8.25683 14.7121 6.43075 13.9348 4.98705C13.5104 4.19899 13.0618 3.5441 12.6698 3.09402C12.473 2.86801 12.3006 2.70549 12.1625 2.60381C12.0761 2.54016 12.0231 2.5152 12 2.50558ZM16.4857 10C16.3755 8.04435 15.6425 6.04924 14.8152 4.51295C14.4091 3.75864 13.9718 3.09924 13.5587 2.59667C18.2234 3.18819 21.2258 6.41231 21.4822 10H16.4857ZM2.91056 13.0081C3.18225 12.9587 3.44254 13.1389 3.49193 13.4106L4.41729 18.5H7.5C7.71522 18.5 7.90628 18.6377 7.97434 18.8419L8.97434 21.8419C9.06167 22.1039 8.92009 22.387 8.65811 22.4743C8.39614 22.5617 8.11298 22.4201 8.02566 22.1581L7.13962 19.5H4.36038L3.47434 22.1581C3.38702 22.4201 3.10386 22.5617 2.84189 22.4743C2.57991 22.387 2.43833 22.1039 2.52566 21.8419L3.48515 18.9634L2.50806 13.5894C2.45867 13.3178 2.63887 13.0575 2.91056 13.0081ZM21.0894 13.0081C21.3611 13.0575 21.5413 13.3178 21.4919 13.5894L20.5149 18.9634L21.4743 21.8419C21.5617 22.1039 21.4201 22.387 21.1581 22.4743C20.8961 22.5617 20.613 22.4201 20.5257 22.1581L19.6396 19.5H16.8604L15.9743 22.1581C15.887 22.4201 15.6039 22.5617 15.3419 22.4743C15.0799 22.387 14.9383 22.1039 15.0257 21.8419L16.0257 18.8419C16.0937 18.6377 16.2848 18.5 16.5 18.5H19.5827L20.5081 13.4106C20.5575 13.1389 20.8178 12.9587 21.0894 13.0081Z" fill="black" fill-opacity="0.7"/>
</svg>
