<svg width="24" height="24" viewBox="0 0 24 24" fill="none" xmlns="http://www.w3.org/2000/svg"><path fill-rule="evenodd" clip-rule="evenodd" d="M4.5 6A1.5 1.5 0 016 4.5h3.25a1.5 1.5 0 011.5 1.5v12a1.5 1.5 0 01-1.5 1.5H6A1.5 1.5 0 014.5 18V6zM6 5.5a.5.5 0 00-.5.5v12a.5.5 0 00.5.5h3.25a.5.5 0 00.5-.5V6a.5.5 0 00-.5-.5H6zm7.25.5a1.5 1.5 0 011.5-1.5H18A1.5 1.5 0 0119.5 6v12a1.5 1.5 0 01-1.5 1.5h-3.25a1.5 1.5 0 01-1.5-1.5V6zm1.5-.5a.5.5 0 00-.5.5v12a.5.5 0 00.5.5H18a.5.5 0 00.5-.5V6a.5.5 0 00-.5-.5h-3.25z" fill="#000" fill-opacity=".7"/></svg>