<svg width="24" height="24" viewBox="0 0 24 24" fill="none" xmlns="http://www.w3.org/2000/svg">
<path fill-rule="evenodd" clip-rule="evenodd" d="M4.2339 9.19427C3.87572 10.1362 3.97732 10.6948 4.21136 10.9289C4.44541 11.1629 5.00409 11.2645 5.94597 10.9063C6.83934 10.5666 7.89625 9.87039 8.88332 8.88332C9.87039 7.89625 10.5666 6.83934 10.9063 5.94597C11.2645 5.00409 11.1629 4.44541 10.9289 4.21136C10.6948 3.97732 10.1362 3.87572 9.19427 4.2339C8.3009 4.57363 7.24399 5.26985 6.25692 6.25692C5.26985 7.24399 4.57363 8.3009 4.2339 9.19427ZM3.2992 8.83883C3.69981 7.78536 4.48663 6.613 5.54982 5.54982C6.613 4.48663 7.78536 3.69981 8.83883 3.2992C9.84378 2.91704 10.9495 2.81778 11.636 3.50426C12.303 4.17132 12.2282 5.23425 11.8728 6.21592L14.0246 8.36772C14.603 8.08492 15.4033 7.82236 16.2471 7.74895C17.2787 7.65918 18.4549 7.84828 19.3384 8.7318C20.361 9.7544 20.5376 11.2624 20.1488 12.7878C19.7913 14.1908 18.9446 15.6787 17.7153 17.0082L21.8133 21.1062C22.0085 21.3014 22.0085 21.618 21.8133 21.8133C21.618 22.0085 21.3014 22.0085 21.1062 21.8133L17.0082 17.7153C15.6787 18.9446 14.1908 19.7913 12.7878 20.1488C11.2624 20.5376 9.7544 20.361 8.7318 19.3384C7.84828 18.4549 7.65918 17.2787 7.74895 16.2471C7.82236 15.4033 8.08492 14.603 8.36772 14.0246L6.21592 11.8728C5.23425 12.2282 4.17132 12.303 3.50426 11.636C2.81778 10.9495 2.91704 9.84378 3.2992 8.83883ZM7.18617 11.4288L11.0055 15.2481L11.0081 15.25C11.0188 15.2578 11.0428 15.2736 11.0803 15.2907C11.1529 15.3237 11.2868 15.3661 11.4925 15.3539C11.9062 15.3295 12.691 15.0762 13.8836 13.8836C15.0762 12.691 15.3295 11.9062 15.3539 11.4925C15.3661 11.2868 15.3237 11.1529 15.2907 11.0803C15.2736 11.0428 15.2578 11.0188 15.25 11.0081L15.2481 11.0055L11.4288 7.18617C10.9902 7.98687 10.3634 8.8175 9.59043 9.59043C8.8175 10.3634 7.98687 10.9902 7.18617 11.4288ZM15.6129 10.6631C15.9664 10.3096 15.9672 10.3104 15.9672 10.3104L15.968 10.3112L15.9697 10.3129L15.9735 10.3167L15.9821 10.3259C15.9883 10.3326 15.9956 10.3406 16.0036 10.35C16.0197 10.3687 16.0391 10.3927 16.0605 10.4222C16.1032 10.4813 16.1538 10.5626 16.2012 10.6667C16.297 10.8776 16.3746 11.1732 16.3522 11.5516C16.3075 12.3061 15.873 13.3084 14.5907 14.5907C13.3084 15.873 12.3061 16.3075 11.5516 16.3522C11.1732 16.3746 10.8776 16.297 10.6667 16.2012C10.5626 16.1538 10.4813 16.1032 10.4222 16.0605C10.3927 16.0391 10.3687 16.0197 10.35 16.0036C10.3406 15.9956 10.3326 15.9883 10.3259 15.9821L10.3167 15.9735L10.3129 15.9697L10.3112 15.968L10.3104 15.9672C10.3104 15.9672 10.3096 15.9664 10.6631 15.6129L10.3096 15.9664L9.12482 14.7817C8.94808 15.2194 8.79455 15.7663 8.74518 16.3337C8.66986 17.1994 8.84086 18.0332 9.4389 18.6313C10.121 19.3134 11.2109 19.5187 12.5408 19.1798C13.8649 18.8424 15.3449 17.9781 16.6615 16.6615C17.9781 15.3449 18.8424 13.8649 19.1798 12.5408C19.5187 11.2109 19.3134 10.121 18.6313 9.4389C18.0332 8.84086 17.1994 8.66986 16.3337 8.74518C15.7663 8.79456 15.2194 8.94808 14.7817 9.12482L15.9664 10.3096L15.6129 10.6631Z" fill="black" fill-opacity="0.7"/>
</svg>
