<svg width="24" height="24" viewBox="0 0 24 24" fill="none" xmlns="http://www.w3.org/2000/svg">
<path fill-rule="evenodd" clip-rule="evenodd" d="M1.5 6C1.5 4.52094 2.95303 3.5 4.5 3.5H19.5C21.047 3.5 22.5 4.52094 22.5 6V18C22.5 19.4791 21.047 20.5 19.5 20.5H4.5C2.95303 20.5 1.5 19.4791 1.5 18V6ZM4.5 4.5C3.28555 4.5 2.5 5.26992 2.5 6V18C2.5 18.7301 3.28555 19.5 4.5 19.5H19.5C20.7145 19.5 21.5 18.7301 21.5 18V6C21.5 5.26992 20.7145 4.5 19.5 4.5H4.5ZM8.73713 8.07467C8.88454 7.98357 9.06861 7.97529 9.22361 8.05279L16.2236 11.5528C16.393 11.6375 16.5 11.8106 16.5 12C16.5 12.1894 16.393 12.3625 16.2236 12.4472L9.22361 15.9472C9.06861 16.0247 8.88454 16.0164 8.73713 15.9253C8.58973 15.8342 8.5 15.6733 8.5 15.5V8.5C8.5 8.32671 8.58973 8.16578 8.73713 8.07467ZM9.5 9.30902V14.691L14.882 12L9.5 9.30902Z" fill="black" fill-opacity="0.7"/>
</svg>
