<svg width="16" height="16" viewBox="0 0 16 16" fill="none" xmlns="http://www.w3.org/2000/svg">
<path fill-rule="evenodd" clip-rule="evenodd" d="M0.5 3.875C0.5 2.83101 1.35919 2 2.4 2H13.6C14.6408 2 15.5 2.83101 15.5 3.875V12.125C15.5 13.169 14.6408 14 13.6 14H2.4C1.35919 14 0.5 13.169 0.5 12.125V3.875ZM2.4 3C1.89441 3 1.5 3.40021 1.5 3.875V12.125C1.5 12.5998 1.89441 13 2.4 13H13.6C14.1056 13 14.5 12.5998 14.5 12.125V3.875C14.5 3.40021 14.1056 3 13.6 3H2.4ZM5.63561 5.16937C5.78215 5.07808 5.96542 5.06884 6.1204 5.14494L11.0204 7.5512C11.1916 7.63524 11.3 7.80932 11.3 8C11.3 8.19068 11.1916 8.36476 11.0204 8.4488L6.1204 10.8551C5.96542 10.9312 5.78215 10.9219 5.63561 10.8306C5.48907 10.7393 5.4 10.5789 5.4 10.4062V5.59375C5.4 5.4211 5.48907 5.26066 5.63561 5.16937ZM6.4 6.39632V9.60368L9.66568 8L6.4 6.39632Z" fill="black" fill-opacity="0.7"/>
</svg>
