<svg width="24" height="24" viewBox="0 0 24 24" fill="none" xmlns="http://www.w3.org/2000/svg">
<mask id="path-1-inside-1" fill="white">
<path d="M11.5 7C11.5 7.27614 11.2761 7.5 11 7.5C10.7239 7.5 10.5 7.27614 10.5 7C10.5 6.72386 10.7239 6.5 11 6.5C11.2761 6.5 11.5 6.72386 11.5 7Z"/>
</mask>
<path d="M11.5 7C11.5 7.27614 11.2761 7.5 11 7.5C10.7239 7.5 10.5 7.27614 10.5 7C10.5 6.72386 10.7239 6.5 11 6.5C11.2761 6.5 11.5 6.72386 11.5 7Z" fill="black" fill-opacity="0.7"/>
<path d="M10.5 7C10.5 6.72386 10.7239 6.5 11 6.5V8.5C11.8284 8.5 12.5 7.82843 12.5 7H10.5ZM11 6.5C11.2761 6.5 11.5 6.72386 11.5 7H9.5C9.5 7.82843 10.1716 8.5 11 8.5V6.5ZM11.5 7C11.5 7.27614 11.2761 7.5 11 7.5V5.5C10.1716 5.5 9.5 6.17157 9.5 7H11.5ZM11 7.5C10.7239 7.5 10.5 7.27614 10.5 7H12.5C12.5 6.17157 11.8284 5.5 11 5.5V7.5Z" fill="black" mask="url(#path-1-inside-1)"/>
<mask id="path-3-inside-2" fill="white">
<path d="M13.5 7C13.5 7.27614 13.2761 7.5 13 7.5C12.7239 7.5 12.5 7.27614 12.5 7C12.5 6.72386 12.7239 6.5 13 6.5C13.2761 6.5 13.5 6.72386 13.5 7Z"/>
</mask>
<path d="M13.5 7C13.5 7.27614 13.2761 7.5 13 7.5C12.7239 7.5 12.5 7.27614 12.5 7C12.5 6.72386 12.7239 6.5 13 6.5C13.2761 6.5 13.5 6.72386 13.5 7Z" fill="black" fill-opacity="0.7"/>
<path d="M12.5 7C12.5 6.72386 12.7239 6.5 13 6.5V8.5C13.8284 8.5 14.5 7.82843 14.5 7H12.5ZM13 6.5C13.2761 6.5 13.5 6.72386 13.5 7H11.5C11.5 7.82843 12.1716 8.5 13 8.5V6.5ZM13.5 7C13.5 7.27614 13.2761 7.5 13 7.5V5.5C12.1716 5.5 11.5 6.17157 11.5 7H13.5ZM13 7.5C12.7239 7.5 12.5 7.27614 12.5 7H14.5C14.5 6.17157 13.8284 5.5 13 5.5V7.5Z" fill="black" mask="url(#path-3-inside-2)"/>
<path fill-rule="evenodd" clip-rule="evenodd" d="M5.88608 2.32482C6.45271 1.78709 7.23464 1.5 8.11111 1.5C9.70153 1.5 11.095 2.55809 11.348 4.02081C11.5594 4.00706 11.7768 4 12 4C12.2232 4 12.4406 4.00706 12.652 4.02081C12.905 2.55809 14.2985 1.5 15.8889 1.5C16.7654 1.5 17.5473 1.78709 18.1139 2.32482C18.683 2.86487 19 3.62516 19 4.5C19 5.37146 18.7062 5.98008 18.3904 6.37485C18.2351 6.56906 18.0781 6.70703 17.9562 6.79844C17.8952 6.84422 17.8425 6.87867 17.8025 6.90298C17.7824 6.91515 17.7655 6.92481 17.7522 6.93213L17.735 6.94137L17.7286 6.94471L17.7259 6.94606L17.7247 6.94666C17.7244 6.9468 17.7236 6.94721 17.5 6.5L17.7236 6.94721C17.7106 6.95371 17.6975 6.95958 17.6842 6.96485C17.8934 7.45077 18 7.96969 18 8.5V8.50694C17.9921 9.07892 17.9166 9.58928 17.7864 10.0438C19.1214 10.3005 20.2557 10.8117 21.0781 11.4703C21.9344 12.156 22.5 13.0452 22.5 14C22.5 14.7843 22.1206 15.426 21.5422 15.8568C21.1155 16.1745 20.584 16.3773 20.0078 16.4589C20.0336 16.4848 20.059 16.511 20.0839 16.5378C20.6867 17.1845 21 18.0614 21 19C21 19.9386 20.6867 20.8155 20.0839 21.4622C19.4767 22.1137 18.6047 22.5 17.5556 22.5C15.7838 22.5 14.4948 21.4051 14.1152 19.9253C14.0081 19.9709 13.8992 20.0091 13.7929 20.0412C13.3196 20.1841 12.7527 20.25 12.1875 20.25C11.6203 20.25 11.0301 20.1836 10.506 20.0461C10.3024 19.9927 10.0997 19.9263 9.90784 19.8441C9.5684 21.3578 8.31282 22.5 6.5 22.5C4.36272 22.5 3 20.9124 3 19C3 18.0127 3.36325 17.1119 4.00879 16.4715C3.39956 16.3993 2.84474 16.1906 2.4078 15.8502C1.84634 15.4127 1.5 14.7703 1.5 14C1.5 13.0452 2.06558 12.156 2.92188 11.4703C3.74256 10.8131 4.87393 10.3026 6.20533 10.0454C6.08015 9.59006 6.00799 9.07911 6.00005 8.50694L5.99995 8.5C5.99995 7.96969 6.10656 7.45077 6.31575 6.96485C6.30251 6.95958 6.28938 6.95371 6.27639 6.94721L6.5 6.5C6.27639 6.94721 6.27666 6.94735 6.27639 6.94721L6.2753 6.94666L6.27411 6.94606L6.27144 6.94471L6.26499 6.94137L6.24781 6.93213C6.23451 6.92481 6.21758 6.91515 6.19754 6.90298C6.15751 6.87867 6.1048 6.84422 6.04375 6.79844C5.92188 6.70703 5.76493 6.56906 5.60957 6.37485C5.29375 5.98008 5 5.37146 5 4.5C5 3.62516 5.317 2.86487 5.88608 2.32482ZM6.72412 6.05304C6.72589 6.05393 6.72765 6.05483 6.7294 6.05573C6.76075 6.0719 6.78967 6.09095 6.81601 6.11238C7.53828 5.16583 8.73007 4.43593 10.3515 4.14162C10.1617 3.23929 9.26957 2.5 8.11111 2.5C7.45346 2.5 6.92984 2.71291 6.57444 3.05018C6.2215 3.38513 6 3.87484 6 4.5C6 5.12854 6.20625 5.51992 6.39043 5.75015C6.48507 5.86844 6.57812 5.94922 6.64375 5.99844C6.67645 6.02296 6.70186 6.03929 6.71652 6.04819C6.72332 6.05232 6.72774 6.05481 6.7294 6.05573L6.72711 6.05456L6.72553 6.05375L6.72412 6.05304ZM6.57979 10.9936C5.29629 11.213 4.25549 11.6835 3.54696 12.2509C2.83032 12.8247 2.5 13.4548 2.5 14C2.5 14.4451 2.6905 14.8027 3.02245 15.0614C3.36392 15.3274 3.87388 15.5 4.5 15.5C4.66171 15.5 4.87962 15.4509 5.14494 15.3473C5.40492 15.2458 5.6815 15.1035 5.95212 14.945C6.38724 14.6902 6.7824 14.4081 7.03933 14.219C7.0692 14.1108 7.10247 14.0042 7.13822 13.9001C7.26697 13.5252 7.43325 13.1678 7.607 12.867C7.6926 12.7189 7.78468 12.5764 7.88013 12.4489C7.35917 12.0866 6.909 11.6099 6.57979 10.9936ZM8.77078 12.9368C8.69108 13.0265 8.58638 13.1709 8.47286 13.3673C8.33063 13.6135 8.19136 13.9123 8.084 14.2249C7.97608 14.5391 7.9056 14.8522 7.88982 15.1299C7.87379 15.4118 7.91602 15.6193 7.99263 15.7572C8.00178 15.7737 8.00991 15.7904 8.01702 15.8074C9.18941 16.3274 9.91364 17.4524 9.99277 18.7597C10.1665 18.8783 10.424 18.9908 10.7597 19.0789C11.1887 19.1914 11.6922 19.25 12.1875 19.25C12.6848 19.25 13.1492 19.1909 13.5039 19.0838C13.7842 18.9992 13.9327 18.9044 14.0034 18.8375C14.0594 17.5116 14.7988 16.3722 15.9731 15.8328C15.9823 15.8071 15.9937 15.7818 16.0074 15.7572C16.084 15.6193 16.1262 15.4118 16.1102 15.1299C16.0944 14.8522 16.0239 14.5391 15.916 14.2249C15.8086 13.9123 15.6694 13.6135 15.5271 13.3673C15.4025 13.1516 15.2885 12.9987 15.2065 12.912C14.0731 13.4024 12.8402 13.5 12 13.5C11.0952 13.5 9.8768 13.4069 8.77078 12.9368ZM16.0978 12.4198C16.2011 12.5545 16.3008 12.7075 16.393 12.8671C16.5667 13.1678 16.733 13.5252 16.8618 13.9001C16.8989 14.0083 16.9334 14.1192 16.9642 14.2318C17.0191 14.278 17.0769 14.3279 17.1349 14.378C17.1808 14.4177 17.2269 14.4575 17.2718 14.4957C17.45 14.6471 17.6512 14.8103 17.8762 14.9614C18.3296 15.266 18.8475 15.5 19.4174 15.5C20.0443 15.5 20.5795 15.3269 20.9449 15.0548C21.3013 14.7893 21.5 14.4311 21.5 14C21.5 13.4548 21.1697 12.8247 20.453 12.2509C19.7437 11.6828 18.7014 11.212 17.416 10.9929C17.4101 10.9919 17.4043 10.9908 17.3985 10.9896C17.0646 11.593 16.6129 12.0616 16.0978 12.4198ZM15.876 11.3222C16.5206 10.7381 16.9803 9.85644 17 8.49663C16.998 6.86063 15.5211 5 12 5C8.47894 5 7.00204 6.8606 7 8.49661C7.02038 9.90923 7.48677 10.8029 8.13919 11.3829C8.05011 11.1194 8 10.8259 8 10.5C8 9.77294 8.46155 9.13433 9.15078 8.70155C9.8457 8.26521 10.8187 8 12 8C13.1813 8 14.1543 8.26521 14.8492 8.70155C15.5385 9.13433 16 9.77294 16 10.5C16 10.8014 15.9554 11.0748 15.876 11.3222ZM12 12.5C12.5008 12.5 13.2926 12.3841 13.9397 12.0545C14.571 11.7329 15 11.2507 15 10.5C15 10.2271 14.8227 9.86567 14.3174 9.54844C13.8179 9.23479 13.0409 9 12 9C10.9591 9 10.1821 9.23479 9.68255 9.54844C9.17734 9.86567 9 10.2271 9 10.5C9 11.2619 9.41297 11.7407 10.0203 12.0563C10.6485 12.3828 11.4371 12.5 12 12.5ZM17.184 6.11238C17.2103 6.09095 17.2393 6.0719 17.2706 6.05573C17.2723 6.0548 17.2767 6.05232 17.2835 6.04819C17.2981 6.03929 17.3235 6.02296 17.3562 5.99844C17.4219 5.94922 17.5149 5.86844 17.6096 5.75015C17.7938 5.51992 18 5.12854 18 4.5C18 3.87484 17.7785 3.38513 17.4256 3.05018C17.0702 2.71291 16.5465 2.5 15.8889 2.5C14.7304 2.5 13.8383 3.23929 13.6485 4.14162C15.2699 4.43594 16.4617 5.16584 17.184 6.11238ZM11 10C11 9.72386 11.2239 9.5 11.5 9.5H12.5C12.7761 9.5 13 9.72386 13 10C13 10.2761 12.7761 10.5 12.5 10.5C12.5 10.7761 12.2761 11 12 11C11.7239 11 11.5 10.7761 11.5 10.5C11.2239 10.5 11 10.2761 11 10ZM6.5 16.5C4.95538 16.5 4 17.5987 4 19C4 20.4013 4.95538 21.5 6.5 21.5C8.04462 21.5 9 20.4013 9 19C9 17.5987 8.04462 16.5 6.5 16.5ZM17.5556 16.5C15.9987 16.5 15 17.6113 15 19C15 20.3887 15.9987 21.5 17.5556 21.5C18.3473 21.5 18.9475 21.2148 19.3524 20.7804C19.7616 20.3414 20 19.7182 20 19C20 18.2818 19.7616 17.6586 19.3524 17.2196C18.9475 16.7852 18.3473 16.5 17.5556 16.5Z" fill="black" fill-opacity="0.7"/>
</svg>
