<svg width="24" height="24" viewBox="0 0 24 24" fill="none" xmlns="http://www.w3.org/2000/svg">
<path d="M7.98539 4.43385C8.225 4.29658 8.30796 3.99106 8.17069 3.75145C8.03342 3.51184 7.7279 3.42888 7.48829 3.56615L7.98539 4.43385ZM16.5117 3.56615C16.2721 3.42888 15.9666 3.51184 15.8293 3.75145C15.692 3.99106 15.775 4.29658 16.0146 4.43385L16.5117 3.56615ZM11.5 12.5C11.5 12.7761 11.7239 13 12 13C12.2761 13 12.5 12.7761 12.5 12.5H11.5ZM12.5 2C12.5 1.72386 12.2761 1.5 12 1.5C11.7239 1.5 11.5 1.72386 11.5 2H12.5ZM7.48829 3.56615C4.50735 5.27393 2.5 8.61222 2.5 12.4302H3.5C3.5 8.96343 5.32172 5.95986 7.98539 4.43385L7.48829 3.56615ZM2.5 12.4302C2.5 17.9542 6.71727 22.5 12 22.5V21.5C7.32748 21.5 3.5 17.4617 3.5 12.4302H2.5ZM12 22.5C17.2827 22.5 21.5 17.9542 21.5 12.4302H20.5C20.5 17.4617 16.6725 21.5 12 21.5V22.5ZM21.5 12.4302C21.5 8.61222 19.4927 5.27393 16.5117 3.56615L16.0146 4.43385C18.6783 5.95986 20.5 8.96343 20.5 12.4302H21.5ZM12.5 12.5V2H11.5V12.5H12.5Z" fill="black" fill-opacity="0.7"/>
</svg>
