<svg width="24" height="24" viewBox="0 0 24 24" fill="none" xmlns="http://www.w3.org/2000/svg">
<path fill-rule="evenodd" clip-rule="evenodd" d="M20.7084 2.70688C19.9071 2.26639 19.2012 2.50556 18.8533 2.85298C18.6579 3.04809 18.3413 3.04784 18.1462 2.85243C17.9511 2.65701 17.9513 2.34043 18.1467 2.14532C18.7988 1.49432 19.9864 1.16884 21.1901 1.83057C22.429 2.51162 22.8799 4.04044 22.1488 5.24626C21.8824 5.68556 21.4992 6.0152 21.06 6.22238L22.317 10.6483C22.3549 10.7819 22.3356 10.9253 22.2636 11.0441L15.4829 22.2269C15.344 22.4559 15.0493 22.5348 14.8145 22.4058L5.73871 17.4164C5.61928 17.3508 5.53182 17.2392 5.49658 17.1076C5.46134 16.9759 5.48137 16.8356 5.55204 16.719L12.3327 5.53628C12.4008 5.42397 12.5103 5.34296 12.6377 5.31077L17.2306 4.14974L12.2587 3.4986L2.71808 11.8902L5.72444 15.0918C5.91347 15.2931 5.90352 15.6096 5.70221 15.7986C5.50091 15.9876 5.18448 15.9777 4.99545 15.7764L1.6355 12.1981C1.5428 12.0994 1.49411 11.9673 1.50057 11.832C1.50703 11.6968 1.56809 11.5699 1.66978 11.4804L11.7686 2.59794C11.8768 2.50276 12.0208 2.4589 12.1637 2.47762L19.8889 3.48934C20.0266 3.48449 20.1583 3.5372 20.2545 3.63044C20.3395 3.70952 20.3962 3.81727 20.4107 3.93585L20.7804 5.23786C20.9873 5.11218 21.165 4.94 21.2937 4.72777C21.7148 4.03326 21.4745 3.12804 20.7084 2.70688ZM19.8084 5.47548L19.5577 4.59292L13.0815 6.23004L6.67761 16.7914L14.8763 21.2986L21.2955 10.7119L20.0914 6.47213C19.5946 6.50493 19.0833 6.4013 18.622 6.14772C18.38 6.01469 18.2917 5.71068 18.4248 5.46869C18.5578 5.22671 18.8618 5.13838 19.1038 5.27141C19.328 5.39465 19.5688 5.46075 19.8084 5.47548ZM18.0998 7.01388C18.3359 7.15705 18.4113 7.46454 18.2681 7.70066L17.4683 9.01969C18.368 9.78434 18.6263 11.0831 17.9886 12.1348C17.8454 12.3709 17.5379 12.4463 17.3018 12.3031C17.0657 12.1599 16.9903 11.8524 17.1335 11.6163C17.5558 10.9199 17.316 10.0175 16.5565 9.6C15.7838 9.17523 14.8066 9.43634 14.3749 10.1482C13.9526 10.8447 14.1925 11.747 14.9519 12.1645C16.1882 12.8442 16.6322 14.3718 15.9022 15.5756C15.2661 16.6247 13.9645 17.0516 12.8267 16.6748L12.0091 18.0232C11.8659 18.2593 11.5584 18.3347 11.3223 18.1915C11.0862 18.0483 11.0108 17.7408 11.154 17.5047L11.9538 16.1857C11.054 15.421 10.7958 14.1223 11.4335 13.0706C11.5767 12.8345 11.8842 12.7591 12.1203 12.9023C12.3564 13.0455 12.4318 13.3529 12.2886 13.5891C11.8663 14.2855 12.1061 15.1879 12.8656 15.6054C13.6383 16.0302 14.6155 15.769 15.0472 15.0572C15.4694 14.3607 15.2296 13.4584 14.4702 13.0409C13.2338 12.3612 12.7899 10.8336 13.5198 9.62974C14.156 8.58066 15.4576 8.15375 16.5954 8.53055L17.413 7.18218C17.5562 6.94606 17.8637 6.8707 18.0998 7.01388Z" fill="black" fill-opacity="0.7"/>
</svg>
