<svg width="24" height="24" viewBox="0 0 24 24" fill="none" xmlns="http://www.w3.org/2000/svg">
<path fill-rule="evenodd" clip-rule="evenodd" d="M7.35355 1.64645C7.54882 1.84171 7.54882 2.15829 7.35355 2.35355L5.20711 4.5L11 4.5C14.1094 4.5 16.4975 5.48901 18.108 7.14051C19.715 8.78846 20.5 11.0472 20.5 13.5C20.5 18.4971 16.2194 22.5 11 22.5H8C7.72386 22.5 7.5 22.2761 7.5 22C7.5 21.7239 7.72386 21.5 8 21.5H11C15.7217 21.5 19.5 17.8917 19.5 13.5C19.5 11.2584 18.785 9.26712 17.392 7.83867C16.0025 6.41378 13.8906 5.5 11 5.5H5.20711L7.35355 7.64645C7.54882 7.84171 7.54882 8.15829 7.35355 8.35355C7.15829 8.54882 6.84171 8.54882 6.64645 8.35355L3.64645 5.35355C3.45118 5.15829 3.45118 4.84171 3.64645 4.64645L6.64645 1.64645C6.84171 1.45118 7.15829 1.45118 7.35355 1.64645Z" fill="black" fill-opacity="0.7"/>
</svg>
