<svg fill="none" xmlns="http://www.w3.org/2000/svg" width='24' height='24' viewBox="0 0 24 24">
  <path d="M20 2h.5c0-.27614-.2239-.5-.5-.5V2zm0 20v.5c.2761 0 .5-.2239.5-.5H20zM4 22h-.5c0 .2761.22386.5.5.5V22zM4 2v-.5c-.27614 0-.5.22386-.5.5H4zm3 11c-.27614 0-.5.2239-.5.5s.22386.5.5.5v-1zm10 1c.2761 0 .5-.2239.5-.5s-.2239-.5-.5-.5v1zM7 15.5c-.27614 0-.5.2239-.5.5s.22386.5.5.5v-1zm10 1c.2761 0 .5-.2239.5-.5s-.2239-.5-.5-.5v1zM7 18c-.27614 0-.5.2239-.5.5s.22386.5.5.5v-1zm8.5 1c.2761 0 .5-.2239.5-.5s-.2239-.5-.5-.5v1zM12 8v.5c.2761 0 .5-.22386.5-.5H12zm8 13.5H4v1h16v-1zM4.5 22V2h-1v20h1zM7 14h10v-1H7v1zm0 2.5h10v-1H7v1zm13-15H4v1h16v-1zm-.5.5v20h1V2h-1zm-5 6c0 1.38071-1.1193 2.5-2.5 2.5v1c1.933 0 3.5-1.567 3.5-3.5h-1zM12 10.5c-1.3807 0-2.5-1.11929-2.5-2.5h-1c0 1.933 1.567 3.5 3.5 3.5v-1zM9.5 8c0-1.38071 1.1193-2.5 2.5-2.5v-1c-1.933 0-3.5 1.567-3.5 3.5h1zM12 5.5c1.3807 0 2.5 1.11929 2.5 2.5h1c0-1.933-1.567-3.5-3.5-3.5v1zm-3 3h3v-1H9v1zm3.5-.5V5h-1v3h1zM7 19h8.5v-1H7v1z" fill="#000" fill-opacity=".7"/>
</svg>
