<svg width="16" height="16" viewBox="0 0 16 16" fill="none" xmlns="http://www.w3.org/2000/svg">
<path fill-rule="evenodd" clip-rule="evenodd" d="M15.3536 6.64645C15.5488 6.84171 15.5488 7.15829 15.3536 7.35355L7.35355 15.3536C7.15829 15.5488 6.84171 15.5488 6.64645 15.3536C6.45118 15.1583 6.45118 14.8417 6.64645 14.6464L14.6464 6.64645C14.8417 6.45118 15.1583 6.45118 15.3536 6.64645ZM15.3536 10.6464C15.5488 10.8417 15.5488 11.1583 15.3536 11.3536L11.3536 15.3536C11.1583 15.5488 10.8417 15.5488 10.6464 15.3536C10.4512 15.1583 10.4512 14.8417 10.6464 14.6464L14.6464 10.6464C14.8417 10.4512 15.1583 10.4512 15.3536 10.6464Z" fill="black" fill-opacity="0.7"/>
</svg>
