<svg width="24" height="24" viewBox="0 0 24 24" fill="none" xmlns="http://www.w3.org/2000/svg">
  <path fill-rule="evenodd" clip-rule="evenodd" d="M19.7504 8.50234h-2.7527c-.2761 0-.5.22386-.5.5s.2239.5.5.5h4c.1326 0 .2598-.05268.3536-.14645.0937-.09377.1464-.22094.1464-.35355v-4c0-.27614-.2239-.5-.5-.5s-.5.22386-.5.5v2.76153c-.4233-.80237-1.0876-1.78641-2.0298-2.68571-1.4506-1.38471-3.5695-2.57582-6.4702-2.57582-5.24626 0-9.4977 4.25477-9.4977 9.49996 0 5.2455 4.25284 9.4977 9.4989 9.4977 5.246 0 9.4988-4.2522 9.4988-9.4977 0-.2761-.2239-.5-.5-.5s-.5.2239-.5.5c0 4.6931-3.805 8.4977-8.4988 8.4977C7.305 20.5 3.5 16.6954 3.5 12.0023c0-4.69329 3.8041-8.49996 8.4977-8.49996 2.5993 0 4.4804 1.05888 5.7798 2.29918.973.92877 1.6143 1.95521 1.9729 2.70082z" fill="#000" fill-opacity=".7"/>
</svg>
