<svg width="24" height="24" viewBox="0 0 24 24" fill="none" xmlns="http://www.w3.org/2000/svg">
<path fill-rule="evenodd" clip-rule="evenodd" d="M4.24957 8.50234H7.0023C7.27844 8.50234 7.5023 8.7262 7.5023 9.00234C7.5023 9.27848 7.27844 9.50234 7.0023 9.50234L3.0023 9.50234C2.86969 9.50234 2.74252 9.44966 2.64875 9.35589C2.55498 9.26212 2.5023 9.13495 2.5023 9.00234V5.00234C2.5023 4.7262 2.72616 4.50234 3.0023 4.50234C3.27844 4.50234 3.5023 4.7262 3.5023 5.00234V7.76387C3.92556 6.9615 4.58994 5.97746 5.53206 5.07816C6.98271 3.69345 9.10156 2.50234 12.0023 2.50234C17.2486 2.50234 21.5 6.75711 21.5 12.0023C21.5 17.2478 17.2472 21.5 12.0011 21.5C6.75514 21.5 2.5023 17.2478 2.5023 12.0023C2.5023 11.7262 2.72616 11.5023 3.0023 11.5023C3.27844 11.5023 3.5023 11.7262 3.5023 12.0023C3.5023 16.6954 7.3073 20.5 12.0011 20.5C16.695 20.5 20.5 16.6954 20.5 12.0023C20.5 7.30901 16.6959 3.50234 12.0023 3.50234C9.40304 3.50234 7.52189 4.56122 6.22254 5.80152C5.24954 6.73029 4.60817 7.75673 4.24957 8.50234Z" fill="black" fill-opacity="0.7"/>
</svg>
