<svg width="24" height="24" viewBox="0 0 24 24" fill="none" xmlns="http://www.w3.org/2000/svg">
<path d="M21.6464 22.3536C21.8417 22.5488 22.1583 22.5488 22.3536 22.3536C22.5488 22.1583 22.5488 21.8417 22.3536 21.6464L21.6464 22.3536ZM14.5307 15.2378L21.6464 22.3536L22.3536 21.6464L15.2378 14.5307L14.5307 15.2378ZM14.5307 4.56414C17.2829 7.31632 17.2829 11.7785 14.5307 14.5307L15.2378 15.2378C18.3805 12.0951 18.3805 6.99974 15.2378 3.85703L14.5307 4.56414ZM14.5307 14.5307C11.7785 17.2829 7.31633 17.2829 4.56414 14.5307L3.85703 15.2378C6.99975 18.3805 12.0951 18.3805 15.2378 15.2378L14.5307 14.5307ZM4.56414 14.5307C1.81195 11.7785 1.81195 7.31632 4.56414 4.56414L3.85703 3.85703C0.714322 6.99974 0.714322 12.0951 3.85703 15.2378L4.56414 14.5307ZM4.56414 4.56414C7.31633 1.81195 11.7785 1.81195 14.5307 4.56414L15.2378 3.85703C12.0951 0.714323 6.99975 0.714323 3.85703 3.85703L4.56414 4.56414Z" fill="black" fill-opacity="0.7"/>
</svg>
