<svg width="24" height="24" viewBox="0 0 24 24" fill="none" xmlns="http://www.w3.org/2000/svg">
<path fill-rule="evenodd" clip-rule="evenodd" d="M16.6464 3.64645C16.8417 3.45118 17.1583 3.45118 17.3535 3.64645L21.3535 7.64645C21.4473 7.74021 21.5 7.86739 21.5 8C21.5 8.13261 21.4473 8.25979 21.3535 8.35355L17.3535 12.3536C17.1583 12.5488 16.8417 12.5488 16.6464 12.3536C16.4512 12.1583 16.4512 11.8417 16.6464 11.6464L19.7929 8.5H17C10.7602 8.5 7.40379 10.3918 5.59977 12.7007C3.77842 15.0318 3.45479 17.8929 3.50469 19.9881C3.51127 20.2642 3.2928 20.4933 3.01674 20.4999C2.74067 20.5064 2.51155 20.288 2.50497 20.0119C2.4528 17.8214 2.78227 14.6825 4.81178 12.085C6.85862 9.46534 10.5508 7.5 17 7.5H19.7929L16.6464 4.35355C16.4512 4.15829 16.4512 3.84171 16.6464 3.64645Z" fill="black" fill-opacity="0.7"/>
</svg>
