<svg width="24" height="24" viewBox="0 0 24 24" fill="none" xmlns="http://www.w3.org/2000/svg">
<path d="M19.2296 12.6029L19.4748 12.1671L19.4748 12.1671L19.2296 12.6029ZM21.9197 14.1162L21.6746 14.552V14.552L21.9197 14.1162ZM16.1507 17.799L16.3958 17.3633H16.3958L16.1507 17.799ZM18.8408 19.3124L18.5956 19.7481L18.8408 19.3124ZM16.1507 6.20096L15.9055 5.76518H15.9055L16.1507 6.20096ZM18.8408 4.68764L19.0859 5.12342L18.8408 4.68764ZM19.2296 11.3971L19.4748 11.8329H19.4748L19.2296 11.3971ZM21.9197 9.88379L22.1649 10.3196L21.9197 9.88379ZM7.84934 6.20096L7.6042 6.63674L7.6042 6.63674L7.84934 6.20096ZM5.15921 4.68764L5.40436 4.25186V4.25186L5.15921 4.68764ZM4.77039 11.3971L5.01554 10.9613L5.01554 10.9613L4.77039 11.3971ZM2.08026 9.88379L2.32541 9.44801H2.32541L2.08026 9.88379ZM3.11184 7L2.68169 6.74511H2.68169L3.11184 7ZM4.77039 12.6029L5.01554 13.0387L5.01554 13.0387L4.77039 12.6029ZM2.08026 14.1162L1.83512 13.6804L1.83512 13.6804L2.08026 14.1162ZM7.84934 17.799L7.6042 17.3633H7.6042L7.84934 17.799ZM5.15921 19.3124L4.91406 18.8766H4.91406L5.15921 19.3124ZM15.4362 17.799L15.191 17.3633L15.191 17.3633L15.4362 17.799ZM18.8724 12H19.3724V12L18.8724 12ZM15.6053 12C15.6053 13.9208 14.0035 15.5 12 15.5V16.5C14.5311 16.5 16.6053 14.4974 16.6053 12H15.6053ZM12 15.5C9.99655 15.5 8.39474 13.9208 8.39474 12H7.39474C7.39474 14.4974 9.46891 16.5 12 16.5V15.5ZM8.39474 12C8.39474 10.0792 9.99655 8.5 12 8.5V7.5C9.46891 7.5 7.39474 9.50255 7.39474 12H8.39474ZM12 8.5C14.0035 8.5 15.6053 10.0792 15.6053 12H16.6053C16.6053 9.50255 14.5311 7.5 12 7.5V8.5ZM9.42105 5.59808V2.57143H8.42105V5.59808H9.42105ZM15.5789 5.59808V2.57143H14.5789V5.59808H15.5789ZM8.92105 2.57143C9.42105 2.57143 9.42105 2.57274 9.42105 2.57406C9.42104 2.57449 9.42103 2.57581 9.42102 2.57668C9.42101 2.57843 9.42098 2.58018 9.42094 2.58193C9.42087 2.58542 9.42076 2.5889 9.42061 2.59238C9.42031 2.59932 9.41986 2.60623 9.41927 2.61308C9.41808 2.6268 9.41629 2.64025 9.41393 2.6534C9.40918 2.67986 9.40224 2.70429 9.3937 2.72647C9.37625 2.77181 9.35473 2.80113 9.34117 2.81622C9.31707 2.84306 9.33316 2.80894 9.47991 2.75446C9.77971 2.64318 10.4773 2.5 12 2.5V1.5C10.4437 1.5 9.60187 1.64253 9.13193 1.81696C8.89381 1.90535 8.71747 2.01408 8.59715 2.14807C8.53549 2.21673 8.48991 2.29069 8.46043 2.36728C8.44588 2.40509 8.43593 2.4418 8.42968 2.47662C8.42657 2.49396 8.4244 2.51062 8.42302 2.5265C8.42233 2.53443 8.42184 2.54216 8.42152 2.54965C8.42136 2.5534 8.42124 2.55709 8.42117 2.56072C8.42113 2.56254 8.4211 2.56434 8.42108 2.56612C8.42107 2.56701 8.42106 2.56834 8.42106 2.56879C8.42105 2.57011 8.42105 2.57143 8.92105 2.57143ZM12 2.5C13.5227 2.5 14.2203 2.64318 14.5201 2.75446C14.6668 2.80894 14.6829 2.84306 14.6588 2.81622C14.6453 2.80113 14.6238 2.77181 14.6063 2.72647C14.5978 2.70429 14.5908 2.67986 14.5861 2.6534C14.5837 2.64025 14.5819 2.6268 14.5807 2.61308C14.5801 2.60623 14.5797 2.59932 14.5794 2.59238C14.5792 2.5889 14.5791 2.58542 14.5791 2.58193C14.579 2.58018 14.579 2.57843 14.579 2.57668C14.579 2.57581 14.579 2.57449 14.579 2.57406C14.579 2.57274 14.5789 2.57143 15.0789 2.57143C15.5789 2.57143 15.5789 2.57011 15.5789 2.56879C15.5789 2.56834 15.5789 2.56701 15.5789 2.56612C15.5789 2.56434 15.5789 2.56254 15.5788 2.56072C15.5788 2.55709 15.5786 2.5534 15.5785 2.54965C15.5782 2.54216 15.5777 2.53443 15.577 2.5265C15.5756 2.51062 15.5734 2.49396 15.5703 2.47662C15.5641 2.4418 15.5541 2.40509 15.5396 2.36728C15.5101 2.29069 15.4645 2.21673 15.4029 2.14807C15.2825 2.01408 15.1062 1.90535 14.8681 1.81696C14.3981 1.64253 13.5563 1.5 12 1.5V2.5ZM18.9845 13.0387L21.6746 14.552L22.1649 13.6804L19.4748 12.1671L18.9845 13.0387ZM15.9055 18.2348L18.5956 19.7481L19.0859 18.8766L16.3958 17.3633L15.9055 18.2348ZM21.9197 14.1162C21.6746 14.552 21.6735 14.5514 21.6724 14.5507C21.672 14.5505 21.6709 14.5499 21.6702 14.5495C21.6687 14.5486 21.6673 14.5478 21.6658 14.547C21.663 14.5452 21.6601 14.5435 21.6572 14.5418C21.6516 14.5382 21.646 14.5346 21.6405 14.5309C21.6295 14.5235 21.6191 14.5157 21.6091 14.5076C21.589 14.4912 21.5715 14.4739 21.5565 14.4561C21.5258 14.4198 21.5102 14.387 21.5031 14.3665C21.49 14.3291 21.5123 14.3552 21.4879 14.5023C21.438 14.8048 21.2189 15.4609 20.458 16.7451L21.3183 17.2549C22.0968 15.941 22.3936 15.1552 22.4746 14.6653C22.5157 14.4163 22.5072 14.2085 22.447 14.0364C22.4163 13.9485 22.3731 13.8731 22.3206 13.811C22.2947 13.7804 22.2678 13.7544 22.2411 13.7326C22.2277 13.7217 22.2146 13.712 22.2018 13.7033C22.1954 13.699 22.1891 13.6949 22.183 13.6911C22.1799 13.6892 22.1768 13.6874 22.1738 13.6856C22.1723 13.6847 22.1708 13.6838 22.1693 13.683C22.1686 13.6825 22.1675 13.6819 22.1671 13.6817C22.166 13.6811 22.1649 13.6804 21.9197 14.1162ZM20.458 16.7451C19.6975 18.0286 19.2231 18.5431 18.9765 18.7387C18.8562 18.8341 18.8173 18.8317 18.8496 18.8254C18.8675 18.822 18.9009 18.8188 18.9456 18.826C18.9675 18.8296 18.9906 18.8354 19.0146 18.8439C19.0265 18.8481 19.0384 18.853 19.0504 18.8585C19.0563 18.8612 19.0623 18.8641 19.0682 18.8671C19.0712 18.8686 19.0741 18.8701 19.0771 18.8717C19.0786 18.8725 19.08 18.8733 19.0815 18.8741C19.0823 18.8745 19.0834 18.8751 19.0837 18.8753C19.0848 18.876 19.0859 18.8766 18.8408 19.3124C18.5956 19.7481 18.5968 19.7488 18.5979 19.7494C18.5982 19.7496 18.5994 19.7502 18.6001 19.7506C18.6016 19.7514 18.6031 19.7523 18.6047 19.7531C18.6078 19.7547 18.6109 19.7564 18.6141 19.758C18.6205 19.7613 18.6272 19.7646 18.6342 19.7677C18.6482 19.7741 18.6632 19.7803 18.6792 19.786C18.7113 19.7974 18.7468 19.8068 18.7856 19.8131C18.8642 19.8259 18.9492 19.8246 19.0388 19.8074C19.2145 19.7735 19.3987 19.6802 19.5979 19.5222C19.99 19.2112 20.5393 18.5695 21.3183 17.2549L20.458 16.7451ZM16.3958 6.63674L19.0859 5.12342L18.5956 4.25186L15.9055 5.76518L16.3958 6.63674ZM19.4748 11.8329L22.1649 10.3196L21.6746 9.44801L18.9845 10.9613L19.4748 11.8329ZM18.8408 4.68764C19.0859 5.12342 19.0848 5.12404 19.0837 5.12465C19.0834 5.12485 19.0823 5.12547 19.0815 5.12587C19.08 5.12668 19.0786 5.12748 19.0771 5.12827C19.0741 5.12986 19.0712 5.1314 19.0682 5.13292C19.0623 5.13594 19.0563 5.13882 19.0504 5.14155C19.0384 5.14701 19.0265 5.15186 19.0146 5.1561C18.9906 5.16462 18.9675 5.17045 18.9456 5.174C18.9009 5.18125 18.8675 5.17801 18.8496 5.17456C18.8173 5.16833 18.8562 5.16591 18.9765 5.26129C19.2231 5.45693 19.6975 5.97145 20.458 7.25489L21.3183 6.74511C20.5393 5.43048 19.99 4.78882 19.5979 4.4778C19.3987 4.31984 19.2145 4.22647 19.0388 4.19262C18.9492 4.17536 18.8642 4.17415 18.7856 4.18688C18.7468 4.19316 18.7113 4.20259 18.6792 4.21403C18.6632 4.21973 18.6482 4.22586 18.6342 4.23225C18.6272 4.23544 18.6205 4.23869 18.6141 4.24197C18.6109 4.24361 18.6077 4.24525 18.6047 4.2469C18.6031 4.24773 18.6016 4.24855 18.6001 4.24938C18.5994 4.24979 18.5982 4.25041 18.5979 4.25062C18.5968 4.25124 18.5956 4.25186 18.8408 4.68764ZM20.458 7.25489C21.2189 8.53908 21.438 9.19519 21.4879 9.49768C21.5123 9.64483 21.49 9.67086 21.5031 9.63352C21.5102 9.61303 21.5258 9.58023 21.5565 9.54387C21.5715 9.52613 21.589 9.50882 21.6091 9.49245C21.6191 9.48431 21.6295 9.47652 21.6405 9.46908C21.646 9.46537 21.6516 9.46176 21.6572 9.45824C21.6601 9.45649 21.663 9.45476 21.6658 9.45305C21.6673 9.4522 21.6687 9.45135 21.6702 9.45051C21.6709 9.45009 21.672 9.44946 21.6724 9.44926C21.6735 9.44863 21.6746 9.44801 21.9197 9.88379C22.1649 10.3196 22.166 10.3189 22.1671 10.3183C22.1675 10.3181 22.1686 10.3175 22.1693 10.317C22.1708 10.3162 22.1723 10.3153 22.1738 10.3144C22.1768 10.3126 22.1799 10.3108 22.183 10.3089C22.1891 10.3051 22.1954 10.301 22.2018 10.2967C22.2146 10.288 22.2277 10.2783 22.2411 10.2674C22.2678 10.2456 22.2947 10.2196 22.3206 10.189C22.3731 10.1269 22.4163 10.0515 22.447 9.96359C22.5072 9.79149 22.5157 9.58371 22.4746 9.33467C22.3936 8.84479 22.0968 8.059 21.3183 6.74511L20.458 7.25489ZM8.42105 18.4019V21.4286H9.42105V18.4019H8.42105ZM14.5789 18.4019V21.4286H15.5789V18.4019H14.5789ZM8.92105 21.4286C8.42105 21.4286 8.42105 21.4299 8.42106 21.4312C8.42106 21.4317 8.42107 21.433 8.42108 21.4339C8.4211 21.4357 8.42113 21.4375 8.42117 21.4393C8.42124 21.4429 8.42136 21.4466 8.42152 21.4503C8.42184 21.4578 8.42233 21.4656 8.42302 21.4735C8.4244 21.4894 8.42657 21.506 8.42968 21.5234C8.43593 21.5582 8.44588 21.5949 8.46043 21.6327C8.48991 21.7093 8.53549 21.7833 8.59715 21.8519C8.71747 21.9859 8.89381 22.0947 9.13193 22.183C9.60187 22.3575 10.4437 22.5 12 22.5V21.5C10.4773 21.5 9.77971 21.3568 9.47991 21.2455C9.33316 21.1911 9.31707 21.1569 9.34117 21.1838C9.35473 21.1989 9.37625 21.2282 9.3937 21.2735C9.40224 21.2957 9.40918 21.3201 9.41393 21.3466C9.41629 21.3598 9.41808 21.3732 9.41927 21.3869C9.41986 21.3938 9.42031 21.4007 9.42061 21.4076C9.42076 21.4111 9.42087 21.4146 9.42094 21.4181C9.42098 21.4198 9.42101 21.4216 9.42102 21.4233C9.42103 21.4242 9.42104 21.4255 9.42105 21.4259C9.42105 21.4273 9.42105 21.4286 8.92105 21.4286ZM12 22.5C13.5563 22.5 14.3981 22.3575 14.8681 22.183C15.1062 22.0947 15.2825 21.9859 15.4029 21.8519C15.4645 21.7833 15.5101 21.7093 15.5396 21.6327C15.5541 21.5949 15.5641 21.5582 15.5703 21.5234C15.5734 21.506 15.5756 21.4894 15.577 21.4735C15.5777 21.4656 15.5782 21.4578 15.5785 21.4503C15.5786 21.4466 15.5788 21.4429 15.5788 21.4393C15.5789 21.4375 15.5789 21.4357 15.5789 21.4339C15.5789 21.433 15.5789 21.4317 15.5789 21.4312C15.5789 21.4299 15.5789 21.4286 15.0789 21.4286C14.5789 21.4286 14.579 21.4273 14.579 21.4259C14.579 21.4255 14.579 21.4242 14.579 21.4233C14.579 21.4216 14.579 21.4198 14.5791 21.4181C14.5791 21.4146 14.5792 21.4111 14.5794 21.4076C14.5797 21.4007 14.5801 21.3938 14.5807 21.3869C14.5819 21.3732 14.5837 21.3598 14.5861 21.3466C14.5908 21.3201 14.5978 21.2957 14.6063 21.2735C14.6238 21.2282 14.6453 21.1989 14.6588 21.1838C14.6829 21.1569 14.6668 21.1911 14.5201 21.2455C14.2203 21.3568 13.5227 21.5 12 21.5V22.5ZM8.09449 5.76518L5.40436 4.25186L4.91407 5.12342L7.6042 6.63674L8.09449 5.76518ZM5.01554 10.9613L2.32541 9.44801L1.83512 10.3196L4.52525 11.8329L5.01554 10.9613ZM5.15921 4.68764C5.40436 4.25186 5.40325 4.25124 5.40214 4.25062C5.40177 4.25041 5.40065 4.24979 5.3999 4.24938C5.39839 4.24855 5.39687 4.24773 5.39533 4.2469C5.39225 4.24525 5.38911 4.24361 5.38589 4.24197C5.37946 4.23869 5.37276 4.23544 5.36578 4.23225C5.35183 4.22586 5.33685 4.21973 5.32085 4.21403C5.28871 4.20259 5.25316 4.19316 5.21437 4.18688C5.13585 4.17415 5.05079 4.17536 4.9612 4.19262C4.78555 4.22646 4.60128 4.31984 4.40213 4.4778C4.00998 4.78882 3.46067 5.43048 2.68169 6.74511L3.542 7.25489C4.30249 5.97145 4.77686 5.45692 5.02353 5.26128C5.14379 5.16591 5.18271 5.16833 5.1504 5.17456C5.13247 5.17801 5.09913 5.18125 5.05439 5.174C5.0325 5.17045 5.00936 5.16462 4.98542 5.1561C4.97351 5.15186 4.96157 5.14701 4.94963 5.14154C4.94367 5.13881 4.93772 5.13594 4.93179 5.13291C4.92882 5.1314 4.92586 5.12986 4.92291 5.12827C4.92143 5.12748 4.91995 5.12668 4.91848 5.12587C4.91775 5.12547 4.91664 5.12485 4.91627 5.12465C4.91517 5.12404 4.91407 5.12342 5.15921 4.68764ZM2.68169 6.74511C1.90315 8.059 1.60638 8.84479 1.52544 9.33467C1.48429 9.58371 1.4928 9.79148 1.55298 9.96359C1.58371 10.0515 1.62695 10.1269 1.67941 10.189C1.70527 10.2196 1.73219 10.2456 1.75895 10.2674C1.77227 10.2783 1.78542 10.288 1.7982 10.2967C1.80459 10.301 1.81088 10.3051 1.81704 10.3089C1.82012 10.3108 1.82317 10.3126 1.82618 10.3144C1.82769 10.3153 1.82919 10.3162 1.83068 10.317C1.83142 10.3175 1.83253 10.3181 1.8329 10.3183C1.83401 10.3189 1.83512 10.3196 2.08026 9.88379C2.32541 9.44801 2.32651 9.44863 2.32761 9.44926C2.32797 9.44946 2.32907 9.45009 2.3298 9.45051C2.33126 9.45135 2.33271 9.4522 2.33416 9.45305C2.33705 9.45476 2.33992 9.45649 2.34276 9.45824C2.34844 9.46176 2.35403 9.46537 2.3595 9.46908C2.37046 9.47652 2.38094 9.48431 2.39092 9.49245C2.41099 9.50882 2.4285 9.52613 2.44348 9.54387C2.47418 9.58023 2.48977 9.61303 2.49694 9.63352C2.50999 9.67086 2.48775 9.64483 2.51206 9.49768C2.56204 9.19518 2.78106 8.53908 3.542 7.25489L2.68169 6.74511ZM4.52525 12.1671L1.83512 13.6804L2.32541 14.552L5.01554 13.0387L4.52525 12.1671ZM7.6042 17.3633L4.91406 18.8766L5.40436 19.7481L8.09449 18.2348L7.6042 17.3633ZM2.08026 14.1162C1.83512 13.6804 1.83401 13.6811 1.8329 13.6817C1.83253 13.6819 1.83142 13.6825 1.83068 13.683C1.82919 13.6838 1.82769 13.6847 1.82618 13.6856C1.82317 13.6874 1.82012 13.6892 1.81704 13.6911C1.81088 13.6949 1.80459 13.699 1.7982 13.7033C1.78542 13.712 1.77227 13.7217 1.75895 13.7326C1.73219 13.7544 1.70527 13.7804 1.67941 13.811C1.62695 13.8731 1.5837 13.9485 1.55298 14.0364C1.4928 14.2085 1.48429 14.4163 1.52544 14.6653C1.60638 15.1552 1.90315 15.941 2.68169 17.2549L3.542 16.7451C2.78106 15.4609 2.56204 14.8048 2.51206 14.5023C2.48775 14.3552 2.50999 14.3291 2.49694 14.3665C2.48977 14.387 2.47418 14.4198 2.44348 14.4561C2.4285 14.4739 2.41099 14.4912 2.39092 14.5075C2.38094 14.5157 2.37046 14.5235 2.3595 14.5309C2.35403 14.5346 2.34844 14.5382 2.34276 14.5418C2.33992 14.5435 2.33705 14.5452 2.33416 14.5469C2.33271 14.5478 2.33126 14.5486 2.3298 14.5495C2.32907 14.5499 2.32797 14.5505 2.32761 14.5507C2.32651 14.5514 2.32541 14.552 2.08026 14.1162ZM2.68169 17.2549C3.46067 18.5695 4.00998 19.2112 4.40213 19.5222C4.60128 19.6802 4.78555 19.7735 4.9612 19.8074C5.05079 19.8246 5.13585 19.8258 5.21437 19.8131C5.25316 19.8068 5.28871 19.7974 5.32085 19.786C5.33685 19.7803 5.35183 19.7741 5.36578 19.7677C5.37276 19.7646 5.37946 19.7613 5.38589 19.758C5.3891 19.7564 5.39225 19.7547 5.39533 19.7531C5.39687 19.7523 5.39839 19.7514 5.3999 19.7506C5.40065 19.7502 5.40177 19.7496 5.40214 19.7494C5.40325 19.7488 5.40436 19.7481 5.15921 19.3124C4.91406 18.8766 4.91517 18.876 4.91627 18.8753C4.91664 18.8751 4.91774 18.8745 4.91848 18.8741C4.91995 18.8733 4.92143 18.8725 4.9229 18.8717C4.92586 18.8701 4.92882 18.8686 4.93178 18.8671C4.93772 18.8641 4.94367 18.8612 4.94963 18.8585C4.96157 18.853 4.97351 18.8481 4.98541 18.8439C5.00936 18.8354 5.03249 18.8296 5.05439 18.826C5.09912 18.8188 5.13247 18.822 5.1504 18.8254C5.18271 18.8317 5.14379 18.8341 5.02353 18.7387C4.77686 18.5431 4.30249 18.0286 3.542 16.7451L2.68169 17.2549ZM8.09449 18.2348C8.16333 18.1961 8.24983 18.1961 8.31867 18.2348L8.80896 17.3633C8.43569 17.1533 7.97747 17.1533 7.6042 17.3633L8.09449 18.2348ZM14.5789 5.59808C14.5789 6.03182 14.8164 6.42601 15.191 6.63674L15.6813 5.76518C15.6138 5.72721 15.5789 5.66175 15.5789 5.59808H14.5789ZM5.01554 13.0387C5.39015 12.8279 5.62763 12.4337 5.62763 12H4.62763C4.62763 12.0637 4.59276 12.1291 4.52525 12.1671L5.01554 13.0387ZM7.6042 6.63674C7.97747 6.84672 8.43569 6.84672 8.80896 6.63674L8.31867 5.76518C8.24983 5.80391 8.16333 5.80391 8.09449 5.76518L7.6042 6.63674ZM15.5789 18.4019C15.5789 18.3382 15.6138 18.2728 15.6813 18.2348L15.191 17.3633C14.8164 17.574 14.5789 17.9682 14.5789 18.4019H15.5789ZM9.42105 18.4019C9.42105 17.9682 9.18357 17.574 8.80896 17.3633L8.31867 18.2348C8.38618 18.2728 8.42105 18.3382 8.42105 18.4019H9.42105ZM18.9845 10.9613C18.6099 11.1721 18.3724 11.5663 18.3724 12L19.3724 12C19.3724 11.9363 19.4072 11.8709 19.4748 11.8329L18.9845 10.9613ZM16.3958 17.3633C16.0225 17.1533 15.5643 17.1533 15.191 17.3633L15.6813 18.2348C15.7502 18.1961 15.8367 18.1961 15.9055 18.2348L16.3958 17.3633ZM15.9055 5.76518C15.8367 5.80391 15.7502 5.80391 15.6813 5.76518L15.191 6.63674C15.5643 6.84672 16.0225 6.84672 16.3958 6.63674L15.9055 5.76518ZM19.4748 12.1671C19.4072 12.1291 19.3724 12.0637 19.3724 12H18.3724C18.3724 12.4337 18.6098 12.8279 18.9845 13.0387L19.4748 12.1671ZM4.52525 11.8329C4.59276 11.8709 4.62763 11.9363 4.62763 12H5.62763C5.62763 11.5663 5.39015 11.1721 5.01554 10.9613L4.52525 11.8329ZM8.42105 5.59808C8.42105 5.66175 8.38618 5.72721 8.31867 5.76518L8.80896 6.63674C9.18357 6.42601 9.42105 6.03182 9.42105 5.59808H8.42105Z" fill="black" fill-opacity="0.7"/>
</svg>
