<svg width="24" height="24" fill="none" xmlns="http://www.w3.org/2000/svg"><path fill-rule="evenodd" clip-rule="evenodd" d="M11.3844 2.686c-.1559.11311-.1701.20499-.1701.214 0 .27614-.2239.5-.5.5H7.5v1.25h9V3.4h-3.2143c-.2761 0-.5-.22386-.5-.5 0-.00901-.0142-.10089-.1701-.214-.145-.10518-.3631-.186-.6156-.186-.2525 0-.4706.08082-.6156.186zm-.5871-.8095C11.1176 1.64418 11.5424 1.5 12 1.5c.4576 0 .8824.14418 1.2027.3765.1817.1318.3511.30973.46.5235H17c.2761 0 .5.22386.5.5v.6H20c.2761 0 .5.22386.5.5v18c0 .2761-.2239.5-.5.5H4c-.27614 0-.5-.2239-.5-.5V4c0-.27614.22386-.5.5-.5h2.5v-.6c0-.27614.22386-.5.5-.5h3.3373c.1089-.21377.2783-.3917.46-.5235zM6.5 4.5h-2v17h15v-17h-2v.65c0 .27614-.2239.5-.5.5H7c-.27614 0-.5-.22386-.5-.5V4.5z" fill="#000" fill-opacity=".7"/><path fill-rule="evenodd" clip-rule="evenodd" d="M8.38234 18.2333c.27614 0 .5-.2238.5-.5 0-1.6481.46805-2.7795 1.13246-3.5685.6706-.7964 1.5767-1.2855 2.5167-1.5792.9403-.2939 1.8899-.3842 2.6113-.3993.0745-.0015.1464-.0023.2154-.0023l-1.2429 1.4966c-.1764.2124-.1472.5276.0653.7041.2124.1764.5276.1472.704-.0653l1.8824-2.2666c.1613-.1943.1525-.4783-.0206-.6622l-1.8823-1.99995c-.1893-.20109-.5057-.21068-.7068-.02142-.2011.18926-.2107.50569-.0214.70677l1.0442 1.1095c-.0192.0003-.0386.0007-.0582.0011-.7786.0162-1.829.1133-2.8887.4445-1.0601.3313-2.1539.9047-2.98331 1.8895-.8356.9923-1.36755 2.3608-1.36755 4.2127 0 .2762.22386.5.5.5z" fill="#000" fill-opacity=".7"/></svg>