<svg width="24" height="24" viewBox="0 0 24 24" fill="none" xmlns="http://www.w3.org/2000/svg">
<path fill-rule="evenodd" clip-rule="evenodd" d="M11.6834 1.61302C11.8676 1.46233 12.1324 1.46233 12.3166 1.61302L23.3166 10.613C23.5303 10.7879 23.5618 11.1029 23.387 11.3166C23.2121 11.5303 22.8971 11.5618 22.6834 11.387L21 10.0097V22C21 22.2761 20.7761 22.5 20.5 22.5H3.5C3.22386 22.5 3 22.2761 3 22V10.0097L1.31662 11.387C1.1029 11.5618 0.787885 11.5303 0.613021 11.3166C0.438157 11.1029 0.469658 10.7879 0.683381 10.613L11.6834 1.61302ZM3.62293 9.5H20.3771L12 2.64603L3.62293 9.5ZM20 12.5H16C15.7239 12.5 15.5 12.7239 15.5 13C15.5 13.2761 15.7239 13.5 16 13.5H20V15.5H16C15.7239 15.5 15.5 15.7239 15.5 16C15.5 16.2761 15.7239 16.5 16 16.5H20V18.5H16C15.7239 18.5 15.5 18.7239 15.5 19C15.5 19.2761 15.7239 19.5 16 19.5H20V21.5H14.5V15.5C14.5 15.2239 14.2761 15 14 15H10C9.72386 15 9.5 15.2239 9.5 15.5V21.5H4V19.5H8C8.27614 19.5 8.5 19.2761 8.5 19C8.5 18.7239 8.27614 18.5 8 18.5H4V16.5H8C8.27614 16.5 8.5 16.2761 8.5 16C8.5 15.7239 8.27614 15.5 8 15.5H4V13.5H14C14.2761 13.5 14.5 13.2761 14.5 13C14.5 12.7239 14.2761 12.5 14 12.5H4V10.5H20V12.5ZM10.5 21.5H13.5V16H10.5V21.5Z" fill="black" fill-opacity="0.7"/>
</svg>
