<svg width="24" height="24" viewBox="0 0 24 24" fill="none" xmlns="http://www.w3.org/2000/svg"><path fill-rule="evenodd" clip-rule="evenodd" d="M7.40235 4.73824C6.22332 6.142 5.68549 8.18029 6.9497 10.7814c.08641.1778.05996.3898-.06746.5409-.12743.1511-.33191.213-.52173.1578-.97871-.2843-1.81948-.644-2.41698-1.1962C3.32122 9.70873 3 8.96012 3 8c0-.98893.39925-1.73346 1.03772-2.29277.60443-.52948 1.41242-.88456 2.25574-1.16553.10793-.1541.22255-.30302.34315-.44661C8.03805 2.42652 10.2282 1.5 12 1.5c1.7718 0 3.9619.92652 5.3634 2.59509.1206.14359.2352.2925.3431.4466.8433.28098 1.6513.63606 2.2558 1.16554C20.6007 6.26654 21 7.01107 21 8c0 .96012-.3212 1.70873-.9435 2.2839-.5404.4994-1.2798.8414-2.1402 1.1125l-.3083 1.2333c-.1159.4633-.4442.8424-.8837 1.025-.2598.1079-.5967.2491-.9309.3924 1.2446.3466 2.4529.9043 3.4383 1.8234C20.618 17.1637 21.5 19.1125 21.5 22c0 .2761-.2239.5-.5.5H3c-.27614 0-.5-.2239-.5-.5 0-2.8836.88087-4.991 2.57636-6.3611 1.65444-1.3369 4.00194-1.903 6.82064-1.9164.2989-.3413.7397-.5558 1.228-.5558.4452 0 .8509.1784 1.1456.4685.0212-.0105.043-.0211.0652-.0319.1691-.0817.3864-.18.6188-.2823.4659-.205 1.0092-.4332 1.386-.5898.1488-.0618.2585-.1893.2972-.344l.3771-1.5085c.0084-.0335.0203-.0661.0354-.0973 1.2642-2.60111.7264-4.6394-.4527-6.04316C15.386 3.2957 13.4761 2.5 12 2.5c-1.4761 0-3.38606.7957-4.59765 2.23824zM14.7494 14.8232c-.0243.8743-.7479 1.5657-1.6244 1.5657-.8916 0-1.625-.7155-1.625-1.6111 0-.0165.0002-.033.0007-.0494-2.51735.0631-4.46341.6116-5.79581 1.6883-1.30916 1.0579-2.09969 2.687-2.19512 5.0833H20.4902c-.0947-2.3784-.869-3.8987-1.9406-4.8983-1.0241-.9552-2.369-1.4817-3.8002-1.7785zm3.638-4.6645c.4152-.18062.7427-.3804.9904-.60923C19.7774 9.18015 20 8.70655 20 8c0-.67774-.257-1.15543-.6967-1.54057-.2401-.2104-.5372-.39471-.8832-.56143.4504 1.21973.5111 2.65586-.0327 4.2607zM5.57993 5.898c-.45043 1.21973-.51113 2.65586.03272 4.2607-.41528-.18062-.7428-.3804-.9904-.60923C4.22264 9.18015 4 8.70655 4 8c0-.67774.257-1.15543.69665-1.54057.24019-.2104.53724-.39471.88328-.56143zM12 4.16667c-2.21501 0-4 1.77182-4 3.94444 0 2.17259 1.78499 3.94449 4 3.94449 2.215 0 4-1.7719 4-3.94449 0-2.17262-1.785-3.94444-4-3.94444zM7 8.11111c0-2.73658 2.24445-4.94444 5-4.94444 2.7555 0 5 2.20786 5 4.94444 0 2.73659-2.2445 4.94449-5 4.94449-2.75555 0-5-2.2079-5-4.94449zm6.125 6.05559c-.3511 0-.625.2794-.625.6111 0 .3316.2739.6111.625.6111s.625-.2795.625-.6111c0-.3317-.2739-.6111-.625-.6111z" fill="#000" fill-opacity=".7"/></svg>