<svg width="24" height="24" viewBox="0 0 24 24" fill="none" xmlns="http://www.w3.org/2000/svg">
<path d="M5.5 18.5H6C6 18.2239 5.77614 18 5.5 18V18.5ZM5.5 22H5C5 22.1962 5.11474 22.3742 5.29339 22.4553C5.47205 22.5364 5.68161 22.5055 5.82925 22.3763L5.5 22ZM9.5 18.5V18C9.37889 18 9.26189 18.044 9.17075 18.1237L9.5 18.5ZM3 4.5H21V3.5H3V4.5ZM21.5 5V17.5H22.5V5H21.5ZM2.5 17.5V5H1.5V17.5H2.5ZM5.5 18H3V19H5.5V18ZM1.5 17.5C1.5 18.2987 2.08787 19 3 19V18C2.68483 18 2.5 17.7922 2.5 17.5H1.5ZM21 4.5C21.3152 4.5 21.5 4.70777 21.5 5H22.5C22.5 4.20125 21.9121 3.5 21 3.5V4.5ZM3 3.5C2.08787 3.5 1.5 4.20125 1.5 5H2.5C2.5 4.70777 2.68483 4.5 3 4.5V3.5ZM5 18.5V22H6V18.5H5ZM5.82925 22.3763L9.82925 18.8763L9.17075 18.1237L5.17075 21.6237L5.82925 22.3763ZM9.5 19H21V18H9.5V19ZM21.5 17.5C21.5 17.7761 21.2761 18 21 18V19C21.8284 19 22.5 18.3284 22.5 17.5H21.5ZM12 11.5V12.5C12.5523 12.5 13 12.0523 13 11.5H12ZM12 11.5H11C11 12.0523 11.4477 12.5 12 12.5V11.5ZM12 11.5V10.5C11.4477 10.5 11 10.9477 11 11.5H12ZM12 11.5H13C13 10.9477 12.5523 10.5 12 10.5V11.5ZM16 11.5V12.5C16.5523 12.5 17 12.0523 17 11.5H16ZM16 11.5H15C15 12.0523 15.4477 12.5 16 12.5V11.5ZM16 11.5V10.5C15.4477 10.5 15 10.9477 15 11.5H16ZM16 11.5H17C17 10.9477 16.5523 10.5 16 10.5V11.5ZM8 11.5V12.5C8.55228 12.5 9 12.0523 9 11.5H8ZM8 11.5H7C7 12.0523 7.44772 12.5 8 12.5V11.5ZM8 11.5V10.5C7.44772 10.5 7 10.9477 7 11.5H8ZM8 11.5H9C9 10.9477 8.55228 10.5 8 10.5V11.5Z" fill="black" fill-opacity="0.7"/>
</svg>
