<svg width="24" height="24" viewBox="0 0 24 24" fill="none" xmlns="http://www.w3.org/2000/svg">
<path fill-rule="evenodd" clip-rule="evenodd" d="M12 2.5C6.75329 2.5 2.5 6.75329 2.5 12C2.5 17.2467 6.75329 21.5 12 21.5C17.2467 21.5 21.5 17.2467 21.5 12C21.5 6.75329 17.2467 2.5 12 2.5ZM1.5 12C1.5 6.20101 6.20101 1.5 12 1.5C17.799 1.5 22.5 6.20101 22.5 12C22.5 17.799 17.799 22.5 12 22.5C6.20101 22.5 1.5 17.799 1.5 12ZM12.1913 6.03808C12.3782 6.11547 12.5 6.29779 12.5 6.50002V16L15 16C15.2761 16 15.5 16.2239 15.5 16.5C15.5 16.7761 15.2761 17 15 17H9C8.72385 17 8.5 16.7761 8.5 16.5C8.5 16.2239 8.72386 16 9 16L11.5 16V7.70713L9.85355 9.35357C9.65829 9.54883 9.34171 9.54883 9.14645 9.35357C8.95118 9.15831 8.95118 8.84173 9.14645 8.64646L11.6464 6.14646C11.7894 6.00347 12.0045 5.96069 12.1913 6.03808Z" fill="black" fill-opacity="0.7"/>
</svg>
