<svg width="24" height="24" viewBox="0 0 24 24" fill="none" xmlns="http://www.w3.org/2000/svg">
<path fill-rule="evenodd" clip-rule="evenodd" d="M12 2.5C6.75329 2.5 2.5 6.75329 2.5 12C2.5 17.2467 6.75329 21.5 12 21.5C17.2467 21.5 21.5 17.2467 21.5 12C21.5 6.75329 17.2467 2.5 12 2.5ZM1.5 12C1.5 6.20101 6.20101 1.5 12 1.5C17.799 1.5 22.5 6.20101 22.5 12C22.5 17.799 17.799 22.5 12 22.5C6.20101 22.5 1.5 17.799 1.5 12Z" fill="black" fill-opacity="0.7"/>
<path fill-rule="evenodd" clip-rule="evenodd" d="M8.49999 6.99996C8.49999 6.72382 8.72385 6.49996 8.99999 6.49996H15C15.191 6.49996 15.3652 6.60873 15.4491 6.78028C15.533 6.95183 15.5119 7.15619 15.3947 7.30693L12.4431 11.1018C13.174 11.2622 13.8176 11.6011 14.32 12.0395C15.0214 12.6515 15.4873 13.4966 15.465 14.3618C15.4378 15.4218 14.9831 16.2334 14.301 16.7649C13.6313 17.2867 12.7702 17.5188 11.9355 17.4988C11.1007 17.4787 10.2502 17.2056 9.59886 16.663C8.93644 16.1111 8.49999 15.2948 8.49999 14.2548C8.49999 13.9786 8.72385 13.7548 8.99999 13.7548C9.27613 13.7548 9.49999 13.9786 9.49999 14.2548C9.49999 14.9889 9.79751 15.5269 10.239 15.8947C10.6915 16.2717 11.3147 16.4836 11.9595 16.4991C12.6044 16.5145 13.2288 16.3326 13.6864 15.9761C14.1315 15.6292 14.4458 15.0981 14.4654 14.3361C14.4779 13.8462 14.2054 13.2667 13.6626 12.793C13.1277 12.3262 12.3683 12 11.5 12C11.309 12 11.1347 11.8912 11.0508 11.7196C10.9669 11.5481 10.9881 11.3437 11.1053 11.193L13.9777 7.49996H8.99999C8.72385 7.49996 8.49999 7.2761 8.49999 6.99996Z" fill="black" fill-opacity="0.7"/>
</svg>
