<svg width="24" height="24" viewBox="0 0 24 24" fill="none" xmlns="http://www.w3.org/2000/svg">
<path fill-rule="evenodd" clip-rule="evenodd" d="M12 2.5C6.75329 2.5 2.5 6.75329 2.5 12C2.5 17.2467 6.75329 21.5 12 21.5C17.2467 21.5 21.5 17.2467 21.5 12C21.5 6.75329 17.2467 2.5 12 2.5ZM1.5 12C1.5 6.20101 6.20101 1.5 12 1.5C17.799 1.5 22.5 6.20101 22.5 12C22.5 17.799 17.799 22.5 12 22.5C6.20101 22.5 1.5 17.799 1.5 12ZM10.8649 7.38984C10.3892 7.74585 9.99999 8.39638 9.99999 9.47796C9.99999 9.7541 9.77613 9.97796 9.49999 9.97796C9.22385 9.97796 8.99999 9.7541 8.99999 9.47796C8.99999 8.13577 9.49711 7.16449 10.2657 6.58923C11.0206 6.02432 11.9775 5.88714 12.8196 6.08619C13.6617 6.28526 14.4423 6.83517 14.7956 7.70541C15.1528 8.58502 15.029 9.67867 14.2924 10.8749C13.6467 11.9793 12.5391 13.4705 11.6066 14.6705C11.2125 15.1778 10.8462 15.6374 10.5537 16H15.5C15.7761 16 16 16.2239 16 16.5C16 16.7761 15.7761 17 15.5 17H9.49999C9.30603 17 9.12956 16.8878 9.04725 16.7122C8.96493 16.5365 8.99163 16.3291 9.11573 16.1801L9.12426 16.1698L9.15008 16.1387L9.24997 16.0176C9.33679 15.9121 9.46242 15.7587 9.61718 15.5678C9.92677 15.186 10.3525 14.6547 10.817 14.057C11.7515 12.8543 12.8237 11.407 13.4318 10.3654L13.438 10.3549C14.0621 9.34362 14.0739 8.5861 13.8691 8.08161C13.66 7.56647 13.1792 7.19876 12.5895 7.05937C11.9998 6.91996 11.3544 7.02349 10.8649 7.38984Z" fill="black" fill-opacity="0.7"/>
</svg>
