<svg width="24" height="24" viewBox="0 0 24 24" fill="none" xmlns="http://www.w3.org/2000/svg">
<path fill-rule="evenodd" clip-rule="evenodd" d="M6.5 3C6.5 2.72386 6.72386 2.5 7 2.5H17C17.2761 2.5 17.5 2.72386 17.5 3V11.5H22C22.2761 11.5 22.5 11.7239 22.5 12V20.5H23C23.2761 20.5 23.5 20.7239 23.5 21C23.5 21.2761 23.2761 21.5 23 21.5H1C0.723858 21.5 0.5 21.2761 0.5 21C0.5 20.7239 0.723858 20.5 1 20.5H1.5V12C1.5 11.7239 1.72386 11.5 2 11.5H6.5V3ZM7.5 11.5H16.5V3.5H13.8598C13.8623 3.52047 13.8636 3.54133 13.8636 3.5625V5.5C13.8636 5.66334 13.7839 5.81639 13.6499 5.90992C13.516 6.00345 13.3449 6.02567 13.1915 5.96944L12 5.53255L10.8085 5.96944C10.6551 6.02567 10.484 6.00345 10.3501 5.90992C10.2161 5.81639 10.1364 5.66334 10.1364 5.5V3.5625C10.1364 3.54133 10.1377 3.52047 10.1402 3.5H7.5V11.5ZM11.1325 3.5C11.135 3.52047 11.1364 3.54133 11.1364 3.5625V4.78411L11.8279 4.53056C11.939 4.48981 12.061 4.48981 12.1721 4.53056L12.8636 4.78412V3.5625C12.8636 3.54133 12.865 3.52047 12.8675 3.5H11.1325ZM7.86364 12.5H6.13636V13.7841L6.82787 13.5306C6.93901 13.4898 7.06099 13.4898 7.17213 13.5306L7.86364 13.7841V12.5ZM5.13636 12.5H2.5V20.5H11.5V12.5H8.86364V14.5C8.86364 14.6633 8.78385 14.8164 8.64994 14.9099C8.51602 15.0034 8.34487 15.0257 8.19151 14.9694L7 14.5326L5.80849 14.9694C5.65513 15.0257 5.48398 15.0034 5.35006 14.9099C5.21615 14.8164 5.13636 14.6633 5.13636 14.5V12.5ZM12.5 12.5V20.5H21.5V12.5H18.8598C18.8623 12.5205 18.8636 12.5413 18.8636 12.5625V14.5C18.8636 14.6633 18.7838 14.8164 18.6499 14.9099C18.516 15.0034 18.3449 15.0257 18.1915 14.9694L17 14.5326L15.8085 14.9694C15.6551 15.0257 15.484 15.0034 15.3501 14.9099C15.2161 14.8164 15.1364 14.6633 15.1364 14.5V12.5625C15.1364 12.5413 15.1377 12.5205 15.1402 12.5H12.5ZM16.1325 12.5C16.135 12.5205 16.1364 12.5413 16.1364 12.5625V13.7841L16.8279 13.5306C16.939 13.4898 17.061 13.4898 17.1721 13.5306L17.8636 13.7841V12.5625C17.8636 12.5413 17.865 12.5205 17.8675 12.5H16.1325ZM8 9.5C8 9.22386 8.22386 9 8.5 9H10C10.2761 9 10.5 9.22386 10.5 9.5C10.5 9.77614 10.2761 10 10 10H8.5C8.22386 10 8 9.77614 8 9.5ZM11.0455 9.5C11.0455 9.22386 11.2693 9 11.5455 9H12.4545C12.7307 9 12.9545 9.22386 12.9545 9.5C12.9545 9.77614 12.7307 10 12.4545 10H11.5455C11.2693 10 11.0455 9.77614 11.0455 9.5ZM3 18.5C3 18.2239 3.22386 18 3.5 18H5C5.27614 18 5.5 18.2239 5.5 18.5C5.5 18.7761 5.27614 19 5 19H3.5C3.22386 19 3 18.7761 3 18.5ZM6 18.5C6 18.2239 6.22386 18 6.5 18H7.45455C7.73069 18 7.95455 18.2239 7.95455 18.5C7.95455 18.7761 7.73069 19 7.45455 19H6.5C6.22386 19 6 18.7761 6 18.5ZM13 18.5C13 18.2239 13.2239 18 13.5 18H15C15.2761 18 15.5 18.2239 15.5 18.5C15.5 18.7761 15.2761 19 15 19H13.5C13.2239 19 13 18.7761 13 18.5ZM16.0455 18.5C16.0455 18.2239 16.2693 18 16.5455 18H17.4545C17.7307 18 17.9545 18.2239 17.9545 18.5C17.9545 18.7761 17.7307 19 17.4545 19H16.5455C16.2693 19 16.0455 18.7761 16.0455 18.5Z" fill="black" fill-opacity="0.7"/>
</svg>
