<svg width="24" height="24" viewBox="0 0 24 24" fill="none" xmlns="http://www.w3.org/2000/svg">
<path fill-rule="evenodd" clip-rule="evenodd" d="M11.6856 1.61419C11.8698 1.46352 12.1347 1.46355 12.3189 1.61426L23.3179 10.6155C23.5316 10.7904 23.563 11.1054 23.3882 11.3191C23.2133 11.5328 22.8983 11.5643 22.6846 11.3894L21 10.0108L21 22.0021C21 22.1348 20.9473 22.262 20.8535 22.3557C20.7598 22.4495 20.6326 22.5022 20.4999 22.5021L3.49995 22.5003C3.22382 22.5002 3 22.2764 3 22.0003L3.00001 10.011L1.31779 11.387C1.10405 11.5618 0.789042 11.5303 0.614202 11.3166C0.439361 11.1028 0.470897 10.7878 0.684639 10.613L11.6856 1.61419ZM3.93221 9.24842C3.97531 9.32232 4.00001 9.40827 4.00001 9.49999L4 21.5003L7.00001 21.5007L7.00001 19.0004L7.00001 13C7.00001 12.7239 7.22387 12.5 7.50001 12.5L16.5 12.5C16.7762 12.5 17 12.7239 17 13L17 18.999C17 18.9993 17 18.9987 17 18.999C17 18.9993 17 19.0007 17 19.001L17 21.5018L20 21.5021L20 9.19243L12.0021 2.64724L3.93221 9.24842ZM16 21.5016L16 19.5L8.00001 19.5L8.00001 21.5008L16 21.5016ZM8.00001 18.5L16 18.5L16 16.5L8.00001 16.5L8.00001 18.5ZM8.00001 15.5L16 15.5L16 13.5L8.00001 13.5L8.00001 15.5Z" fill="black" fill-opacity="0.7"/>
</svg>
