<svg width="24" height="24" viewBox="0 0 24 24" fill="none" xmlns="http://www.w3.org/2000/svg">
<path fill-rule="evenodd" clip-rule="evenodd" d="M12 2.5C10.2291 2.5 8.80769 3.9099 8.80769 5.63177C8.80769 7.35365 10.2291 8.76355 12 8.76355C13.7709 8.76355 15.1923 7.35365 15.1923 5.63177C15.1923 3.9099 13.7709 2.5 12 2.5ZM7.80769 5.63177C7.80769 3.3421 9.69248 1.5 12 1.5C14.3075 1.5 16.1923 3.3421 16.1923 5.63177C16.1923 7.66084 14.7122 9.33841 12.7693 9.69401C14.4442 9.7939 15.6556 10.2111 16.4815 10.6426C16.9539 10.8893 17.2966 11.1389 17.5256 11.3322C17.5997 11.3947 17.6619 11.4514 17.7126 11.5C18.6028 11.5019 19.4616 11.6227 20.1816 11.9034C20.3736 11.9782 20.5 12.1631 20.5 12.3692V14.05C21.6411 14.2816 22.5 15.2905 22.5 16.5C22.5 17.7095 21.6411 18.7184 20.5 18.95V20.6242C20.5 20.7893 20.4185 20.9438 20.2821 21.037C20.1458 21.1301 19.9723 21.15 19.8184 21.09C18.766 20.6798 17.2257 20.665 15.7392 20.9436C14.2431 21.224 12.949 21.7733 12.349 22.3581C12.1548 22.5473 11.8452 22.5473 11.651 22.3581C11.051 21.7733 9.75692 21.224 8.26084 20.9436C6.77432 20.665 5.23405 20.6798 4.1816 21.09C4.02774 21.15 3.8542 21.1301 3.71786 21.037C3.58153 20.9438 3.5 20.7893 3.5 20.6242V18.95C2.35888 18.7184 1.5 17.7095 1.5 16.5C1.5 15.2905 2.35888 14.2816 3.5 14.05V12.3692C3.5 12.1631 3.62641 11.9782 3.8184 11.9033C4.53828 11.6227 5.39707 11.502 6.28709 11.5C6.33774 11.4514 6.39973 11.3949 6.47362 11.3324C6.70237 11.1391 7.04483 10.8894 7.517 10.6426C8.34273 10.211 9.55423 9.79382 11.2305 9.69398C9.28776 9.33832 7.80769 7.66078 7.80769 5.63177ZM7.83557 11.6072C8.0408 11.6351 8.2444 11.6682 8.44504 11.7058C9.80595 11.9608 11.1416 12.4467 12 13.0904C12.8584 12.4467 14.194 11.9608 15.555 11.7058C15.7553 11.6682 15.9585 11.6353 16.1634 11.6073C16.1169 11.5813 16.0686 11.5551 16.0185 11.5289C15.2159 11.1096 13.9205 10.6715 12 10.6715C10.0776 10.6715 8.78224 11.1097 7.98024 11.5289C7.93016 11.555 7.88195 11.5812 7.83557 11.6072ZM11.5 13.9685C10.8501 13.4352 9.6415 12.9474 8.26084 12.6887C6.91802 12.437 5.53134 12.4247 4.5 12.7271V14.05C5.64112 14.2816 6.5 15.2905 6.5 16.5C6.5 17.7095 5.64112 18.7184 4.5 18.95V19.948C5.69567 19.6639 7.13351 19.715 8.44504 19.9608C9.56425 20.1705 10.6664 20.5363 11.5 21.0177V13.9685ZM12.5 21.0177C13.3336 20.5363 14.4358 20.1705 15.555 19.9608C16.8665 19.715 18.3043 19.6639 19.5 19.948V18.95C18.3589 18.7184 17.5 17.7095 17.5 16.5C17.5 15.2905 18.3589 14.2816 19.5 14.05V12.7271C18.4687 12.4247 17.082 12.437 15.7392 12.6887C14.3585 12.9474 13.1499 13.4352 12.5 13.9685V21.0177ZM4.00171 18C4.82935 17.9991 5.5 17.3279 5.5 16.5C5.5 15.6716 4.82843 15 4 15C3.17157 15 2.5 15.6716 2.5 16.5C2.5 17.3279 3.17065 17.9991 3.99829 18C3.99886 18 3.99943 18 4 18C4.00057 18 4.00114 18 4.00171 18ZM20 18C20.8284 18 21.5 17.3284 21.5 16.5C21.5 15.6716 20.8284 15 20 15C19.1716 15 18.5 15.6716 18.5 16.5C18.5 17.3284 19.1716 18 20 18Z" fill="black" fill-opacity="0.7"/>
</svg>
