<svg width="24" height="24" viewBox="0 0 24 24" fill="none" xmlns="http://www.w3.org/2000/svg">
<path fill-rule="evenodd" clip-rule="evenodd" d="M20.3621 3.65517C20.5525 3.85514 20.5448 4.17163 20.3448 4.36207L9.84483 14.3621C9.74703 14.4552 9.61572 14.5048 9.48076 14.4996C9.34581 14.4944 9.2187 14.4349 9.12835 14.3345L5.62835 10.4456C5.44362 10.2403 5.46026 9.9242 5.66552 9.73947C5.87077 9.55474 6.18692 9.57138 6.37165 9.77663L9.5276 13.2832L19.6552 3.63793C19.8551 3.44749 20.1716 3.45521 20.3621 3.65517ZM1.5 4C1.5 3.72386 1.72386 3.5 2 3.5H15.5C15.7761 3.5 16 3.72386 16 4C16 4.27614 15.7761 4.5 15.5 4.5H2.5V19.5H17.5V10.5C17.5 10.2239 17.7239 10 18 10C18.2761 10 18.5 10.2239 18.5 10.5V20C18.5 20.2761 18.2761 20.5 18 20.5H2C1.72386 20.5 1.5 20.2761 1.5 20V4Z" fill="black" fill-opacity="0.7"/>
</svg>
