<svg width="24" height="24" viewBox="0 0 24 24" fill="none" xmlns="http://www.w3.org/2000/svg">
<path d="M17.5 22V22.5C17.7569 22.5 17.972 22.3054 17.9975 22.0498L17.5 22ZM6.5 22L6.00248 22.0498C6.02804 22.3054 6.24312 22.5 6.5 22.5V22ZM4 7H3.5C3.5 7.27614 3.72386 7.5 4 7.5V7ZM20 7V7.5C20.2761 7.5 20.5 7.27614 20.5 7H20ZM12.5 9.5C12.5 9.22386 12.2761 9 12 9C11.7239 9 11.5 9.22386 11.5 9.5H12.5ZM11.5 19.5C11.5 19.7761 11.7239 20 12 20C12.2761 20 12.5 19.7761 12.5 19.5H11.5ZM15.9976 9.54879C16.0246 9.27397 15.8236 9.02933 15.5488 9.00238C15.274 8.97544 15.0293 9.17638 15.0024 9.4512L15.9976 9.54879ZM14.0214 19.455C13.9945 19.7298 14.1954 19.9745 14.4702 20.0014C14.7451 20.0284 14.9897 19.8274 15.0167 19.5526L14.0214 19.455ZM8.9976 9.45121C8.97065 9.17639 8.72602 8.97544 8.45119 9.00239C8.17637 9.02934 7.97543 9.27398 8.00238 9.5488L8.9976 9.45121ZM8.98333 19.5526C9.01028 19.8274 9.25492 20.0284 9.52974 20.0014C9.80457 19.9745 10.0055 19.7298 9.97856 19.455L8.98333 19.5526ZM18.5025 6.95025L17.0025 21.9502L17.9975 22.0498L19.4975 7.04975L18.5025 6.95025ZM17.5 21.5H6.5V22.5H17.5V21.5ZM6.99752 21.9502L5.49752 6.95025L4.50248 7.04975L6.00248 22.0498L6.99752 21.9502ZM4 7.5H20V6.5H4V7.5ZM20.5 7V6.5H19.5V7H20.5ZM18 4H6V5H18V4ZM3.5 6.5V7H4.5V6.5H3.5ZM6 4C4.61929 4 3.5 5.11929 3.5 6.5H4.5C4.5 5.67157 5.17157 5 6 5V4ZM20.5 6.5C20.5 5.11929 19.3807 4 18 4V5C18.8284 5 19.5 5.67157 19.5 6.5H20.5ZM9.5 4.5V4H8.5V4.5H9.5ZM11 2.5H13V1.5H11V2.5ZM14.5 4V4.5H15.5V4H14.5ZM13 2.5C13.8284 2.5 14.5 3.17157 14.5 4H15.5C15.5 2.61929 14.3807 1.5 13 1.5V2.5ZM9.5 4C9.5 3.17157 10.1716 2.5 11 2.5V1.5C9.61929 1.5 8.5 2.61929 8.5 4H9.5ZM15.0024 9.4512L14.0214 19.455L15.0167 19.5526L15.9976 9.54879L15.0024 9.4512ZM8.00238 9.5488L8.98333 19.5526L9.97856 19.455L8.9976 9.45121L8.00238 9.5488ZM11.5 9.5V19.5H12.5V9.5H11.5Z" fill="black" fill-opacity="0.7"/>
</svg>
