<svg fill="none" xmlns="http://www.w3.org/2000/svg" width='24' height='24' viewBox="0 0 24 24">
  <path d="M1 5v-.5c-.276142 0-.5.22386-.5.5H1zm18.4792 5.3356l-.4925.086.4925-.086zm.2549 1.4598l-.4925.086.4925-.086zm.8612.822l.0785-.4938-.0785.4938zm1.5293.2433l-.0785.4938.0785-.4938zM23 17v.5c.2761 0 .5-.2239.5-.5H23zM15.1429 5h.5c0-.27614-.2239-.5-.5-.5V5zm0 12v.5c.2761 0 .5-.2239.5-.5h-.5zM7 13.5c-.27614 0-.5.2239-.5.5s.22386.5.5.5v-1zm-4 1c.27614 0 .5-.2239.5-.5s-.22386-.5-.5-.5v1zM1 17H.5c0 .2761.223858.5.5.5V17zm.5-6c-.27614 0-.5.2239-.5.5s.22386.5.5.5v-1zM12 12c.2761 0 .5-.2239.5-.5s-.2239-.5-.5-.5v1zm3.6429 2V9.5h-1V14h1zm-.5-4h3.303V9h-3.303v1zm3.8438.4216l.2549 1.4598.9851-.172-.2549-1.4598-.9851.172zm1.53 2.6896l1.5294.2433.1571-.9876-1.5294-.2433-.1571.9876zm1.9833.7359V17h1v-3.1529h-1zM15.6429 9.5V5h-1v4.5h1zm-.5-5H1v1h14.1429v-1zm.5 12.5v-3h-1v3h1zM7 14.5h8.1429v-1H7v1zm-6 0h2v-1H1v1zm21.0461-1.1455c.2793.0445.4539.2664.4539.4926h1c0-.7514-.5658-1.3639-1.2968-1.4802l-.1571.9876zm-2.8045-1.4731c.1125.6444.6355 1.1281 1.2751 1.2298l.1571-.9876c-.2434-.0387-.4125-.2156-.4471-.4142l-.9851.172zM18.4459 10c.2858 0 .5012.1949.5408.4216l.9851-.172C19.843 9.51196 19.1842 9 18.4459 9v1zM.5 14v3h1v-3h-1zm1-2H12v-1H1.5v1zM7 17.5h8.1429v-1H7v1zm-6 0h2v-1H1v1zm5.5-.5c0 .8284-.67157 1.5-1.5 1.5v1c1.38071 0 2.5-1.1193 2.5-2.5h-1zM5 18.5c-.82843 0-1.5-.6716-1.5-1.5h-1c0 1.3807 1.11929 2.5 2.5 2.5v-1zM3.5 17c0-.8284.67157-1.5 1.5-1.5v-1c-1.38071 0-2.5 1.1193-2.5 2.5h1zM5 15.5c.82843 0 1.5.6716 1.5 1.5h1c0-1.3807-1.11929-2.5-2.5-2.5v1zM20.5 17c0 .8284-.6716 1.5-1.5 1.5v1c1.3807 0 2.5-1.1193 2.5-2.5h-1zM19 18.5c-.8284 0-1.5-.6716-1.5-1.5h-1c0 1.3807 1.1193 2.5 2.5 2.5v-1zM17.5 17c0-.8284.6716-1.5 1.5-1.5v-1c-1.3807 0-2.5 1.1193-2.5 2.5h1zm1.5-1.5c.8284 0 1.5.6716 1.5 1.5h1c0-1.3807-1.1193-2.5-2.5-2.5v1zM.5 5v9h1V5h-1zM15 17.5h2v-1h-2v1zm6 0h2v-1h-2v1z" fill="#000" fill-opacity=".7"/>
</svg>
