<svg width="24" height="24" viewBox="0 0 24 24" fill="none" xmlns="http://www.w3.org/2000/svg">
<path d="M8.5 4V11.5789C8.5 12.4723 8.86875 13.3291 9.52513 13.9608C10.1815 14.5925 11.0717 14.9474 12 14.9474C12.9283 14.9474 13.8185 14.5925 14.4749 13.9608C15.1313 13.3291 15.5 12.4723 15.5 11.5789V4H17.25V11.5789C17.25 12.919 16.6969 14.2041 15.7123 15.1517C14.7277 16.0993 13.3924 16.6316 12 16.6316C10.6076 16.6316 9.27226 16.0993 8.28769 15.1517C7.30312 14.2041 6.75 12.919 6.75 11.5789V4H8.5ZM5 18.3158H19V20H5V18.3158Z" fill="black" fill-opacity="0.8"/>
</svg>
