<svg width="24" height="24" viewBox="0 0 24 24" fill="none" xmlns="http://www.w3.org/2000/svg">
<path fill-rule="evenodd" clip-rule="evenodd" d="M12 3.5C8.53034 3.5 5.79505 5.77621 5.52274 8.53682C5.5046 8.72072 5.38651 8.87962 5.21565 8.95002C3.03411 9.84899 1.5 11.9959 1.5 14.5C1.5 17.6582 3.94038 20.2469 7.03793 20.4825C7.07194 20.4851 7.10494 20.491 7.13662 20.5H16.8634C16.8951 20.491 16.9281 20.4851 16.9621 20.4825C20.0596 20.2469 22.5 17.6582 22.5 14.5C22.5 11.9959 20.9659 9.84899 18.7843 8.95002C18.6135 8.87962 18.4954 8.72072 18.4773 8.53682C18.2049 5.77621 15.4697 3.5 12 3.5ZM4.56439 8.14358C5.05401 4.90432 8.25321 2.5 12 2.5C15.7468 2.5 18.946 4.90432 19.4356 8.14359C21.8344 9.25324 23.5 11.6816 23.5 14.5C23.5 18.1375 20.7258 21.1266 17.1774 21.4676C17.1223 21.4885 17.0625 21.5 17 21.5H7C6.93752 21.5 6.87772 21.4885 6.82258 21.4676C3.2742 21.1266 0.5 18.1375 0.5 14.5C0.5 11.6816 2.16556 9.25323 4.56439 8.14358ZM7.64645 12.6464L11.6464 8.64645C11.8417 8.45118 12.1583 8.45118 12.3536 8.64645L16.3536 12.6464C16.5488 12.8417 16.5488 13.1583 16.3536 13.3536C16.1583 13.5488 15.8417 13.5488 15.6464 13.3536L12.5 10.2071V17C12.5 17.2761 12.2761 17.5 12 17.5C11.7239 17.5 11.5 17.2761 11.5 17V10.2071L8.35355 13.3536C8.15829 13.5488 7.84171 13.5488 7.64645 13.3536C7.45118 13.1583 7.45118 12.8417 7.64645 12.6464Z" fill="black" fill-opacity="0.7"/>
</svg>
