<svg width="24" height="24" viewBox="0 0 24 24" fill="none" xmlns="http://www.w3.org/2000/svg">
<path d="M4 20H3.5C3.5 20.2761 3.72386 20.5 4 20.5V20ZM20 20V20.5C20.2761 20.5 20.5 20.2761 20.5 20H20ZM4.5 20C4.5 18.2793 4.63028 16.6976 5.56886 15.5271C6.48902 14.3795 8.30066 13.5 12 13.5V12.5C8.17608 12.5 5.98771 13.4062 4.78869 14.9015C3.60808 16.3738 3.5 18.2921 3.5 20H4.5ZM12 13.5C15.6993 13.5 17.511 14.3795 18.4311 15.5271C19.3697 16.6976 19.5 18.2793 19.5 20H20.5C20.5 18.2921 20.3919 16.3738 19.2113 14.9015C18.0123 13.4062 15.8239 12.5 12 12.5V13.5ZM15.5 8C15.5 9.933 13.933 11.5 12 11.5V12.5C14.4853 12.5 16.5 10.4853 16.5 8H15.5ZM12 11.5C10.067 11.5 8.5 9.933 8.5 8H7.5C7.5 10.4853 9.51472 12.5 12 12.5V11.5ZM8.5 8C8.5 6.067 10.067 4.5 12 4.5V3.5C9.51472 3.5 7.5 5.51472 7.5 8H8.5ZM12 4.5C13.933 4.5 15.5 6.067 15.5 8H16.5C16.5 5.51472 14.4853 3.5 12 3.5V4.5ZM20 19.5H4V20.5H20V19.5Z" fill="black" fill-opacity="0.7"/>
</svg>
