<svg width="24" height="24" viewBox="0 0 24 24" fill="none" xmlns="http://www.w3.org/2000/svg">
<path fill-rule="evenodd" clip-rule="evenodd" d="M2.5 4C2.5 2.61929 3.61929 1.5 5 1.5H19C20.3807 1.5 21.5 2.61929 21.5 4V20C21.5 21.3807 20.3807 22.5 19 22.5H5C3.61929 22.5 2.5 21.3807 2.5 20V4ZM9.5 21.5H14.5V18C14.5 17.7239 14.2761 17.5 14 17.5H10C9.72386 17.5 9.5 17.7239 9.5 18V21.5ZM15.5 21.5V18C15.5 17.1716 14.8284 16.5 14 16.5H10C9.17157 16.5 8.5 17.1716 8.5 18V21.5H5C4.17157 21.5 3.5 20.8284 3.5 20V4C3.5 3.17157 4.17157 2.5 5 2.5H19C19.8284 2.5 20.5 3.17157 20.5 4V20C20.5 20.8284 19.8284 21.5 19 21.5H15.5ZM12.7293 4.30526C12.9435 4.36695 13.0909 4.56289 13.0909 4.78572V8.07508L14.9802 8.00039C15.1627 7.99318 15.3345 8.08597 15.4286 8.24245C15.5226 8.39894 15.5239 8.59424 15.4319 8.75194L11.9319 14.7519C11.8181 14.9471 11.5876 15.0416 11.3695 14.9827C11.1515 14.9237 11 14.7259 11 14.5V11H9C8.81802 11 8.65041 10.9011 8.56238 10.7418C8.47436 10.5826 8.47982 10.388 8.57665 10.234L12.1676 4.51968C12.2861 4.33101 12.5152 4.24357 12.7293 4.30526ZM9.90473 10H11.5C11.7761 10 12 10.2239 12 10.5V12.6505L14.1087 9.03563L12.6107 9.09485C12.4747 9.10022 12.3425 9.04998 12.2444 8.95571C12.1463 8.86144 12.0909 8.73127 12.0909 8.59524V6.5211L9.90473 10ZM10.5 19.5C10.5 19.2239 10.7239 19 11 19H13C13.2761 19 13.5 19.2239 13.5 19.5C13.5 19.7761 13.2761 20 13 20H11C10.7239 20 10.5 19.7761 10.5 19.5Z" fill="black" fill-opacity="0.7"/>
</svg>
