<svg width="24" height="24" fill="none" xmlns="http://www.w3.org/2000/svg"><path fill-rule="evenodd" clip-rule="evenodd" d="M1.64645 4.79289c.19526-.19526.51184-.19526.7071 0L16.3536 18.7929c.1952.1953.1952.5118 0 .7071-.1953.1953-.5119.1953-.7072 0L1.64645 5.5c-.19527-.19526-.19527-.51185 0-.70711zM7 6.64645c0-.27615.22386-.5.5-.5H16c.2761 0 .5.22385.5.5v8.49995c0 .2762-.2239.5-.5.5s-.5-.2238-.5-.5V7.14645h-8c-.27614 0-.5-.22386-.5-.5zm-6 .5c.27614 0 .5.22385.5.5V18.1464H12c.2761 0 .5.2239.5.5 0 .2762-.2239.5-.5.5H1c-.276142 0-.5-.2238-.5-.5V7.64645c0-.27615.223858-.5.5-.5zm20.763 1.75788c-.0258.01413-.051.03087-.0753.05034-.0063.005-.0127.00984-.0191.01453l-2.8753 2.0822c-.2237.162-.5363.112-.6983-.1117-.1619-.2236-.1119-.5363.1117-.6982l2.8665-2.07583c.5108-.40195 1.1469-.40574 1.6396-.14042.4546.24474.7872.71845.7872 1.31985v8.3013c0 .7988-.5867 1.3723-1.2665 1.4833-.3903.0637-.8113-.025-1.1695-.3112l-.001-.0008-2.8716-2.2778-.0021-.0017c-.216-.1713-.2526-.485-.0819-.7014.1707-.2164.4843-.2539.7012-.0838l.0021.0017 3.0042 2.3563c.1452.0585.2982.0428.4227-.0246.1526-.0826.2624-.2431.2624-.44V9.3451c0-.37169-.3912-.61343-.7236-.44721-.0044.00222-.0089.00437-.0134.00644z" fill="#4F4F4F"/></svg>