<svg width="24" height="24" fill="none" xmlns="http://www.w3.org/2000/svg"><path fill-rule="evenodd" clip-rule="evenodd" d="M.5 6c0-.27614.223858-.5.5-.5h15c.2761 0 .5.22386.5.5v12c0 .2761-.2239.5-.5.5H1c-.276142 0-.5-.2239-.5-.5V6zm1 .5v11h14v-11h-14zm20.263 1.75789c-.0258.01412-.051.03086-.0753.05033-.0063.005-.0127.00985-.0191.01454L18.7933 10.405c-.2237.1619-.5363.1119-.6983-.1117-.1619-.2237-.1119-.5363.1117-.69826l2.8665-2.07581c.5108-.40196 1.1469-.40575 1.6396-.14042.4546.24474.7872.71845.7872 1.31985V17c0 .7987-.5867 1.3722-1.2665 1.4832-.3903.0638-.8113-.025-1.1695-.3111-.0004-.0003-.0007-.0005-.001-.0008l-2.8716-2.2779-.0021-.0017c-.216-.1713-.2526-.485-.0819-.7014.1707-.2163.4843-.2538.7012-.0837l.0021.0017 3.0042 2.3563c.1452.0584.2982.0427.4227-.0246.1526-.0827.2624-.2431.2624-.44V8.69866c0-.37169-.3912-.61344-.7236-.44721-.0044.00221-.0089.00436-.0134.00644z" fill="#4F4F4F"/></svg>