<svg width="24" height="24" viewBox="0 0 24 24" fill="none" xmlns="http://www.w3.org/2000/svg"><path fill-rule="evenodd" clip-rule="evenodd" d="M12 4.414a.5.5 0 00-.854-.353l-4 4a1.5 1.5 0 01-1.06.439H3a.5.5 0 00-.5.5v6a.5.5 0 00.5.5h3.086a1.5 1.5 0 011.06.44l4 4a.5.5 0 00.854-.354V4.414zm-1.56-1.06c.944-.945 2.56-.276 2.56 1.06v15.172c0 1.336-1.616 2.005-2.56 1.06l-4-4a.5.5 0 00-.354-.146H3A1.5 1.5 0 011.5 15V9A1.5 1.5 0 013 7.5h3.086a.5.5 0 00.353-.146l4-4zM19.6 5.7a.5.5 0 01.7-.1c1.18.885 2.2 3.013 2.2 6.4 0 3.387-1.02 5.515-2.2 6.4a.5.5 0 01-.6-.8c.82-.615 1.8-2.36 1.8-5.6 0-3.24-.98-4.985-1.8-5.6a.5.5 0 01-.1-.7zm-2.524 1.035a.5.5 0 01.689-.159C18.959 7.322 20 9.132 20 12c0 2.868-1.04 4.678-2.235 5.424a.5.5 0 11-.53-.848C18.041 16.072 19 14.655 19 12c0-2.655-.96-4.072-1.765-4.576a.5.5 0 01-.159-.689zm-2.523 1.041a.5.5 0 01.67-.223C16.42 8.15 17.5 9.632 17.5 12s-1.081 3.85-2.276 4.447a.5.5 0 11-.448-.894C15.581 15.15 16.5 14.05 16.5 12s-.919-3.15-1.724-3.553a.5.5 0 01-.223-.67z" fill="#000" fill-opacity=".7"/></svg>