<svg width="24" height="24" viewBox="0 0 24 24" fill="none" xmlns="http://www.w3.org/2000/svg"><path fill-rule="evenodd" clip-rule="evenodd" d="M12 4.414a.5.5 0 00-.854-.353l-4 4a1.5 1.5 0 01-1.06.439H3a.5.5 0 00-.5.5v6a.5.5 0 00.5.5h3.086a1.5 1.5 0 011.06.44l4 4a.5.5 0 00.854-.354V4.414zm-1.56-1.06c.944-.945 2.56-.276 2.56 1.06v15.172c0 1.336-1.616 2.005-2.56 1.06l-4-4a.5.5 0 00-.354-.146H3A1.5 1.5 0 011.5 15V9A1.5 1.5 0 013 7.5h3.086a.5.5 0 00.353-.146l4-4zm5.206 5.292a.5.5 0 01.708 0L19 11.293l2.646-2.647a.5.5 0 01.708.708L19.707 12l2.647 2.646a.5.5 0 01-.708.708L19 12.707l-2.646 2.647a.5.5 0 01-.708-.708L18.293 12l-2.647-2.646a.5.5 0 010-.708z" fill="#000" fill-opacity=".7"/></svg>